unna_italic.sfdir
StartChar: exclam
Encoding: 33 33 271
Width: 263
Flags: MW
HStem: -10 21G<104.5 138> -10 115<117.5 138>
VStem: 63 129<36 59.5> 143 102<520 609.5>
LayerCount: 2
Back
Fore
SplineSet
200 637 m 0x90
 229 637 245 622 245 597 c 0
 245 578 238 552 230 520 c 2
 205 428 l 2
 188 363 169 289 160 217 c 0
 159 206 154 201 147 201 c 0
 139 201 136 204 136 210 c 2
 136 210 144 297 145 336 c 1
 145 381 144 385 144 428 c 2
 143 520 l 2
 142 547 143 570 145 588 c 0
 149 619 169 637 200 637 c 0x90
63 42 m 0xa0
 63 77 98 105 137 105 c 0x60
 169 105 192 82 192 53 c 0
 192 19 156 -10 120 -10 c 0
 89 -10 63 13 63 42 c 0xa0
EndSplineSet
EndChar
StartChar: quotedbl
Encoding: 34 34 277
Width: 247
Flags: MW
HStem: 409 231<91.5 139 118.5 213>
VStem: 87 69 200 69
LayerCount: 2
Back
Fore
SplineSet
89 600 m 0
 89 625 108 640 129 640 c 0
 149 640 156 625 156 607 c 0
 156 599 146 557 135 516 c 0
 124 471 115 433 113 423 c 0
 111 413 104 409 96 409 c 0
 87 409 83 417 84 426 c 0
 84 434 85 442 85 449 c 0
 86 473 86 496 87 519 c 1
 87 546 88 573 89 600 c 0
202 600 m 0
 202 625 221 640 242 640 c 0
 262 640 269 625 269 607 c 0
 269 599 259 557 248 516 c 0
 237 471 228 433 226 423 c 0
 224 413 217 409 209 409 c 0
 200 409 196 417 197 426 c 0
 197 434 198 442 198 449 c 0
 199 473 199 496 200 519 c 1
 200 546 201 573 202 600 c 0
EndSplineSet
EndChar
StartChar: numbersign
Encoding: 35 35 273
Width: 489
Flags: MW
HStem: -9 21G<22 63 22 22 170 212 170 170> 194 40<31 109 14 126 168 258 31 151 317 397> 405 40<119 200 104 216 119 242 257 349 407 489>
VStem: 14 490<194 445>
LayerCount: 2
Back
Fore
SplineSet
491 639 m 1
 407 445 l 1
 504 445 l 1
 489 405 l 1
 390 405 l 1
 317 234 l 1
 415 234 l 1
 397 194 l 1
 300 194 l 1
 212 -9 l 1
 170 -9 l 1
 258 194 l 1
 151 194 l 1
 63 -9 l 1
 22 -9 l 1
 109 194 l 1
 14 194 l 1
 31 234 l 1
 126 234 l 1
 200 405 l 1
 104 405 l 1
 119 445 l 1
 216 445 l 1
 301 639 l 1
 342 639 l 1
 257 445 l 1
 365 445 l 1
 449 639 l 1
 491 639 l 1
349 405 m 1
 242 405 l 1
 168 234 l 1
 276 234 l 1
 349 405 l 1
EndSplineSet
EndChar
StartChar: dollar
Encoding: 36 36 305
Width: 452
Flags: MW
HStem: 120 21<186 186 223 223> 140 101.5 369 84<326.5 339.5 326.5 343 323 339.5> 449 198<260 270>
VStem: 88 21<241 242> 106 63<376 393> 283 65<206.5 223.5>
LayerCount: 2
Back
Fore
SplineSet
287 318 m 2xa6
 331 305 348 278 348 242 c 0
 348 171 298 125 223 120 c 1
 194 -95 l 1
 156 -95 l 1
 186 120 l 1xaa
 144 125 119 140 98 140 c 0
 88 140 80 138 73 134 c 1
 88 241 l 1
 109 242 l 1x6a
 111 182 151 141 211 141 c 0
 257 141 283 170 283 211 c 0
 283 236 272 251 238 261 c 2
 164 283 l 2
 129 294 106 324 106 362 c 0
 106 424 158 468 236 471 c 1
 260 647 l 1
 298 647 l 1x96
 273 467 l 1
 295 462 317 453 336 453 c 0
 343 453 351 455 361 462 c 1
 343 369 l 1
 323 369 l 1xa6
 329 409 299 449 241 449 c 0
 195 449 169 429 169 387 c 0x96
 169 365 183 348 212 340 c 2
 287 318 l 2xa6
EndSplineSet
EndChar
StartChar: percent
Encoding: 37 37 330
Width: 597
Flags: MW
HStem: -9 19<408 444.5 408 458.5> -5 21G<84 84> 257 18<431.5 468> 324 19<154.5 191 154.5 205> 590 18<177.5 214>
VStem: 62 62<402 477.5 391 494> 243 63<454 529.5 437.5 541.5> 315 63<69 144.5 58 161.5> 497 63<121 196.5 104.5 208.5>
LayerCount: 2
Back
Fore
SplineSet
204 608 m 0x7f80
 265 608 306 567 306 492 c 0
 306 383 246 324 164 324 c 0
 100 324 62 365 62 439 c 0
 62 549 123 608 204 608 c 0x7f80
539 607 m 1
 571 586 l 1
 84 -5 l 1
 53 19 l 1
 539 607 l 1
201 590 m 0
 154 590 124 534 124 421 c 0
 124 361 142 343 167 343 c 0
 215 343 243 396 243 512 c 0
 243 571 227 590 201 590 c 0
458 275 m 0
 520 275 560 234 560 159 c 0
 560 50 499 -9 418 -9 c 0
 353 -9 315 32 315 106 c 0xbd80
 315 217 378 275 458 275 c 0
455 257 m 0xbd80
 408 257 378 201 378 88 c 0
 378 28 396 10 420 10 c 0
 469 10 497 63 497 179 c 0
 497 238 481 257 455 257 c 0xbd80
EndSplineSet
EndChar
StartChar: ampersand
Encoding: 38 38 341
Width: 590
Flags: MW
HStem: -9 27<216.5 313> 243 26.5 335 17 584 23<301.5 342>
VStem: 17 86<115 201 115 213.5> 161 80<447.5 511 445 517> 228 78<179.5 196.5> 373 72<543.5 548.5 514.5 562.5> 455 28<118.5 183.5 113 188> 493 81<354.5 367 327.5 372.5>
LayerCount: 2
Back
Fore
SplineSet
574 354 m 0xfac0
 574 301 511 265 442 249 c 1
 467 231 483 203 483 164 c 0xfc80
 483 62 378 -9 248 -9 c 0
 119 -9 17 60 17 168 c 0
 17 259 90 349 243 352 c 1
 200 376 161 420 161 475 c 0
 161 559 250 607 332 607 c 0
 407 607 445 567 445 530 c 0
 445 499 419 480 397 480 c 0
 379 480 361 493 361 512 c 0
 361 527 373 535 373 552 c 0xfd80
 373 573 356 584 328 584 c 0
 275 584 241 546 241 476 c 0
 241 414 267 375 322 356 c 1
 319 333 l 1
 306 335 294 335 282 335 c 0
 159 335 103 242 103 160 c 0
 103 70 169 18 264 18 c 0
 363 18 455 75 455 162 c 0xfc80
 455 214 422 243 377 243 c 0
 341 243 306 225 306 185 c 0
 306 174 309 164 309 153 c 0
 309 128 294 116 270 116 c 0
 243 116 228 132 228 163 c 0
 228 230 301 259 381 269 c 2
 389 270 l 2
 435 276 496 284 496 328 c 0
 496 338 493 349 493 360 c 0
 493 385 508 397 531 397 c 0
 559 397 574 380 574 354 c 0xfac0
EndSplineSet
EndChar
StartChar: quotesingle
Encoding: 39 39 278
Width: 132
Flags: MW
HStem: 409 231<89.5 137>
VStem: 85 69
LayerCount: 2
Back
Fore
SplineSet
87 600 m 0
 87 625 106 640 127 640 c 0
 147 640 154 625 154 607 c 0
 154 599 144 557 133 516 c 0
 122 471 113 433 111 423 c 0
 109 413 102 409 94 409 c 0
 85 409 81 417 82 426 c 0
 82 434 83 442 83 449 c 0
 84 473 84 496 85 519 c 1
 85 546 86 573 87 600 c 0
EndSplineSet
EndChar
StartChar: parenleft
Encoding: 40 40 286
Width: 248
Flags: MW
HStem: -231 942<142 318 142 318>
VStem: 15 93<96 236 89 273>
LayerCount: 2
Back
Fore
SplineSet
15 169 m 0
 15 377 121 553 274 711 c 1
 318 711 l 1
 198 579 108 323 108 149 c 0
 108 29 131 -144 186 -231 c 1
 142 -231 l 1
 64 -118 15 23 15 169 c 0
EndSplineSet
Position2: "'cpsp' Capital Spacing lookup 0 per glyph data 0" dx=0 dy=20 dh=0 dv=0
EndChar
StartChar: parenright
Encoding: 41 41 287
Width: 248
Flags: MW
HStem: -231 942<-63 113 -63 113>
VStem: 147 93<244 384 207 391>
LayerCount: 2
Back
Fore
SplineSet
240 311 m 0
 240 103 134 -73 -19 -231 c 1
 -63 -231 l 1
 57 -99 147 157 147 331 c 0
 147 451 124 624 69 711 c 1
 113 711 l 1
 191 598 240 457 240 311 c 0
EndSplineSet
Position2: "'cpsp' Capital Spacing lookup 0 per glyph data 0" dx=0 dy=20 dh=0 dv=0
EndChar
StartChar: asterisk
Encoding: 42 42 264
Width: 327
Flags: MW
HStem: 354 67<127.5 130.5 115.5 140.5> 401 20G<115.5 130.5> 478 28<126 147 257 279> 564 66<275 278.5>
VStem: 93 73<398 399.5> 121 69<571 598.5> 214 70<401 409 388 413> 239 74<576.5 601>
LayerCount: 2
Back
Fore
SplineSet
269 630 m 0x75
 288 630 313 607 313 595 c 0
 313 580 299 564 285 564 c 0
 265 564 244 528 238 511 c 1
 243 508 251 506 263 506 c 0
 303 506 292 530 318 530 c 0
 340 530 348 523 348 503 c 0
 348 463 334 454 308 454 c 0
 283 454 299 478 259 478 c 0
 243 478 237 475 233 473 c 1xb9
 231 458 245 429 253 424 c 0
 263 419 284 422 284 396 c 0
 284 380 252 354 230 354 c 0
 223 354 207 363 207 380 c 0
 207 389 214 395 214 407 c 0
 214 419 206 444 197 452 c 1
 181 440 166 414 166 402 c 0
 166 394 168 389 168 384 c 0
 168 365 144 354 137 354 c 0xba
 118 354 93 375 93 389 c 0
 93 410 110 421 121 421 c 0
 140 421 163 457 165 473 c 1
 162 476 152 478 142 478 c 0
 101 478 113 454 87 454 c 0
 65 454 57 461 57 481 c 0
 57 521 71 530 97 530 c 0
 122 530 106 506 146 506 c 0
 160 506 167 509 171 511 c 1x7a
 173 528 166 560 150 561 c 0
 128 563 121 577 121 589 c 0
 121 608 155 630 175 630 c 0
 182 630 199 621 199 604 c 0
 199 594 190 589 190 577 c 0
 190 565 199 540 208 532 c 1
 223 542 239 570 239 583 c 0
 239 590 237 595 237 599 c 0
 237 619 261 630 269 630 c 0x75
EndSplineSet
EndChar
StartChar: plus
Encoding: 43 43 332
Width: 447
Flags: MW
HStem: 259 44<33 205 27 211 262 434>
VStem: 27 413<259 303>
LayerCount: 2
Back
Fore
SplineSet
288 488 m 1
 262 303 l 1
 440 303 l 1
 434 259 l 1
 256 259 l 1
 230 73 l 1
 179 73 l 1
 205 259 l 1
 27 259 l 1
 33 303 l 1
 211 303 l 1
 237 488 l 1
 288 488 l 1
EndSplineSet
EndChar
StartChar: comma
Encoding: 44 44 269
Width: 243
Flags: MW
HStem: -4 96<49 118>
VStem: 89 68<-44.5 47.5>
LayerCount: 2
Back
Fore
SplineSet
98 92 m 0
 138 92 157 68 157 27 c 0
 157 -56 75 -127 24 -160 c 1
 7 -148 l 1
 42 -117 89 -61 89 -28 c 0
 89 -9 76 -4 60 -4 c 0
 38 -4 32 15 32 30 c 0
 32 64 66 92 98 92 c 0
EndSplineSet
EndChar
StartChar: hyphen
Encoding: 45 45 290
Width: 253
Flags: MW
HStem: 189 55<26 230 18 238>
VStem: 18 220<189 244>
LayerCount: 2
Back
Fore
SplineSet
238 244 m 1
 230 189 l 1
 18 189 l 1
 26 244 l 1
 238 244 l 1
EndSplineSet
Position2: "'cpsp' Capital Spacing lookup 0 per glyph data 0" dx=0 dy=20 dh=0 dv=0
EndChar
StartChar: period
Encoding: 46 46 274
Width: 240
Flags: MW
HStem: -10 21G<72.5 108> -10 115<85 108>
VStem: 34 125<35 58.5>
LayerCount: 2
Back
Fore
SplineSet
34 39 m 0xa0
 34 78 65 105 105 105 c 0x60
 137 105 159 86 159 55 c 0
 159 15 127 -10 89 -10 c 0
 56 -10 34 9 34 39 c 0xa0
EndSplineSet
EndChar
StartChar: slash
Encoding: 47 47 280
Width: 241
Flags: MW
HStem: -5 21G<4 4>
VStem: -34 338
LayerCount: 2
Back
Fore
SplineSet
265 636 m 1
 304 627 l 1
 4 -5 l 1
 -34 7 l 1
 265 636 l 1
EndSplineSet
EndChar
StartChar: zero
Encoding: 48 48 247
Width: 538
Flags: MW
HStem: -10 30<203.5 289.5 203.5 345.5> 580 27<272.5 358.5>
VStem: 36 85<145 196.5 118 302> 442 84<398.5 451 294 478.5>
LayerCount: 2
Back
Fore
SplineSet
323 607 m 0
 445 607 526 529 526 373 c 0
 526 215 454 -10 237 -10 c 0
 112 -10 36 69 36 221 c 0
 36 383 110 607 323 607 c 0
131 298 m 0
 125 252 121 213 121 180 c 0
 121 56 166 20 241 20 c 0
 338 20 403 83 433 298 c 0
 439 344 442 382 442 415 c 0
 442 542 397 580 320 580 c 0
 225 580 161 512 131 298 c 0
EndSplineSet
EndChar
StartChar: one
Encoding: 49 49 248
Width: 388
Flags: MW
HStem: 0 23<118 125 228.5 235>
VStem: 49 251<0 24>
LayerCount: 2
Back
Fore
SplineSet
299 617 m 1
 219 43 l 2
 217 30 222 23 235 23 c 2
 300 24 l 1
 297 0 l 1
 49 0 l 1
 52 24 l 1
 118 23 l 2
 132 23 140 30 142 43 c 2
 205 497 l 2
 207 509 199 518 187 512 c 2
 108 479 l 1
 105 513 l 1
 156 527 200 554 231 576 c 0
 249 589 266 603 282 617 c 1
 299 617 l 1
EndSplineSet
Substitution2: "'sups' Superscript lookup 8 subtable" uni00B9
Substitution2: "'aalt' Access All Alternates lookup 0 subtable" uni00B9
EndChar
StartChar: two
Encoding: 50 50 249
Width: 506
Flags: MW
HStem: 0 66<106 283 283 319 106 347> 580 27<245.5 312.5>
VStem: 87 90<486 491.5> 374 89<437 513>
LayerCount: 2
Back
Fore
SplineSet
283 66 m 2
 355 66 394 87 413 165 c 1
 449 165 l 1
 417 64 405 21 400 -3 c 1
 394 -1 364 0 347 0 c 2
 20 0 l 1
 24 45 l 1
 156 156 l 2
 314 289 374 370 374 481 c 0
 374 545 342 580 283 580 c 0
 208 580 177 538 177 494 c 0
 177 478 182 468 182 454 c 0
 182 429 160 412 130 412 c 0
 102 412 87 430 87 463 c 0
 87 520 140 607 294 607 c 0
 395 607 463 555 463 478 c 0
 463 396 440 330 236 168 c 1
 106 66 l 1
 283 66 l 2
EndSplineSet
Substitution2: "'sups' Superscript lookup 8 subtable" uni00B2
Substitution2: "'aalt' Access All Alternates lookup 0 subtable" uni00B2
EndChar
StartChar: three
Encoding: 51 51 250
Width: 499
Flags: MW
HStem: -10 27<172 255 172 279.5> 299 19 580 27<256.5 312>
VStem: 21 81<73 83 53 122> 86 97<461.5 484.5 461.5 510> 368 90<142 216.5> 375 89<455.5 527.5>
LayerCount: 2
Back
Fore
SplineSet
234 320 m 1xec
 234 318 l 1xec
 385 314 458 268 458 185 c 0
 458 68 356 -10 203 -10 c 0
 91 -10 21 42 21 104 c 0
 21 140 42 165 78 165 c 0
 105 165 120 151 120 131 c 0
 120 107 102 96 102 70 c 0
 102 36 146 17 198 17 c 0
 312 17 368 103 368 181 c 0xf4
 368 252 311 294 173 299 c 1
 177 327 l 1
 276 341 375 406 375 505 c 0
 375 550 339 580 285 580 c 0
 228 580 177 553 177 512 c 0
 177 500 183 491 183 478 c 0
 183 445 154 432 129 432 c 0
 98 432 86 450 86 473 c 0
 86 547 183 607 301 607 c 0
 399 607 464 565 464 501 c 0xea
 464 402 350 336 234 320 c 1xec
EndSplineSet
Substitution2: "'sups' Superscript lookup 8 subtable" uni00B3
Substitution2: "'aalt' Access All Alternates lookup 0 subtable" uni00B3
EndChar
StartChar: four
Encoding: 52 52 251
Width: 470
Flags: MW
HStem: 0 23<242 248.5 351 357> 155 69<74 278 9 288 366 436 74 356> 584 20G<394 419 419 419>
VStem: 9 437<155 224>
LayerCount: 2
Back
Fore
SplineSet
419 604 m 1
 366 224 l 1
 446 224 l 1
 436 155 l 1
 356 155 l 1
 341 43 l 2
 339 30 345 23 357 23 c 2
 403 24 l 1
 400 0 l 1
 172 0 l 1
 175 24 l 1
 242 23 l 2
 255 23 261 30 263 43 c 2
 278 155 l 1
 9 155 l 1
 18 215 l 1
 28 223 40 233 52 245 c 2
 85 276 l 1
 350 554 l 1
 370 576 l 1
 394 604 l 1
 419 604 l 1
325 488 m 1
 74 224 l 1
 288 224 l 1
 325 488 l 1
EndSplineSet
EndChar
StartChar: five
Encoding: 53 53 252
Width: 492
Flags: MW
HStem: -10 27<183 265.5 183 287.5> 341 41<250.5 278.5> 531 66<162 403 403 428.5 139 463 162 162> 580 20G
VStem: 25 80<70.5 94.5 58.5 132.5> 361 91<186.5 257>
LayerCount: 2
Back
Fore
SplineSet
463 531 m 1xec
 162 531 l 1
 122 331 l 1
 162 361 226 382 275 382 c 0
 381 382 452 329 452 224 c 0
 452 119 372 -10 203 -10 c 0
 117 -10 25 29 25 112 c 0
 25 153 46 177 84 177 c 0
 105 177 124 164 124 141 c 0
 124 115 105 107 105 82 c 0
 105 35 158 17 208 17 c 0
 323 17 361 153 361 220 c 0
 361 294 316 341 241 341 c 0
 188 341 136 318 108 288 c 1
 81 288 l 1
 139 597 l 1
 403 597 l 2xec
 454 597 473 599 487 600 c 1xdc
 477 584 468 553 463 531 c 1xec
EndSplineSet
EndChar
StartChar: six
Encoding: 54 54 253
Width: 487
Flags: MW
HStem: -11 25<193.5 290.5 193.5 290.5> 372 27<263 316.5> 579 28<277 342>
VStem: 49 77<124 189.5 114.5 314.5> 372 86<206.5 278> 384 87<524.5 540 501 548.5>
LayerCount: 2
Back
Fore
SplineSet
298 399 m 0xf8
 394 399 458 335 458 238 c 0xf8
 458 89 362 -11 219 -11 c 0
 108 -11 49 59 49 189 c 0
 49 440 165 607 339 607 c 0
 412 607 471 564 471 516 c 0
 471 486 450 457 410 457 c 0
 387 457 370 468 370 488 c 0
 370 509 384 513 384 536 c 0
 384 561 360 579 324 579 c 0xf4
 230 579 168 458 148 317 c 1
 178 366 228 399 298 399 c 0xf8
232 14 m 0
 349 14 372 167 372 246 c 0
 372 310 353 372 280 372 c 0
 163 372 126 228 126 151 c 0
 126 78 155 14 232 14 c 0
EndSplineSet
EndChar
StartChar: seven
Encoding: 55 55 254
Width: 428
Flags: MW
HStem: 0 21G<111 205 111 111> 530 67<171 472 219 407> 580 20G
VStem: 67 405<472 597>
LayerCount: 2
Back
Fore
SplineSet
219 597 m 2xd0
 472 597 l 1
 470 555 l 1
 284 376 215 181 205 0 c 1
 111 0 l 1
 134 145 183 315 407 530 c 1
 200 530 l 2
 142 530 115 514 103 472 c 1
 67 472 l 1xd0
 78 510 97 581 100 600 c 1xb0
 113 597 158 597 219 597 c 2xd0
EndSplineSet
EndChar
StartChar: eight
Encoding: 56 56 255
Width: 494
Flags: MW
HStem: -10 27<176.5 252.5 176.5 280> 580 27<286.5 355>
VStem: 25 67<87 153 87 155.5> 97 96<440.5 488.5> 358 99<118 175> 425 62<464 521>
LayerCount: 2
Back
Fore
SplineSet
329 327 m 1xe8
 394 287 457 244 457 173 c 0
 457 63 356 -10 204 -10 c 0
 97 -10 25 38 25 111 c 0xe8
 25 200 104 272 197 305 c 1
 137 342 97 380 97 438 c 0
 97 539 187 607 322 607 c 0
 421 607 487 562 487 494 c 0xd4
 487 423 424 350 329 327 c 1xe8
325 580 m 0xd4
 248 580 193 537 193 470 c 0
 193 411 248 376 307 340 c 1
 390 376 425 432 425 496 c 0
 425 546 385 580 325 580 c 0xd4
213 17 m 0xe8
 292 17 358 59 358 138 c 0
 358 212 283 255 220 291 c 1
 155 261 92 189 92 117 c 0
 92 57 140 17 213 17 c 0xe8
EndSplineSet
EndChar
StartChar: nine
Encoding: 57 57 256
Width: 487
Flags: MW
HStem: -11 28<170 235 170 260> 197 27<195.5 249> 582 25<221.5 318.5>
VStem: 41 87<56 71.5 47.5 95> 54 86<318 389.5 318 432.5> 386 77<406.5 472 281.5 481.5>
LayerCount: 2
Back
Fore
SplineSet
293 607 m 0xec
 404 607 463 537 463 407 c 0
 463 156 347 -11 173 -11 c 0
 100 -11 41 32 41 80 c 0
 41 110 62 139 102 139 c 0
 125 139 142 128 142 108 c 0
 142 87 128 83 128 60 c 0
 128 35 152 17 188 17 c 0xf4
 282 17 344 138 364 279 c 1
 334 230 284 197 214 197 c 0
 118 197 54 261 54 358 c 0
 54 507 150 607 293 607 c 0xec
232 224 m 0
 349 224 386 368 386 445 c 0
 386 518 357 582 280 582 c 0
 163 582 140 429 140 350 c 0
 140 286 159 224 232 224 c 0
EndSplineSet
EndChar
StartChar: colon
Encoding: 58 58 268
Width: 244
Flags: MW
HStem: -10 21G<72.5 108> -10 115<85 108> 288 115<130 153>
VStem: 34 125<35 58.5> 79 125<333 356.5>
LayerCount: 2
Back
Fore
SplineSet
79 337 m 0xa8
 79 376 110 403 150 403 c 0
 182 403 204 384 204 353 c 0
 204 313 172 288 134 288 c 0
 101 288 79 307 79 337 c 0xa8
34 39 m 0xb0
 34 78 65 105 105 105 c 0x70
 137 105 159 86 159 55 c 0
 159 15 127 -10 89 -10 c 0
 56 -10 34 9 34 39 c 0xb0
EndSplineSet
EndChar
StartChar: semicolon
Encoding: 59 59 279
Width: 243
Flags: MW
HStem: -4 21G<61 80> -4 96<61 130> 288 115<117 140>
VStem: 66 125<333 356.5> 101 68<-44.5 47.5>
LayerCount: 2
Back
Fore
SplineSet
66 337 m 0xb0
 66 376 97 403 137 403 c 0
 169 403 191 384 191 353 c 0
 191 313 159 288 121 288 c 0
 88 288 66 307 66 337 c 0xb0
110 92 m 0x68
 150 92 169 68 169 27 c 0
 169 -56 87 -127 36 -160 c 1
 19 -148 l 1
 54 -117 101 -61 101 -28 c 0
 101 -9 88 -4 72 -4 c 0
 50 -4 44 15 44 30 c 0
 44 64 78 92 110 92 c 0x68
EndSplineSet
EndChar
StartChar: less
Encoding: 60 60 322
Width: 446
Flags: MW
HStem: -10 21G<376 376>
VStem: 64 375<203 441>
LayerCount: 2
Back
Fore
SplineSet
376 -10 m 1
 64 203 l 1
 67 226 l 1
 439 441 l 1
 432 391 l 1
 163 236 l 1
 118 216 l 1
 157 194 l 1
 383 40 l 1
 376 -10 l 1
EndSplineSet
EndChar
StartChar: equal
Encoding: 61 61 316
Width: 444
Flags: MW
HStem: 103 43<24 394 18 400> 302 43<52 422 46 428>
VStem: 18 410<103 345>
LayerCount: 2
Back
Fore
SplineSet
428 345 m 1
 422 302 l 1
 46 302 l 1
 52 345 l 1
 428 345 l 1
400 146 m 1
 394 103 l 1
 18 103 l 1
 24 146 l 1
 400 146 l 1
EndSplineSet
EndChar
StartChar: greater
Encoding: 62 62 317
Width: 446
Flags: MW
HStem: -5 21G<21 21>
VStem: 21 375<-5 233>
LayerCount: 2
Back
Fore
SplineSet
84 446 m 1
 396 233 l 1
 393 210 l 1
 21 -5 l 1
 28 45 l 1
 297 200 l 1
 342 220 l 1
 303 242 l 1
 77 396 l 1
 84 446 l 1
EndSplineSet
EndChar
StartChar: question
Encoding: 63 63 275
Width: 392
Flags: MW
HStem: -10 21G<132 164> -10 115<141 164> 643 27<213.5 262.5>
VStem: 72 77<591.5 609.5> 88 131<34.5 56> 122 71<297.5 355 289 361> 317 89<534.5 596.5>
LayerCount: 2
Back
Fore
SplineSet
214 219 m 1xa6
 178 228 122 274 122 321 c 0xa6
 122 401 317 489 317 580 c 0
 317 613 291 643 234 643 c 0
 193 643 149 628 149 597 c 0
 149 586 154 580 154 570 c 0
 154 546 132 538 113 538 c 0
 82 538 72 560 72 579 c 0xb2
 72 640 167 670 253 670 c 0
 346 670 406 634 406 572 c 0
 406 449 193 409 193 301 c 0
 193 277 203 253 229 238 c 1
 214 219 l 1xa6
146 -10 m 0xaa
 118 -10 88 6 88 39 c 0
 88 73 121 105 161 105 c 0x6a
 191 105 219 88 219 55 c 0
 219 14 182 -10 146 -10 c 0xaa
EndSplineSet
EndChar
StartChar: at
Encoding: 64 64 340
Width: 718
Flags: MW
HStem: -145 29<246.5 376.5> -10 20 -10 55<274.5 275.5> -10 85<428 532> 400 30<388.5 433.5> 567 29<360 522.5>
VStem: 16 57<57.5 248> 152 89<97 141.5 97 182> 411 87<7 110> 675 33<250.5 400.5>
LayerCount: 2
Back
Fore
SplineSet
462 596 m 0xaf40
 610 596 708 486 708 343 c 0
 708 121 518 -10 435 -10 c 0
 421 -10 411 -2 411 16 c 0
 411 49 420 115 439 187 c 1
 362 41 307 -10 244 -10 c 0xafc0
 185 -10 152 36 152 112 c 0
 152 252 277 430 419 430 c 0
 448 430 463 418 476 391 c 1
 481 411 l 1
 563 428 l 1
 540 330 l 1
 518 230 498 128 498 92 c 0
 498 82 501 75 509 75 c 0x9fc0
 555 75 675 164 675 337 c 0
 675 464 587 567 458 567 c 0
 262 567 73 374 73 131 c 0
 73 -16 166 -116 327 -116 c 0
 441 -116 529 -79 625 10 c 1xcf40
 640 -13 l 1
 538 -109 439 -145 314 -145 c 0
 129 -145 16 -39 16 132 c 0
 16 364 222 596 462 596 c 0xaf40
421 400 m 0
 356 400 299 336 264 241 c 0
 249 199 241 160 241 123 c 0
 241 71 258 45 291 45 c 0
 330 45 464 230 464 348 c 0
 464 376 446 400 421 400 c 0
EndSplineSet
EndChar
StartChar: A
Encoding: 65 65 2
Width: 580
GlyphClass: 2
Flags: MW
HStem: 0 27<-16 -4 -16 119 536 541> 208 28<154 353 154 361 139 353> 587 20G<326 355 355 355>
VStem: -51 626<0 29>
LayerCount: 2
Back
Fore
SplineSet
541 27 m 1
 575 29 l 1
 571 0 l 1
 312 0 l 1
 316 29 l 1
 369 27 l 2
 389 26 396 40 396 58 c 0
 396 67 395 80 392 90 c 2
 361 208 l 1
 139 208 l 1
 79 96 l 2
 68 76 58 56 58 41 c 0
 58 32 62 26 72 26 c 2
 123 29 l 1
 119 0 l 1
 -51 0 l 1
 -47 29 l 1
 -16 27 l 1
 8 27 28 58 53 104 c 2
 326 607 l 1
 355 607 l 1
 486 102 l 2
 499 53 509 27 536 27 c 2
 541 27 l 1
154 236 m 1
 353 236 l 1
 288 484 l 1
 154 236 l 1
EndSplineSet
Substitution2: "Single Substitution lookup 21 subtable" ordfeminine
Substitution2: "'aalt' Access All Alternates lookup 0 subtable" ordfeminine
Position2: "'cpsp' Capital Spacing lookup 0 per glyph data 2" dx=5 dy=0 dh=10 dv=0
EndChar
StartChar: B
Encoding: 66 66 13
Width: 555
GlyphClass: 2
Flags: MW
HStem: 0 28<192 260 260 272> 299 28<222 294 294 316 218 294> 569 28<149 153.5 263.5 266 266 322>
VStem: 415 96<139 219.5 122 227> 425 96<433.5 501.5>
LayerCount: 2
Back
Fore
SplineSet
370 597 m 2xe8
 468 597 521 556 521 476 c 0xe8
 521 391 455 333 366 317 c 1
 450 317 511 259 511 180 c 0xf0
 511 64 432 0 272 0 c 2
 18 0 l 1
 22 29 l 1
 72 27 l 2
 82 27 88 34 90 49 c 2
 160 549 l 2
 161 558 158 569 149 569 c 2
 98 567 l 1
 102 597 l 1
 370 597 l 2xe8
322 569 m 2
 266 569 l 2
 261 569 256 565 254 557 c 2
 222 327 l 1
 294 327 l 2
 383 327 425 382 425 471 c 0
 425 532 389 569 322 569 c 2
316 299 m 2xf0
 218 299 l 1
 182 41 l 2
 180 32 184 28 192 28 c 2
 260 28 l 2
 349 28 415 87 415 191 c 0
 415 263 381 299 316 299 c 2xf0
EndSplineSet
Position2: "'cpsp' Capital Spacing lookup 0 per glyph data 2" dx=5 dy=0 dh=10 dv=0
EndChar
StartChar: D
Encoding: 68 68 18
Width: 613
GlyphClass: 2
Flags: MW
HStem: 0 28<180 224 224 248> 569 28<137 142.5 253 256 256 300>
VStem: 487 101<340.5 442.5>
LayerCount: 2
Back
Fore
SplineSet
320 597 m 2
 497 597 588 531 588 362 c 0
 588 134 481 0 248 0 c 2
 18 0 l 1
 22 29 l 1
 65 27 l 2
 74 27 79 37 81 49 c 2
 151 548 l 2
 153 559 148 569 137 569 c 2
 98 567 l 1
 102 597 l 1
 320 597 l 2
300 569 m 2
 256 569 l 2
 250 569 245 565 244 556 c 2
 172 41 l 2
 170 32 174 28 180 28 c 2
 224 28 l 2
 380 28 434 91 464 202 c 0
 477 250 487 308 487 373 c 0
 487 512 431 569 300 569 c 2
EndSplineSet
Position2: "'cpsp' Capital Spacing lookup 0 per glyph data 2" dx=5 dy=0 dh=10 dv=0
EndChar
StartChar: E
Encoding: 69 69 22
Width: 545
GlyphClass: 2
Flags: MW
HStem: 0 28<180 316 316 359> 297 28<212 298 208 302> 406 20G<387 417 417 417> 443 154<477 506 477 477> 569 28<136 141.5 253 256 256 360>
VStem: 387 30<426 426> 479.55 26.45
AnchorPoint: "Anchor-0" 222 0 basechar 0
LayerCount: 2
Back
Fore
SplineSet
528 599 m 1xee
 506 443 l 1
 477 443 l 1xf6
 490 532 454 569 360 569 c 2
 256 569 l 2
 250 569 245 564 244 555 c 2
 212 325 l 1
 302 325 l 2
 343 325 378 362 387 426 c 1
 417 426 l 1
 384 195 l 1
 354 195 l 1
 363 255 336 297 298 297 c 2
 208 297 l 1
 172 41 l 2
 171 32 174 28 180 28 c 2
 316 28 l 2
 402 28 456 82 469 179 c 1
 498 179 l 1
 473 -3 l 1
 458 -1 428 0 387 0 c 2
 18 0 l 1
 22 30 l 1
 62 27 l 2
 72 27 79 34 81 49 c 2
 151 548 l 2
 153 561 147 569 136 569 c 2
 98 567 l 1
 102 597 l 1
 510 597 l 2
 518 597 523 597 528 599 c 1xee
EndSplineSet
Position2: "'cpsp' Capital Spacing lookup 0 per glyph data 2" dx=5 dy=0 dh=10 dv=0
EndChar
StartChar: F
Encoding: 70 70 31
Width: 513
GlyphClass: 2
Flags: MW
HStem: 0 27<62 67 182.5 187> 287 28<210 277 207 281> 443 154<487 516 487 487> 569 28<139 143.5 253 256 256 369>
VStem: 371 29<417 417> 489.55 26.45
LayerCount: 2
Back
Fore
SplineSet
538 599 m 1xdc
 516 443 l 1
 487 443 l 1xec
 500 531 464 569 369 569 c 2
 256 569 l 2
 250 569 245 565 244 556 c 2
 210 315 l 1
 281 315 l 2
 326 315 362 353 371 417 c 1
 400 417 l 1
 367 187 l 1
 338 187 l 1
 347 248 322 287 277 287 c 2
 207 287 l 1
 173 48 l 2
 171 36 178 27 187 27 c 2
 239 30 l 1
 235 0 l 1
 18 0 l 1
 22 30 l 1
 62 27 l 2
 72 27 79 34 81 49 c 2
 151 548 l 2
 153 562 148 569 139 569 c 2
 98 567 l 1
 102 597 l 1
 522 597 l 2
 528 597 533 597 538 599 c 1xdc
EndSplineSet
Position2: "'cpsp' Capital Spacing lookup 0 per glyph data 2" dx=5 dy=0 dh=10 dv=0
EndChar
StartChar: G
Encoding: 71 71 32
Width: 626
GlyphClass: 2
Flags: MW
HStem: -10 27<256.5 334 256.5 362> 245 27<443 449 564 569> 433 131<561 567 525 585> 582 25<317.5 424.5>
VStem: 49 100<156.5 342 152.5 357.5> 530 37<433 507>
AnchorPoint: "Anchor-0" 283 0 basechar 0
LayerCount: 2
Back
Fore
SplineSet
389 607 m 0
 515 607 537 564 585 564 c 1
 578 540 566 468 567 433 c 1
 525 433 l 1xfc
 527 438 530 443 530 467 c 0
 530 547 468 582 381 582 c 0
 254 582 149 460 149 224 c 0
 149 81 207 17 306 17 c 0
 362 17 395 27 434 63 c 1
 457 223 l 2
 459 238 455 245 443 245 c 2
 385 243 l 1
 389 272 l 1
 615 272 l 1
 611 243 l 1
 569 245 l 2
 559 245 551 235 550 224 c 2
 523 35 l 1
 517 36 513 36 509 36 c 0
 471 36 426 -10 298 -10 c 0
 141 -10 49 74 49 239 c 0
 49 476 175 607 389 607 c 0
EndSplineSet
Position2: "'cpsp' Capital Spacing lookup 0 per glyph data 2" dx=5 dy=0 dh=10 dv=0
EndChar
StartChar: H
Encoding: 72 72 35
Width: 674
GlyphClass: 2
Flags: MW
HStem: 0 27<61 66.5 182.5 188 434 440 554.5 560> 294 28<211 488 207 492> 569 28<137 137 258.5 264 510 516.5 630.5 636>
VStem: 18 662<0 597>
LayerCount: 2
Back
Fore
SplineSet
680 597 m 1
 676 567 l 1
 636 569 l 2
 625 569 619 561 617 548 c 2
 547 49 l 2
 545 34 549 27 560 27 c 2
 600 29 l 1
 596 0 l 1
 381 0 l 1
 385 29 l 1
 434 27 l 2
 446 27 452 34 454 49 c 2
 488 294 l 1
 207 294 l 1
 173 49 l 2
 171 34 177 27 188 27 c 2
 237 29 l 1
 233 0 l 1
 18 0 l 1
 22 29 l 1
 61 27 l 2
 72 27 79 34 81 49 c 2
 151 548 l 2
 153 559 150 570 137 569 c 2
 98 567 l 1
 102 597 l 1
 317 597 l 1
 313 567 l 1
 264 569 l 2
 253 569 245 561 243 548 c 2
 211 322 l 1
 492 322 l 1
 524 548 l 2
 525 559 523 569 510 569 c 2
 461 567 l 1
 465 597 l 1
 680 597 l 1
EndSplineSet
Position2: "'cpsp' Capital Spacing lookup 0 per glyph data 2" dx=5 dy=0 dh=10 dv=0
EndChar
StartChar: I
Encoding: 73 73 36
Width: 301
GlyphClass: 2
Flags: MW
HStem: 0 27<61 66.5 182.5 188> 569 28<137 142.5 258.5 264>
VStem: 18 289
LayerCount: 2
Back
Fore
SplineSet
307 597 m 1
 303 567 l 1
 264 569 l 2
 253 569 245 561 243 548 c 2
 173 49 l 2
 171 34 177 27 188 27 c 2
 227 29 l 1
 223 0 l 1
 18 0 l 1
 22 29 l 1
 61 27 l 2
 72 27 79 34 81 49 c 2
 151 548 l 2
 153 560 148 569 137 569 c 2
 98 567 l 1
 102 597 l 1
 307 597 l 1
EndSplineSet
Position2: "'cpsp' Capital Spacing lookup 0 per glyph data 2" dx=5 dy=0 dh=10 dv=0
EndChar
StartChar: J
Encoding: 74 74 45
Width: 437
GlyphClass: 2
Flags: MW
HStem: -10 26<116.5 162.5 92.5 197> -4 20 5 167<21.5 40.5> 569 28<279 283.5 400 406>
VStem: 17 34.27
LayerCount: 2
Back
Fore
SplineSet
447 597 m 1x98
 443 567 l 1
 406 569 l 2
 394 569 387 561 385 549 c 2
 333 179 l 2
 315 51 250 -10 144 -10 c 0
 89 -10 53 5 28 5 c 0x98
 15 5 3 3 -8 -4 c 1x58
 17 172 l 1x38
 54 172 l 1
 45 113 53 16 132 16 c 0
 193 16 223 59 240 179 c 2
 292 548 l 2
 294 561 288 569 279 569 c 2
 210 567 l 1
 214 597 l 1
 447 597 l 1x98
EndSplineSet
Position2: "'cpsp' Capital Spacing lookup 0 per glyph data 2" dx=5 dy=0 dh=10 dv=0
EndChar
StartChar: K
Encoding: 75 75 46
Width: 598
GlyphClass: 2
Flags: MW
HStem: 0 27<61 66.5 182.5 188 388 396.5 528 536.5> 569 28<137 142.5 258.5 264 459 461.5 553 553>
VStem: 18 578
AnchorPoint: "Anchor-0" 270 0 basechar 0
LayerCount: 2
Back
Fore
SplineSet
553 569 m 2
 537 570 521 562 499 540 c 2
 328 365 l 1
 512 41 l 2
 517 32 524 27 532 27 c 0
 541 27 555 29 566 30 c 1
 562 0 l 1
 330 0 l 1
 334 30 l 1
 388 27 l 2
 405 27 407 41 401 52 c 2
 262 298 l 1
 199 234 l 1
 173 49 l 2
 171 34 177 27 188 27 c 2
 237 29 l 1
 233 0 l 1
 18 0 l 1
 22 29 l 1
 61 27 l 2
 72 27 79 34 81 49 c 2
 151 548 l 2
 153 561 148 569 137 569 c 2
 98 567 l 1
 102 597 l 1
 317 597 l 1
 313 567 l 1
 264 569 l 2
 253 569 245 562 243 547 c 2
 206 281 l 1
 459 548 l 2
 463 553 466 558 466 562 c 0
 466 567 464 569 459 569 c 2
 417 567 l 1
 421 597 l 1
 596 597 l 1
 592 567 l 1
 553 569 l 2
EndSplineSet
Position2: "'cpsp' Capital Spacing lookup 0 per glyph data 2" dx=5 dy=0 dh=10 dv=0
EndChar
StartChar: L
Encoding: 76 76 48
Width: 498
GlyphClass: 2
Flags: MW
HStem: 0 28<180 289 289 326> 569 28<137 142 258.5 264>
VStem: 18 453<0 171>
AnchorPoint: "Anchor-0" 217 0 basechar 0
LayerCount: 2
Back
Fore
SplineSet
317 597 m 1
 313 567 l 1
 264 569 l 2
 253 569 245 561 243 548 c 2
 172 41 l 2
 171 32 174 28 180 28 c 2
 289 28 l 2
 377 28 430 78 443 171 c 1
 471 171 l 1
 447 -3 l 1
 434 -1 394 0 326 0 c 2
 18 0 l 1
 22 30 l 1
 65 27 l 2
 74 27 79 37 81 49 c 2
 151 548 l 2
 153 560 147 569 137 569 c 2
 98 567 l 1
 102 597 l 1
 317 597 l 1
EndSplineSet
Position2: "Single Positioning lookup 4 subtable" dx=0 dy=0 dh=-40 dv=0
Position2: "'cpsp' Capital Spacing lookup 0 per glyph data 2" dx=5 dy=0 dh=10 dv=0
EndChar
StartChar: M
Encoding: 77 77 54
Width: 830
GlyphClass: 2
Flags: MW
HStem: -10 21G<350 376 350 350> 0 27<56 62 120.5 126 590 595.5 711 717> 569 28<145 146.5 787.5 793>
VStem: 13 818<0 597>
LayerCount: 2
Back
Fore
SplineSet
831 597 m 1x70
 827 567 l 1
 793 569 l 2
 782 569 774 561 772 549 c 2
 702 49 l 2
 700 34 705 27 717 27 c 2
 756 29 l 1
 752 0 l 1
 537 0 l 1
 541 29 l 1
 590 27 l 2
 601 27 608 34 610 49 c 2x70
 675 513 l 1
 376 -10 l 1
 350 -10 l 1xb0
 179 520 l 1
 113 49 l 2
 111 34 115 27 126 27 c 2
 175 29 l 1
 171 0 l 1
 13 0 l 1
 17 29 l 1
 56 27 l 2
 68 27 75 34 77 49 c 2
 149 563 l 2
 150 567 148 569 145 569 c 2
 100 567 l 1
 104 597 l 1
 255 597 l 1
 410 115 l 1
 687 597 l 1
 831 597 l 1x70
EndSplineSet
Position2: "'cpsp' Capital Spacing lookup 0 per glyph data 2" dx=5 dy=0 dh=10 dv=0
EndChar
StartChar: N
Encoding: 78 78 55
Width: 641
GlyphClass: 2
Flags: MW
HStem: -6 21G<479 511 479 479> 0 27<56 62 120.5 126> 569 28<132 138 541 546 602 607>
VStem: 13 639<0 597>
AnchorPoint: "Anchor-0" 318 0 basechar 0
LayerCount: 2
Back
Fore
SplineSet
652 597 m 1x70
 648 567 l 1
 607 569 l 2
 597 569 591 562 589 548 c 2
 511 -6 l 1
 479 -6 l 1xb0
 179 521 l 1
 113 49 l 2
 111 34 115 27 126 27 c 2
 175 29 l 1
 171 0 l 1
 13 0 l 1
 17 29 l 1
 56 27 l 2
 68 27 75 34 77 49 c 2
 147 548 l 2
 149 560 144 569 132 569 c 2
 93 567 l 1
 97 597 l 1
 249 597 l 1
 498 158 l 1
 553 549 l 2
 555 562 551 569 541 569 c 2
 489 567 l 1
 493 597 l 1
 652 597 l 1x70
EndSplineSet
Position2: "'cpsp' Capital Spacing lookup 0 per glyph data 2" dx=5 dy=0 dh=10 dv=0
EndChar
StartChar: O
Encoding: 79 79 60
Width: 649
GlyphClass: 2
Flags: MW
HStem: -10 27<251.5 346.5> 580 27<325 421>
VStem: 50 98<140 261.5 140 402> 524 99<333 457.5>
LayerCount: 2
Back
Fore
SplineSet
50 242 m 0
 50 562 271 607 379 607 c 0
 466 607 623 575 623 356 c 0
 623 36 400 -10 293 -10 c 0
 205 -10 50 25 50 242 c 0
148 215 m 0
 148 65 197 17 306 17 c 0
 388 17 444 60 478 139 c 0
 504 200 524 283 524 383 c 0
 524 532 476 580 366 580 c 0
 280 580 222 532 189 443 c 0
 167 385 148 308 148 215 c 0
EndSplineSet
Substitution2: "Single Substitution lookup 21 subtable" ordmasculine
Substitution2: "'aalt' Access All Alternates lookup 0 subtable" ordmasculine
Position2: "'cpsp' Capital Spacing lookup 0 per glyph data 2" dx=5 dy=0 dh=10 dv=0
EndChar
StartChar: P
Encoding: 80 80 70
Width: 507
GlyphClass: 2
Flags: MW
HStem: 0 27<61 66.5 182.5 188> 263 28<207 287 287 303 203 287> 569 28<136 136 254 256 256 310>
VStem: 411 96<412 491>
LayerCount: 2
Back
Fore
SplineSet
330 597 m 2
 451 597 507 552 507 463 c 0
 507 345 426 263 303 263 c 2
 203 263 l 1
 173 49 l 2
 171 34 177 27 188 27 c 2
 237 29 l 1
 233 0 l 1
 18 0 l 1
 22 29 l 1
 61 27 l 2
 72 27 79 34 81 49 c 2
 151 547 l 2
 153 560 150 570 136 569 c 2
 98 567 l 1
 102 597 l 1
 330 597 l 2
310 569 m 2
 256 569 l 2
 252 569 245 564 244 557 c 2
 207 291 l 1
 287 291 l 2
 353 291 411 366 411 458 c 0
 411 524 374 569 310 569 c 2
EndSplineSet
Position2: "'cpsp' Capital Spacing lookup 0 per glyph data 2" dx=5 dy=0 dh=10 dv=0
EndChar
StartChar: Q
Encoding: 81 81 72
Width: 649
GlyphClass: 2
Flags: MW
HStem: -156 58<481 484.5> -10 27<251.5 293> -3 20<251.5 347> 580 27<325 421>
VStem: 50 98<140 261.5 140 402> 524 99<333 457.5>
LayerCount: 2
Back
Fore
SplineSet
504 -98 m 0xdc
 528 -98 553 -93 582 -86 c 1
 589 -112 l 1
 543 -141 503 -156 466 -156 c 0
 406 -156 354 -110 293 -10 c 1xdc
 205 -10 50 25 50 242 c 0
 50 562 271 607 379 607 c 0
 466 607 623 575 623 356 c 0
 623 97 477 17 364 -3 c 1xbc
 418 -76 458 -98 504 -98 c 0xdc
148 215 m 0
 148 65 197 17 306 17 c 0
 388 17 444 60 478 139 c 0
 504 200 524 283 524 383 c 0
 524 532 476 580 366 580 c 0
 280 580 222 532 189 443 c 0
 167 385 148 308 148 215 c 0
EndSplineSet
Position2: "'cpsp' Capital Spacing lookup 0 per glyph data 2" dx=5 dy=0 dh=10 dv=0
EndChar
StartChar: S
Encoding: 83 83 77
Width: 479
GlyphClass: 2
Flags: MW
HStem: -10 28<212 252.5> 434 138<431 439 431 447 419 439> 580 27<261 311 223 337>
VStem: 45 26<114.5 203> 83 88<453.5 481 453.5 483.5> 343 95<120 164.5> 419 27<434 496.5>
AnchorPoint: "Anchor-0" 227 0 basechar 0
LayerCount: 2
Back
Fore
SplineSet
289 607 m 0xac
 333 607 359 596 409 578 c 0
 419 574 428 572 434 572 c 0
 444 572 454 573 465 577 c 1
 460 560 446 535 446 458 c 0
 446 448 446 439 447 434 c 1xea
 419 434 l 1
 431 522 377 580 297 580 c 0
 225 580 172 542 171 481 c 0
 171 426 214 395 267 365 c 2xaa
 329 330 l 1
 387 296 438 254 438 176 c 0
 438 64 336 -10 228 -10 c 0
 196 -10 166 -4 139 3 c 0
 109 10 84 18 69 18 c 0
 49 18 22 11 20 10 c 1
 26 28 45 57 45 172 c 0
 45 183 45 199 44 203 c 1
 71 203 l 1xbc
 68 82 117 18 221 18 c 0
 284 18 343 67 343 132 c 0
 343 197 297 231 244 261 c 2
 195 288 l 2
 136 321 83 360 83 441 c 0
 83 526 157 607 289 607 c 0xac
EndSplineSet
Position2: "'cpsp' Capital Spacing lookup 0 per glyph data 2" dx=5 dy=0 dh=10 dv=0
EndChar
StartChar: U
Encoding: 85 85 86
Width: 631
GlyphClass: 2
Flags: MW
HStem: -10 36<270.5 375.5> 569 28<123 127.5 244.5 250 548 553 613 618>
VStem: 84.41 92.78
LayerCount: 2
Back
Fore
SplineSet
661 597 m 1
 657 567 l 1
 618 569 l 2
 608 569 601 562 599 549 c 2
 548 189 l 2
 529 54 448 -10 303 -10 c 0
 147 -10 68 62 87 199 c 2
 136 548 l 2
 138 560 132 569 123 569 c 2
 84 567 l 1
 88 597 l 1
 303 597 l 1
 299 567 l 1
 250 569 l 2
 239 569 231 562 229 549 c 2
 180 199 l 1
 164 92 217 26 324 26 c 0
 438 26 495 82 512 198 c 2
 561 548 l 2
 563 561 558 569 548 569 c 2
 499 567 l 1
 503 597 l 1
 661 597 l 1
EndSplineSet
Position2: "'cpsp' Capital Spacing lookup 0 per glyph data 2" dx=5 dy=0 dh=10 dv=0
EndChar
StartChar: V
Encoding: 86 86 95
Width: 564
GlyphClass: 2
Flags: MW
HStem: -4 21G<246 275 246 246> 569 28<73 76.5 197 202 532 538.5 594.5 599>
VStem: 540.75 96.25
LayerCount: 2
Back
Fore
SplineSet
485 597 m 1
 639 597 l 1
 635 567 l 1
 599 569 l 2
 590 569 585 561 577 546 c 2
 275 -4 l 1
 246 -4 l 1
 91 546 l 2
 87 561 80 569 73 569 c 2
 45 567 l 1
 49 597 l 1
 259 597 l 1
 255 567 l 1
 202 569 l 2
 192 569 188 558 192 545 c 2
 311 134 l 1
 536 546 l 2
 541 555 545 569 532 569 c 2
 481 567 l 1
 485 597 l 1
EndSplineSet
Position2: "'cpsp' Capital Spacing lookup 0 per glyph data 2" dx=5 dy=0 dh=10 dv=0
EndChar
StartChar: W
Encoding: 87 87 96
Width: 854
GlyphClass: 2
Flags: MW
HStem: -10 21G<221 242 221 221 602 620 602 602> 569 28<75 79 194 200 443 448 557 561 826 832.5 888 894>
VStem: 835.37 91.63
LayerCount: 2
Back
Fore
SplineSet
778 597 m 1
 929 597 l 1
 925 567 l 1
 894 569 l 2
 882 569 874 558 869 548 c 2
 620 -10 l 1
 602 -10 l 1
 471 505 l 1
 242 -10 l 1
 221 -10 l 1
 91 547 l 2
 88 562 83 569 75 569 c 2
 45 567 l 1
 49 597 l 1
 260 597 l 1
 256 567 l 1
 200 569 l 2
 188 569 189 559 192 547 c 2
 284 160 l 1
 458 556 l 1
 458 557 l 1
 456 565 453 569 443 569 c 2
 402 567 l 1
 406 597 l 1
 609 597 l 1
 605 567 l 1
 561 569 l 2
 553 569 548 561 552 547 c 2
 657 145 l 1
 832 549 l 2
 836 558 839 569 826 569 c 2
 774 567 l 1
 778 597 l 1
EndSplineSet
Position2: "'cpsp' Capital Spacing lookup 0 per glyph data 2" dx=5 dy=0 dh=10 dv=0
EndChar
StartChar: X
Encoding: 88 88 101
Width: 549
GlyphClass: 2
Flags: MW
HStem: 0 27<109.5 114 109.5 156 354 360.5> 569 28<121 126 260.5 269 468 472.5 543 543>
VStem: 1 106.5 476.62 99.38
LayerCount: 2
Back
Fore
SplineSet
429 597 m 1
 578 597 l 1
 574 567 l 1
 543 569 l 2
 533 570 521 562 511 549 c 2
 347 329 l 1
 470 44 l 2
 474 36 483 26 496 27 c 2
 535 30 l 1
 531 0 l 1
 301 0 l 1
 305 30 l 1
 354 27 l 2
 367 27 367 39 362 51 c 2
 272 261 l 1
 113 47 l 2
 106 38 105 27 114 27 c 2
 160 30 l 1
 156 0 l 1
 -1 0 l 1
 3 30 l 1
 40 28 l 2
 52 28 63 35 74 50 c 2
 258 295 l 1
 147 550 l 2
 141 565 131 569 121 569 c 2
 88 567 l 1
 92 597 l 1
 315 597 l 1
 311 567 l 1
 269 569 l 2
 252 569 250 556 254 548 c 2
 332 363 l 1
 471 549 l 2
 481 561 477 569 468 569 c 2
 425 567 l 1
 429 597 l 1
EndSplineSet
Position2: "'cpsp' Capital Spacing lookup 0 per glyph data 2" dx=5 dy=0 dh=10 dv=0
EndChar
StartChar: Z
Encoding: 90 90 107
Width: 497
GlyphClass: 2
Flags: MW
HStem: 1 27<7 7 113 280 280 323.5 3 7> 570 28<202.5 248 248 391>
VStem: 3 502
LayerCount: 2
Back
Fore
SplineSet
505 598 m 1
 502 574 l 1
 113 28 l 1
 280 28 l 2
 367 28 430 80 442 168 c 1
 471 168 l 1
 439 -4 l 1
 430 0 394 1 330 1 c 2
 3 1 l 1
 7 28 l 1
 391 570 l 1
 248 570 l 2
 157 570 107 531 95 444 c 1
 66 444 l 1
 88 601 l 1
 107 601 172 598 195 598 c 2
 505 598 l 1
EndSplineSet
Position2: "'cpsp' Capital Spacing lookup 0 per glyph data 2" dx=5 dy=0 dh=10 dv=0
EndChar
StartChar: bracketleft
Encoding: 91 91 284
Width: 250
Flags: MW
HStem: -147 27<70 167> 648 27<178 279 178 178>
VStem: -7 290
LayerCount: 2
Back
Fore
SplineSet
283 675 m 1
 279 648 l 1
 178 648 l 1
 70 -120 l 1
 171 -120 l 1
 167 -147 l 1
 -7 -147 l 1
 109 675 l 1
 283 675 l 1
EndSplineSet
Position2: "'cpsp' Capital Spacing lookup 0 per glyph data 0" dx=0 dy=20 dh=0 dv=0
EndChar
StartChar: backslash
Encoding: 92 92 265
Width: 242
Flags: MW
HStem: -5 21G<171 171>
VStem: 50 165
LayerCount: 2
Back
Fore
SplineSet
91 636 m 1
 215 7 l 1
 171 -5 l 1
 50 627 l 1
 91 636 l 1
EndSplineSet
EndChar
StartChar: bracketright
Encoding: 93 93 285
Width: 250
Flags: MW
HStem: -147 27<-18 87 -14 87 -14 156> 648 27<98 195 94 272>
VStem: -18 290
LayerCount: 2
Back
Fore
SplineSet
-18 -147 m 1
 -14 -120 l 1
 87 -120 l 1
 195 648 l 1
 94 648 l 1
 98 675 l 1
 272 675 l 1
 156 -147 l 1
 -18 -147 l 1
EndSplineSet
Position2: "'cpsp' Capital Spacing lookup 0 per glyph data 0" dx=0 dy=20 dh=0 dv=0
EndChar
StartChar: asciicircum
Encoding: 94 94 350
Width: 443
Flags: MW
HStem: 321 336<32 297 32 297 271 441 271 393>
VStem: 32 409<321 321>
LayerCount: 2
Back
Fore
SplineSet
297 657 m 1
 441 321 l 1
 393 321 l 1
 289 567 l 1
 277 604 l 1
 255 567 l 1
 79 321 l 1
 32 321 l 1
 271 657 l 1
 297 657 l 1
EndSplineSet
EndChar
StartChar: underscore
Encoding: 95 95 281
Width: 503
Flags: MW
HStem: -183 40<-50 447 -56 453>
VStem: -56 509<-183 -143>
LayerCount: 2
Back
Fore
SplineSet
453 -143 m 1
 447 -183 l 1
 -56 -183 l 1
 -50 -143 l 1
 453 -143 l 1
EndSplineSet
EndChar
StartChar: grave
Encoding: 96 96 360
Width: 266
Flags: MW
HStem: 493 160<139.5 261>
VStem: 92 180<498.5 630.5>
LayerCount: 2
Back
Fore
SplineSet
152 653 m 0
 167 653 169 648 181 632 c 2
 263 518 l 2
 268 510 272 504 272 501 c 0
 272 496 267 493 255 493 c 0
 247 493 240 499 237 502 c 2
 98 615 l 2
 95 618 92 621 92 626 c 0
 92 635 127 653 152 653 c 0
EndSplineSet
Substitution2: "'case' Case-Sensitive Forms lookup 11 subtable" grave.case
Substitution2: "'aalt' Access All Alternates lookup 0 subtable" grave.case
EndChar
StartChar: b
Encoding: 98 98 122
Width: 457
GlyphClass: 2
Flags: MW
HStem: -7 30<180.5 231 180.5 248> 375 55<305.5 311.5>
VStem: 53 70<64 134> 120 93<607.5 716.5> 346 89<265 309>
LayerCount: 2
Back
Fore
SplineSet
175 730 m 0xd8
 202 730 213 725 213 708 c 0
 213 687 168 441 142 240 c 1xd8
 204 377 276 430 335 430 c 0
 396 430 435 378 435 301 c 0
 435 163 328 -7 168 -7 c 0
 93 -7 53 26 53 84 c 0xe8
 53 184 120 564 120 651 c 0
 120 667 108 676 89 676 c 0
 81 676 68 674 63 673 c 1
 57 698 l 1
 101 721 150 730 175 730 c 0xd8
299 375 m 0xe8
 242 375 123 196 123 95 c 0
 123 33 167 23 194 23 c 0
 268 23 311 99 331 174 c 0
 341 213 346 251 346 279 c 0
 346 339 324 375 299 375 c 0xe8
EndSplineSet
EndChar
StartChar: c
Encoding: 99 99 123
Width: 406
GlyphClass: 2
Flags: MW
HStem: -9 54<167.5 201> 400 30<236.5 278>
VStem: 26 89<124 184.5 124 218> 316 71<346 363 323.5 372>
AnchorPoint: "Anchor-0" 172 0 basechar 0
LayerCount: 2
Back
Fore
SplineSet
265 430 m 0
 334 430 387 389 387 337 c 0
 387 310 372 278 332 278 c 0
 313 278 300 285 300 304 c 0
 300 325 316 334 316 358 c 0
 316 386 293 400 263 400 c 0
 210 400 174 358 149 307 c 0
 128 264 115 211 115 158 c 0
 115 90 143 45 192 45 c 0
 232 45 282 74 324 100 c 1
 346 84 l 1
 297 33 231 -9 171 -9 c 0
 80 -9 26 54 26 145 c 0
 26 291 141 430 265 430 c 0
EndSplineSet
EndChar
StartChar: d
Encoding: 100 100 127
Width: 476
GlyphClass: 2
Flags: MW
HStem: -10 55<146 153> 400 30<221.5 270> 675 55
VStem: 23 88<112 158.5 112 190> 301 86<25 151>
LayerCount: 2
Back
Fore
SplineSet
470 708 m 0
 470 699 467 675 463 651 c 0
 443 531 387 208 387 94 c 0
 387 83 388 67 404 67 c 0
 409 67 424 69 441 80 c 1
 453 60 l 1
 404 7 357 -10 331 -10 c 0
 307 -10 301 11 301 39 c 0
 301 68 305 123 316 186 c 1
 254 43 183 -10 123 -10 c 0
 62 -10 23 42 23 120 c 0
 23 260 123 430 253 430 c 0
 296 430 329 412 346 391 c 1
 360 467 378 643 378 651 c 0
 378 667 365 675 343 675 c 0
 336 675 328 675 319 673 c 1
 313 698 l 1
 359 724 398 730 432 730 c 0
 456 730 470 727 470 708 c 0
159 45 m 0
 216 45 334 228 334 326 c 0
 334 390 283 400 257 400 c 0
 186 400 143 323 124 245 c 0
 115 209 111 173 111 144 c 0
 111 80 133 45 159 45 c 0
EndSplineSet
EndChar
StartChar: f
Encoding: 102 102 140
Width: 284
GlyphClass: 2
Flags: MW
HStem: -245 27<-38.5 2.5 -38.5 26.5> 389 31<56 115 29 119 205 281> 405 15<310 310> 703 27<294.5 335>
VStem: -136 82<-168 -167.5> 120 87 359 74<653 664.5 626 672.5>
LayerCount: 2
Back
Fore
SplineSet
324 730 m 0xde
 389 730 433 690 433 639 c 0
 433 613 421 588 386 588 c 0
 368 588 350 594 350 617 c 0
 350 634 359 643 359 663 c 0
 359 682 351 703 319 703 c 0
 270 703 231 652 209 454 c 1
 205 420 l 1
 310 420 l 1xde
 310 405 l 1xbe
 281 389 l 1
 202 389 l 1
 170 102 l 2
 148 -94 90 -245 -37 -245 c 0
 -89 -245 -136 -219 -136 -178 c 0
 -136 -157 -123 -134 -91 -134 c 0
 -73 -134 -54 -141 -54 -162 c 0
 -54 -174 -60 -182 -60 -193 c 0
 -60 -209 -48 -218 -29 -218 c 0
 34 -218 58 -123 80 72 c 2
 115 389 l 1
 29 389 l 1
 56 420 l 1
 119 420 l 1
 121 440 l 1
 139 600 206 730 324 730 c 0xde
EndSplineSet
Substitution2: "Single Substitution lookup 27 subtable" f.ss04
Substitution2: "Single Substitution lookup 26 subtable" f.ss06
Substitution2: "Single Substitution lookup 25 subtable" f.ss02
Substitution2: "Single Substitution lookup 24 subtable" f.ss01
Substitution2: "Single Substitution lookup 23 subtable" f.ss07
Substitution2: "Single Substitution lookup 22 subtable" f.ss03
Substitution2: "Single Substitution lookup 21 subtable" f.ss05
Substitution2: "'ss04' Style Set 4 lookup 19 subtable" f.ss04
Substitution2: "'ss03' Style Set 3 lookup 18 subtable" f.ss03
Substitution2: "'ss02' Style Set 2 lookup 17 subtable" f.ss02
Substitution2: "'ss01' Style Set 1 lookup 16 subtable" f.ss01
Substitution2: "'salt' Stylistic Alternatives lookup 15 subtable" f.ss01
AlternateSubs2: "'aalt' Access All Alternates lookup 1 subtable" f.ss01 f.ss02 f.ss03 f.ss04
Position2: "Single Positioning lookup 4 subtable" dx=0 dy=0 dh=50 dv=0
EndChar
StartChar: g
Encoding: 103 103 141
Width: 428
GlyphClass: 2
Flags: MW
HStem: -245 26<86.5 177.5 86.5 193> -9 21G<120 120> 130 27<166 208.5 166 224.5> 403 20 403 27<211.5 254> 424 81<417 443>
VStem: -36 52<-161 -109> 25 66<84.5 86.5> 41 86<221.5 241.5 205 292> 293 86<318.5 338 268.5 355> 308 69<-150.5 -97.5>
LayerCount: 2
Back
Fore
SplineSet
430 505 m 0xe620
 462 505 471 484 471 467 c 0
 471 448 454 424 432 424 c 0
 401 424 408 447 392 447 c 0
 382 447 350 435 328 414 c 1
 365 393 379 357 379 319 c 0
 379 218 284 130 165 130 c 0
 144 130 126 133 111 138 c 1
 101 126 91 113 91 101 c 0xe740
 91 68 154 60 221 37 c 0
 296 11 377 -13 377 -102 c 0
 377 -199 260 -245 126 -245 c 0
 14 -245 -36 -207 -36 -140 c 0xea20
 -36 -78 21 -30 87 3 c 1
 51 19 25 39 25 71 c 0xeb20
 25 102 51 123 81 143 c 1
 88 148 l 1
 55 168 41 202 41 241 c 0
 41 343 134 430 253 430 c 0xeaa0
 274 430 292 427 307 423 c 1xf220
 347 466 404 505 430 505 c 0xe620
277 230 m 0xeac0
 288 259 293 303 293 334 c 0
 293 376 275 403 233 403 c 0
 190 403 162 380 143 330 c 0
 132 301 127 257 127 226 c 0
 127 184 145 157 187 157 c 0
 230 157 258 180 277 230 c 0xeac0
308 -125 m 0xea20
 308 -70 247 -47 181 -27 c 2
 120 -9 l 1
 73 -27 16 -74 16 -138 c 0
 16 -184 44 -219 129 -219 c 0
 226 -219 308 -183 308 -125 c 0xea20
EndSplineSet
EndChar
StartChar: h
Encoding: 104 104 144
Width: 499
GlyphClass: 2
Flags: MW
HStem: -10 21G<339 362.5> 0 21G<45 124 45 45> 375 55<310 334.5> 675 55
VStem: 133 93<615.5 717.5> 316 82<21 108> 364 82<308 339.5>
LayerCount: 2
Back
Fore
SplineSet
454 80 m 1x74
 466 60 l 1
 424 16 377 -10 348 -10 c 0
 330 -10 316 7 316 35 c 0xb4
 316 90 364 256 364 324 c 0
 364 355 348 375 321 375 c 0
 258 375 167 229 138 112 c 1
 124 0 l 1
 45 0 l 1
 59 87 133 580 133 651 c 0
 133 667 120 675 100 675 c 0
 93 675 85 675 76 673 c 1
 70 698 l 1
 118 722 164 730 188 730 c 0
 212 730 226 727 226 708 c 0
 226 700 222 674 216 640 c 0
 208 589 195 518 187 464 c 2
 152 222 l 1
 193 317 263 430 357 430 c 0
 412 430 446 393 446 340 c 0x7a
 446 276 398 126 398 90 c 0
 398 83 400 67 417 67 c 0
 423 67 437 69 454 80 c 1x74
EndSplineSet
EndChar
StartChar: i
Encoding: 105 105 145
Width: 260
GlyphClass: 2
Flags: MW
HStem: -10 21G<90.5 116.5> 406 20G<148 173.5> 548 95<161 182>
VStem: 64 84<20.5 106> 103 93<336 413.5> 116 109<585 605.5>
LayerCount: 2
Back
Fore
SplineSet
178 643 m 0xe4
 207 643 225 627 225 602 c 0
 225 568 200 548 164 548 c 0
 136 548 116 563 116 589 c 0
 116 622 144 643 178 643 c 0xe4
213 60 m 1xf0
 171 16 131 -10 102 -10 c 0
 79 -10 64 5 64 36 c 0xf0
 64 68 79 146 90 223 c 0
 99 283 103 325 103 347 c 0
 103 367 86 373 72 373 c 0
 67 373 60 372 56 371 c 1
 51 400 l 1
 90 416 131 426 165 426 c 0
 182 426 196 423 196 404 c 0xe8
 196 392 178 310 164 230 c 0
 154 173 148 118 148 94 c 0
 148 83 149 67 165 67 c 0
 170 67 184 69 201 80 c 1
 213 60 l 1xf0
EndSplineSet
Substitution2: "'locl' Localized Forms in Latin lookup 7 subtable" i.loclTRK
Substitution2: "'locl' Localized Forms in Latin lookup 6 subtable" i.loclTRK
Substitution2: "'locl' Localized Forms in Latin lookup 4 subtable" i.loclTRK
Substitution2: "'locl' Localized Forms in Latin lookup 3 subtable" i.loclTRK
Substitution2: "'locl' Localized Forms in Latin lookup 2 subtable" i.loclTRK
Substitution2: "'aalt' Access All Alternates lookup 0 subtable" i.loclTRK
EndChar
StartChar: j
Encoding: 106 106 155
Width: 242
GlyphClass: 2
Flags: MW
HStem: -245 27<-38.5 -2.5 -38.5 14.5> 403 23 406 20G<145 171> 548 95<162 183>
VStem: -136 82<-168 -167.5> 117 109<585 605.5>
LayerCount: 2
Back
Fore
SplineSet
179 643 m 0xbc
 208 643 226 627 226 602 c 0
 226 568 201 548 165 548 c 0
 137 548 117 563 117 589 c 0
 117 622 145 643 179 643 c 0xbc
162 426 m 0
 180 426 193 423 193 403 c 1xdc
 193 406 145 95 134 11 c 0
 113 -148 66 -245 -37 -245 c 0
 -89 -245 -136 -219 -136 -178 c 0
 -136 -157 -123 -134 -91 -134 c 0
 -73 -134 -54 -141 -54 -162 c 0
 -54 -174 -60 -182 -60 -193 c 0
 -60 -209 -47 -218 -30 -218 c 0
 25 -218 39 -123 66 72 c 2
 87 225 l 2
 95 284 100 327 100 342 c 0
 100 369 83 373 70 373 c 0
 63 373 57 372 53 371 c 1
 48 400 l 1
 87 416 128 426 162 426 c 0
EndSplineSet
Substitution2: "Single Substitution lookup 23 subtable" j.ss01
EndChar
StartChar: k
Encoding: 107 107 157
Width: 481
GlyphClass: 2
Flags: MW
HStem: -10 21G<325.5 356.5> -10 70<325.5 385.5> 0 21G<45 124 45 45> 375 55<310 329> 675 55
VStem: 133 93<615.5 717.5> 353 84<332 347.5>
AnchorPoint: "Anchor-0" 225 0 basechar 0
LayerCount: 2
Back
Fore
SplineSet
436 80 m 1x5e
 448 60 l 1x5e
 410 18 371 -10 342 -10 c 0
 309 -10 296 10 286 40 c 2x9e
 229 206 l 1
 317 236 353 290 353 333 c 0
 353 362 337 375 321 375 c 0
 258 375 167 229 138 112 c 1
 124 0 l 1
 45 0 l 1x3e
 59 87 133 580 133 651 c 0
 133 667 120 675 100 675 c 0
 93 675 85 675 76 673 c 1
 70 698 l 1
 118 722 164 730 188 730 c 0
 212 730 226 727 226 708 c 0
 226 700 222 674 216 640 c 0
 208 589 195 518 187 464 c 2
 152 222 l 1
 193 317 263 430 357 430 c 0
 406 430 437 397 437 357 c 0
 437 307 388 255 307 219 c 1
 357 85 l 2
 361 73 367 60 382 60 c 0
 389 60 410 63 436 80 c 1x5e
EndSplineSet
EndChar
StartChar: l
Encoding: 108 108 159
Width: 236
GlyphClass: 2
Flags: MW
HStem: -10 21G<70.5 98> 675 55
VStem: 43 87<20.5 94> 123 93<630 717.5>
AnchorPoint: "Anchor-0" 90 0 basechar 0
LayerCount: 2
Back
Fore
SplineSet
123 651 m 0xd0
 123 667 110 675 90 675 c 0
 83 675 75 675 66 673 c 1
 60 698 l 1
 106 720 149 730 183 730 c 0
 202 730 216 727 216 708 c 0xd0
 216 691 203 625 189 539 c 0
 164 385 133 174 130 94 c 0
 130 83 131 67 149 67 c 0
 154 67 173 69 190 80 c 1
 202 60 l 1
 160 16 114 -10 82 -10 c 0
 59 -10 43 5 43 36 c 0xe0
 43 63 67 219 89 370 c 0
 107 491 123 609 123 651 c 0xd0
EndSplineSet
EndChar
StartChar: m
Encoding: 109 109 165
Width: 761
GlyphClass: 2
Flags: MW
HStem: -10 21G<599.5 624.5> 0 21G<51 129 51 51 314 392 314 314> 373 53 375 55<314 335 576.5 596.5> 406 20G<132.5 160>
VStem: 98 90<309.5 415> 360 81<329 342.5> 578 82<21 108> 626 82<308 339.5>
LayerCount: 2
Back
Fore
SplineSet
716 80 m 1x53
 728 60 l 1
 686 16 639 -10 610 -10 c 0
 589 -10 578 7 578 35 c 0x93
 578 90 626 256 626 324 c 0
 626 355 610 375 583 375 c 0
 521 375 434 229 406 113 c 1
 392 0 l 1
 314 0 l 1
 331 100 360 267 360 328 c 0
 360 357 346 375 324 375 c 0x5680
 264 375 177 240 144 127 c 1
 144 125 l 1
 129 0 l 1
 51 0 l 1
 68 103 98 278 98 341 c 0
 98 361 89 373 69 373 c 0
 64 373 57 372 53 371 c 1x6680
 48 400 l 1
 79 413 114 426 151 426 c 0
 169 426 188 423 188 407 c 0x4e80
 188 390 170 299 159 230 c 1
 200 324 268 430 360 430 c 0
 407 430 441 393 441 340 c 0
 441 318 436 285 429 250 c 1
 471 339 534 430 619 430 c 0
 674 430 708 393 708 340 c 0x5680
 708 276 660 126 660 90 c 0
 660 83 662 67 679 67 c 0
 685 67 699 69 716 80 c 1x53
EndSplineSet
EndChar
StartChar: p
Encoding: 112 112 181
Width: 472
GlyphClass: 2
Flags: MW
HStem: -239 24<7 7 104 107> -10 30<201 252.5 201 284> 373 53 375 55<318.5 325.5> 406 20G<128.5 156>
VStem: 94 90<314.5 415> 361 89<263.5 308>
LayerCount: 2
Back
Fore
SplineSet
348 430 m 0xd6
 411 430 450 378 450 300 c 0
 450 161 350 -10 218 -10 c 0
 177 -10 144 7 126 30 c 1
 112 -68 99 -168 98 -203 c 0
 98 -211 101 -215 107 -215 c 2
 170 -213 l 1
 166 -239 l 1
 -28 -239 l 1
 -24 -213 l 1
 7 -215 l 1
 15 -214 19 -208 21 -195 c 0
 38 -92 94 288 94 341 c 0
 94 361 85 373 65 373 c 0
 60 373 53 372 49 371 c 1xe6
 44 400 l 1
 75 413 110 426 147 426 c 0
 165 426 184 423 184 407 c 0xce
 184 390 168 306 156 238 c 1
 218 378 289 430 348 430 c 0xd6
349 182 m 0
 358 217 361 251 361 276 c 0
 361 340 339 375 312 375 c 0
 255 375 137 192 137 94 c 0
 137 30 188 20 214 20 c 0
 291 20 331 103 349 182 c 0
EndSplineSet
EndChar
StartChar: q
Encoding: 113 113 183
Width: 452
GlyphClass: 2
Flags: MW
HStem: -239 24<248 248 349 352> -10 55<146.5 153> 400 30<220 270>
VStem: 23 89<112 157 112 190>
LayerCount: 2
Back
Fore
SplineSet
439 428 m 1
 386 222 343 -167 343 -202 c 0
 343 -211 346 -215 352 -215 c 2
 415 -213 l 1
 411 -239 l 1
 213 -239 l 1
 217 -213 l 1
 248 -215 l 1
 256 -214 260 -208 262 -195 c 0
 279 -69 293 57 315 183 c 1
 253 43 183 -10 123 -10 c 0
 62 -10 23 42 23 120 c 0
 23 260 123 430 253 430 c 0
 295 430 324 414 341 390 c 1
 347 411 l 1
 439 428 l 1
159 45 m 0
 216 45 334 228 334 326 c 0
 334 390 283 400 257 400 c 0
 183 400 142 319 124 242 c 0
 116 205 112 170 112 144 c 0
 112 80 134 45 159 45 c 0
EndSplineSet
EndChar
StartChar: r
Encoding: 114 114 184
Width: 368
GlyphClass: 2
Flags: MW
HStem: 0 21G<51 129 51 51> 373 53 380 50<275 288.5> 406 20G<132.5 160>
VStem: 98 90<309.5 415> 301 74<357.5 367.5>
AnchorPoint: "Anchor-0" 98 0 basechar 0
LayerCount: 2
Back
Fore
SplineSet
307 430 m 0xac
 349 430 375 394 375 358 c 0
 375 331 360 298 323 298 c 0
 302 298 289 308 289 326 c 0
 289 343 301 352 301 363 c 0
 301 372 294 380 283 380 c 0xac
 234 380 164 219 141 96 c 1
 129 0 l 1
 51 0 l 1
 68 103 98 278 98 341 c 0
 98 361 89 373 69 373 c 0
 64 373 57 372 53 371 c 1xcc
 48 400 l 1
 79 413 114 426 151 426 c 0
 169 426 188 423 188 407 c 0x9c
 188 392 174 319 163 255 c 1
 196 340 243 430 307 430 c 0xac
EndSplineSet
EndChar
StartChar: t
Encoding: 116 116 194
Width: 322
GlyphClass: 2
Flags: MW
HStem: -9 60<113.5 196.5> 389 31<70 118 43 123 207 285> 405 15<314 314>
VStem: 69 87<39 105>
AnchorPoint: "Anchor-0" 141 0 basechar 0
LayerCount: 2
Back
Fore
SplineSet
201 389 m 1xd0
 177 254 l 2
 168 201 156 119 156 91 c 0
 156 68 164 51 184 51 c 0
 209 51 240 76 264 100 c 1
 286 84 l 1
 246 31 201 -9 140 -9 c 0
 87 -9 69 21 69 57 c 0
 69 86 79 143 92 226 c 2
 118 389 l 1
 43 389 l 1
 70 420 l 1
 123 420 l 1
 140 524 l 1
 230 540 l 1
 228 531 219 480 207 420 c 1
 314 420 l 1xd0
 314 405 l 1xb0
 285 389 l 1
 201 389 l 1xd0
EndSplineSet
EndChar
StartChar: v
Encoding: 118 118 207
Width: 411
GlyphClass: 2
Flags: MW
HStem: -5 21G<158 185 158 158> 374 52<37.5 115.5> 406 20G<92 115.5> 409 20G<322 360.5>
VStem: 348 56<320.5 325>
LayerCount: 2
Back
Fore
SplineSet
340 429 m 0x98
 381 429 404 407 404 368 c 0x98
 404 273 264 66 185 -5 c 1
 158 -5 l 1
 74 341 l 2
 68 366 59 374 41 374 c 0
 34 374 26 373 16 371 c 1xc8
 11 400 l 1
 39 413 80 426 104 426 c 0
 127 426 144 415 153 368 c 1xa8
 217 78 l 1
 282 152 348 258 348 315 c 0
 348 335 339 338 315 339 c 0
 298 340 287 357 287 381 c 0
 287 412 304 429 340 429 c 0x98
EndSplineSet
EndChar
StartChar: x
Encoding: 120 120 213
Width: 471
GlyphClass: 2
Flags: MW
HStem: -10 94 328 94 374 52<94.5 175.5> 406 20G<149 175.5>
VStem: 9 455
LayerCount: 2
Back
Fore
SplineSet
367 347 m 0xc8
 357 346 349 343 339 329 c 2
 272 229 l 1xc8
 335 81 l 2
 341 69 346 66 355 66 c 0
 366 66 386 72 415 85 c 1
 427 65 l 1
 381 19 335 -10 309 -10 c 0
 293 -10 283 -3 273 17 c 1
 214 154 l 1
 145 49 l 2
 122 14 94 -8 54 -10 c 0
 32 -11 10 -2 9 28 c 0
 7 59 25 83 51 84 c 0
 71 85 89 64 106 65 c 0
 116 66 124 69 134 84 c 2
 201 184 l 1
 134 341 l 2
 123 366 119 374 101 374 c 0
 88 374 74 373 56 371 c 1xa8
 51 400 l 1
 85 413 134 426 164 426 c 0
 187 426 195 411 213 368 c 2x98
 259 259 l 1
 328 363 l 2
 349 395 379 420 419 422 c 0
 441 423 463 414 464 384 c 0
 466 353 448 330 422 328 c 0
 402 327 384 348 367 347 c 0xc8
EndSplineSet
EndChar
StartChar: y
Encoding: 121 121 214
Width: 411
GlyphClass: 2
Flags: MW
HStem: -239 94<-69 -50.5 -76.5 -41.5> 374 52<37.5 115.5> 406 20G<92 115.5> 409 20G<322 360.5>
VStem: 351 53<287 387.5>
LayerCount: 2
Back
Fore
SplineSet
340 429 m 0x98
 381 429 404 407 404 368 c 0x98
 404 303 339 157 263 39 c 0
 113 -195 -25 -239 -58 -239 c 0
 -80 -239 -108 -236 -108 -195 c 0
 -108 -171 -90 -145 -63 -145 c 0
 -38 -145 -19 -169 8 -169 c 0
 26 -169 95 -123 181 -15 c 1
 74 341 l 1
 68 366 59 374 41 374 c 0
 34 374 26 373 16 371 c 1xc8
 11 400 l 1
 39 413 80 426 104 426 c 0
 127 426 140 414 153 368 c 2xa8
 239 66 l 1
 299 156 351 259 351 315 c 0
 351 336 344 337 315 339 c 0
 298 340 287 357 287 381 c 0
 287 412 304 429 340 429 c 0x98
EndSplineSet
Substitution2: "Single Substitution lookup 23 subtable" y.ss01
Substitution2: "'ss01' Style Set 1 lookup 16 subtable" y.ss01
Substitution2: "'salt' Stylistic Alternatives lookup 15 subtable" y.ss01
Substitution2: "'aalt' Access All Alternates lookup 0 subtable" y.ss01
EndChar
StartChar: z
Encoding: 122 122 219
Width: 376
GlyphClass: 2
Flags: MW
HStem: -10 60<245.5 254> 23 80<88 177.5> 335 70<222 294.5> 371 60<136.5 150> 411 20
VStem: -1 377
LayerCount: 2
Back
Fore
SplineSet
266 50 m 0x94
 284 50 303 59 325 84 c 1
 341 70 l 1
 319 30 286 -10 222 -10 c 0
 167 -10 140 23 97 23 c 0
 79 23 58 18 31 2 c 1
 21 -10 l 1
 17 -7 l 1
 -1 7 l 1
 277 337 l 1xa4
 268 336 260 335 252 335 c 0
 192 335 172 371 128 371 c 0
 107 371 84 362 58 337 c 1
 42 351 l 1
 66 391 103 431 170 431 c 0x94
 224 431 245 405 284 405 c 0xa4
 305 405 328 413 352 427 c 1
 354 429 l 1x94
 376 411 l 1
 108 93 l 1
 123 100 136 103 150 103 c 0x4c
 205 103 225 50 266 50 c 0x94
EndSplineSet
EndChar
StartChar: braceleft
Encoding: 123 123 282
Width: 273
Flags: MW
HStem: -146 30<111.5 184 156 179> 645 30<260 263 263 291>
VStem: 57 69<-90 -65.5> 95 68<183 220 183 222.5>
LayerCount: 2
Back
Fore
SplineSet
295 675 m 1xd0
 291 645 l 1
 263 645 l 2
 239 645 224 626 219 589 c 2
 186 358 l 2
 177 297 152 280 79 267 c 1
 138 253 163 241 163 199 c 0xd0
 163 167 126 -47 126 -78 c 0
 126 -102 135 -116 156 -116 c 2
 184 -116 l 1
 179 -146 l 1
 144 -146 l 2
 79 -146 57 -132 57 -86 c 0xe0
 57 -45 95 157 95 205 c 0
 95 240 80 246 35 257 c 1
 38 277 l 1
 90 285 111 305 118 358 c 2
 150 582 l 2
 160 654 185 675 260 675 c 2
 295 675 l 1xd0
EndSplineSet
Position2: "'cpsp' Capital Spacing lookup 0 per glyph data 0" dx=0 dy=20 dh=0 dv=0
EndChar
StartChar: bar
Encoding: 124 124 338
Width: 226
Flags: MW
HStem: -239 969<30 204 30 204>
VStem: 30 174
LayerCount: 2
Back
Fore
SplineSet
166 730 m 1
 204 730 l 1
 68 -239 l 1
 30 -239 l 1
 166 730 l 1
EndSplineSet
EndChar
StartChar: braceright
Encoding: 125 125 283
Width: 283
Flags: MW
HStem: -146 30<3 35 7 35 35 38> 645 30<119 142 114 154>
VStem: 135 68<309 346> 172 69<594.5 619>
LayerCount: 2
Back
Fore
SplineSet
3 -146 m 1xe0
 7 -116 l 1
 35 -116 l 2
 59 -116 74 -97 79 -60 c 2
 112 171 l 2
 121 232 146 249 219 262 c 1
 160 276 135 288 135 330 c 0xe0
 135 362 172 576 172 607 c 0
 172 631 163 645 142 645 c 2
 114 645 l 1
 119 675 l 1
 154 675 l 2
 219 675 241 661 241 615 c 0xd0
 241 574 203 372 203 324 c 0
 203 289 218 283 263 272 c 1
 260 252 l 1
 208 244 187 224 180 171 c 2
 148 -53 l 2
 138 -125 113 -146 38 -146 c 2
 3 -146 l 1xe0
EndSplineSet
Position2: "'cpsp' Capital Spacing lookup 0 per glyph data 0" dx=0 dy=20 dh=0 dv=0
EndChar
StartChar: asciitilde
Encoding: 126 126 312
Width: 409
Flags: MW
HStem: 215 48<269 305 269 306.5> 280 48<118.5 154.5>
VStem: 28 372<255 292>
LayerCount: 2
Back
Fore
SplineSet
374 329 m 1
 400 292 l 1
 369 245 327 215 286 215 c 0xe0
 228 215 178 280 131 280 c 0
 106 280 90 270 53 219 c 1
 28 255 l 1
 60 304 95 328 137 328 c 0x60
 197 328 245 263 293 263 c 0
 317 263 338 279 374 329 c 1
EndSplineSet
EndChar
StartChar: exclamdown
Encoding: 161 161 272
Width: 262
Flags: MW
HStem: 330 115<124.5 148>
VStem: 14 103<-203 -116> 71 129<376.5 398>
LayerCount: 2
Back
Fore
SplineSet
142 445 m 0xa0
 175 445 200 422 200 394 c 0
 200 359 167 330 129 330 c 0
 95 330 71 352 71 381 c 0
 71 415 107 445 142 445 c 0xa0
117 234 m 0
 125 234 126 230 126 218 c 0
 126 198 113 80 114 -34 c 1
 116 -70 117 -104 117 -128 c 0
 117 -187 119 -242 58 -242 c 0
 30 -242 15 -228 14 -203 c 0
 14 -184 27 -118 53 -34 c 1
 78 61 97 172 103 218 c 0xc0
 104 229 109 234 117 234 c 0
EndSplineSet
Position2: "'cpsp' Capital Spacing lookup 0 per glyph data 1" dx=0 dy=35 dh=0 dv=0
EndChar
StartChar: cent
Encoding: 162 162 303
Width: 382
Flags: MW
HStem: 116 21<185 185>
VStem: 57 74<215.5 320> 290 58<396.5 408 378 421>
LayerCount: 2
Back
Fore
SplineSet
201 137 m 0
 247 137 295 174 317 223 c 1
 336 209 l 1
 316 160 270 124 223 117 c 1
 194 -95 l 1
 156 -95 l 1
 185 116 l 1
 95 121 57 173 57 258 c 0
 57 382 131 463 235 467 c 1
 260 647 l 1
 297 647 l 1
 271 464 l 1
 318 455 348 424 348 392 c 0
 348 364 327 345 306 345 c 0
 285 345 275 352 275 365 c 0
 275 386 290 384 290 409 c 0
 290 433 264 445 235 445 c 0
 179 445 131 400 131 244 c 0
 131 174 155 137 201 137 c 0
EndSplineSet
EndChar
StartChar: sterling
Encoding: 163 163 308
Width: 491
Flags: MW
HStem: 0 73<74 278 108 278 278 328 108 334> 306 23<50 124 47 128 222 335> 584 23<308.5 345>
VStem: 133.5 90 377 72<543.5 550.5 514.5 562.5>
LayerCount: 2
Back
Fore
SplineSet
278 73 m 2
 378 73 406 94 417 168 c 1
 444 168 l 1
 411 -3 l 1
 402 -3 354 0 334 0 c 2
 87 0 l 2
 61 0 18 -2 -2 -3 c 1
 -3 1 l 1
 53 34 94 94 103 156 c 2
 124 306 l 1
 47 306 l 1
 50 329 l 1
 128 329 l 1
 139 410 l 2
 158 547 216 607 338 607 c 0
 403 607 449 573 449 528 c 0
 449 501 424 480 401 480 c 0
 383 480 365 494 365 511 c 0
 365 528 377 535 377 552 c 0
 377 573 361 584 329 584 c 0
 288 584 265 567 250 539 c 0
 227 494 233 422 225 356 c 2
 222 329 l 1
 338 329 l 1
 335 306 l 1
 219 306 l 1
 209 226 l 2
 202 173 147 96 108 73 c 1
 278 73 l 2
EndSplineSet
EndChar
StartChar: currency
Encoding: 164 164 304
Width: 427
Flags: MW
HStem: 95 32<177.5 216.5> 400 20G<417 417> 401 20G<70 70> 404 32<225.5 265.5 225.5 274>
VStem: 54 34<228.5 269.5> 355 34<259 300 259 316.5>
LayerCount: 2
Back
Fore
SplineSet
364 373 m 1xcc
 380 347 389 316 389 284 c 0
 389 234 367 189 334 155 c 1
 372 107 l 1
 345 83 l 1
 306 131 l 1
 274 109 236 95 197 95 c 0
 158 95 125 109 100 133 c 1
 45 84 l 1
 25 108 l 1
 80 157 l 1
 63 182 54 212 54 245 c 0
 54 294 75 340 108 374 c 1
 70 421 l 1
 96 445 l 1xac
 136 398 l 1
 168 422 206 436 245 436 c 0
 286 436 320 421 345 396 c 1
 397 444 l 1x9c
 417 420 l 1
 364 373 l 1xcc
202 127 m 0x9c
 281 127 355 198 355 283 c 0
 355 350 307 404 241 404 c 0
 162 404 88 333 88 249 c 0
 88 181 136 127 202 127 c 0x9c
EndSplineSet
EndChar
StartChar: yen
Encoding: 165 165 309
Width: 491
Flags: MW
HStem: 0 27<169 174.5 289.5 296> 202 29<87 210 83 215 307 431> 312 29<102 184 102 197 98 184 351 446> 569 28<73 77.5 201 208 453 458 516.5 521>
VStem: 217 94 460.12 92.88
LayerCount: 2
Back
Fore
SplineSet
406 597 m 1
 555 597 l 1
 551 567 l 1
 521 569 l 2
 512 569 501 561 492 548 c 2
 351 341 l 1
 450 341 l 1
 446 312 l 1
 331 312 l 1
 315 288 l 1
 307 231 l 1
 435 231 l 1
 431 202 l 1
 303 202 l 1
 281 48 l 2
 279 36 283 27 296 27 c 2
 344 29 l 1
 340 0 l 1
 116 0 l 1
 120 29 l 1
 169 27 l 2
 180 27 187 34 189 49 c 2
 210 202 l 1
 83 202 l 1
 87 231 l 1
 215 231 l 1
 219 263 l 1
 197 312 l 1
 98 312 l 1
 102 341 l 1
 184 341 l 1
 92 550 l 2
 86 563 82 569 73 569 c 2
 45 567 l 1
 49 597 l 1
 265 597 l 1
 261 567 l 1
 208 569 l 2
 194 569 197 553 200 545 c 2
 299 319 l 1
 456 549 l 2
 461 556 463 569 453 569 c 2
 402 567 l 1
 406 597 l 1
EndSplineSet
EndChar
StartChar: brokenbar
Encoding: 166 166 339
Width: 226
Flags: MW
HStem: 587 20G<149 189 189 189>
VStem: 31 158
LayerCount: 2
Back
Fore
SplineSet
149 607 m 1
 189 607 l 1
 141 265 l 1
 101 265 l 1
 149 607 l 1
119 113 m 1
 71 -231 l 1
 31 -231 l 1
 79 113 l 1
 119 113 l 1
EndSplineSet
EndChar
StartChar: section
Encoding: 167 167 345
Width: 436
Flags: MW
HStem: -135 23<150 194 150 213> 584 23<254 298>
VStem: 19 71<-78.5 -60.5 -83 -32.5> 40 70<213 296> 98 79<483 502.5> 271 79<-30.5 -11> 338 70<176 259> 358 71<532.5 550.5 504.5 555>
LayerCount: 2
Back
Fore
SplineSet
368 458 m 0xcd
 348 458 331 469 331 490 c 0
 331 518 358 522 358 543 c 0xcd
 358 567 317 584 279 584 c 0
 229 584 177 554 177 498 c 0
 177 468 197 449 225 428 c 2
 337 343 l 2
 383 309 408 281 408 237 c 0xca
 408 171 371 128 301 105 c 1
 335 73 350 46 350 13 c 0
 350 -74 270 -135 156 -135 c 0
 75 -135 19 -104 19 -53 c 0
 19 -12 48 14 80 14 c 0
 100 14 117 3 117 -18 c 0
 117 -46 90 -50 90 -71 c 0xec
 90 -95 131 -112 169 -112 c 0
 219 -112 271 -82 271 -26 c 0
 271 4 251 23 223 44 c 2
 111 129 l 2
 65 163 40 191 40 235 c 0xd4
 40 301 77 344 147 367 c 1
 113 399 98 426 98 459 c 0
 98 546 178 607 292 607 c 0
 373 607 429 576 429 525 c 0
 429 484 400 458 368 458 c 0xcd
188 333 m 2
 180 339 173 345 166 350 c 1
 124 333 110 313 110 279 c 0
 110 262 119 247 145 227 c 2
 260 139 l 2
 268 133 275 127 282 122 c 1
 324 139 338 159 338 193 c 0
 338 210 329 225 303 245 c 2xd2
 188 333 l 2
EndSplineSet
EndChar
StartChar: dieresis
Encoding: 168 168 358
Width: 282
Flags: MW
HStem: 548 95<97 118 271 292>
VStem: 52 109<585 605.5> 226 109<585 605.5>
LayerCount: 2
Back
Fore
SplineSet
114 643 m 0
 143 643 161 627 161 602 c 0
 161 568 136 548 100 548 c 0
 72 548 52 563 52 589 c 0
 52 622 80 643 114 643 c 0
288 643 m 0
 317 643 335 627 335 602 c 0
 335 568 310 548 274 548 c 0
 246 548 226 563 226 589 c 0
 226 622 254 643 288 643 c 0
EndSplineSet
Substitution2: "'case' Case-Sensitive Forms lookup 11 subtable" dieresis.case
Substitution2: "'aalt' Access All Alternates lookup 0 subtable" dieresis.case
EndChar
StartChar: copyright
Encoding: 169 169 343
Width: 697
Flags: MW
HStem: -10 30<256 442.5 256 451> 131 22<336.5 369> 156 73<462 471 471 475> 375 72<485 497 478 506> 451 20<352.5 416> 577 30<278 464>
VStem: 51 32<196 321 196 326.5> 192 87<239 299 239 313> 478 19<375 388.5> 638 34<276 400.5>
LayerCount: 2
Back
Fore
SplineSet
399 607 m 0
 556 607 672 488 672 336 c 0
 672 203 579 -10 323 -10 c 0
 166 -10 51 109 51 260 c 0
 51 393 144 607 399 607 c 0
83 265 m 0
 83 127 186 20 326 20 c 0
 559 20 638 220 638 332 c 0
 638 469 534 577 394 577 c 0
 162 577 83 377 83 265 c 0
389 471 m 0
 452 471 464 447 506 447 c 1
 501 417 497 402 497 375 c 1xd7c0
 478 375 l 1
 474 416 437 451 395 451 c 0
 310 451 279 325 279 273 c 0
 279 205 313 153 360 153 c 0xcfc0
 409 153 448 186 462 229 c 1
 484 229 l 1xafc0
 475 177 475 187 475 156 c 1
 471 156 l 2
 436 156 394 131 344 131 c 0
 256 131 192 196 192 278 c 0
 192 348 242 471 389 471 c 0
EndSplineSet
EndChar
StartChar: ordfeminine
Encoding: 170 170 241
Width: 255
GlyphClass: 2
Flags: MW
HStem: 350 23<245.5 247> 482 23<160.5 198> 592 23<149 178.5>
VStem: 28 65<395.5 432 395.5 435> 60 63<554 570 554 573.5> 207 59<552.5 568>
LayerCount: 2
Back
Fore
SplineSet
28 400 m 0xf4
 28 470 78 505 201 505 c 1
 204 528 l 2
 205 535 207 549 207 556 c 0
 207 580 192 592 165 592 c 0
 133 592 123 578 123 562 c 0
 123 546 117 529 88 529 c 0
 70 529 60 538 60 555 c 0xec
 60 592 96 615 168 615 c 0
 236 615 266 593 266 544 c 0
 266 536 265 525 264 519 c 2
 244 380 l 2
 243 375 244 373 247 373 c 2
 278 374 l 1
 274 350 l 1
 180 350 l 1
 187 387 l 1
 168 357 139 342 101 342 c 0
 52 342 28 361 28 400 c 0xf4
93 407 m 0
 93 384 104 373 121 373 c 0
 154 373 187 410 194 457 c 2
 198 482 l 1
 123 482 93 457 93 407 c 0
EndSplineSet
EndChar
StartChar: guillemotleft
Encoding: 171 171 292
Width: 441
Flags: MW
HStem: 16 342<139 224 139 224 187 307 187 344>
VStem: 20 372<187 358>
LayerCount: 2
Back
Fore
SplineSet
224 358 m 1
 106 187 l 1
 176 16 l 1
 139 16 l 1
 20 187 l 1
 187 358 l 1
 224 358 l 1
392 358 m 1
 274 187 l 1
 344 16 l 1
 307 16 l 1
 188 187 l 1
 355 358 l 1
 392 358 l 1
EndSplineSet
Position2: "'cpsp' Capital Spacing lookup 0 per glyph data 0" dx=0 dy=20 dh=0 dv=0
EndChar
StartChar: logicalnot
Encoding: 172 172 324
Width: 440
Flags: MW
HStem: 319 41<40 391 34 442>
VStem: 34 408<319 360>
LayerCount: 2
Back
Fore
SplineSet
442 360 m 1
 412 146 l 1
 367 146 l 1
 391 319 l 1
 34 319 l 1
 40 360 l 1
 442 360 l 1
EndSplineSet
EndChar
StartChar: uni00AD
Encoding: 173 173 291
Width: 253
Flags: MW
HStem: 189 55<26 230 18 238>
VStem: 18 220<189 244>
LayerCount: 2
Back
Fore
SplineSet
238 244 m 1
 230 189 l 1
 18 189 l 1
 26 244 l 1
 238 244 l 1
EndSplineSet
EndChar
StartChar: registered
Encoding: 174 174 344
Width: 464
Flags: MW
HStem: 220 26<211.5 308.5 211.5 315.5> 317 18<166 178 178 180 250 267 166 178> 400 19<243 253 243 262> 411 8 496 18<166 176 166 268 246.5 248 248 257> 581 26<211.5 308.5>
VStem: 61 29<364 462.5 364 469> 184 59<342 400 419 489 489 491> 287 58<451.5 472> 292 58<350 362 362 374 350 375.5> 431 30<364 462.5>
LayerCount: 2
Back
Fore
SplineSet
261 607 m 0xef60
 370 607 461 525 461 413 c 0
 461 303 370 220 261 220 c 0
 150 220 61 303 61 413 c 0
 61 525 150 607 261 607 c 0xef60
260 581 m 0
 163 581 90 512 90 413 c 0
 90 315 163 246 260 246 c 0
 357 246 431 315 431 413 c 0
 431 512 357 581 260 581 c 0
166 514 m 1
 268 514 l 2
 320 514 345 499 345 466 c 0xdfa0
 345 437 324 417 289 411 c 1
 316 411 350 392 350 356 c 0
 350 344 352 329 370 334 c 1xdf60
 370 317 l 1
 333 317 l 2
 307 317 292 326 292 348 c 2
 292 362 l 2
 292 389 272 400 253 400 c 2
 243 400 l 1
 243 342 l 2
 243 337 246 335 250 335 c 2
 267 335 l 1
 267 317 l 1
 166 317 l 1
 166 335 l 1
 178 335 l 2
 182 335 184 337 184 342 c 2
 184 489 l 2
 184 493 182 496 176 496 c 2
 166 496 l 1
 166 514 l 1
257 496 m 2
 248 496 l 2
 245 496 243 495 243 493 c 2
 243 419 l 1
 262 419 l 2xefa0
 278 419 287 436 287 459 c 0
 287 485 277 496 257 496 c 2
EndSplineSet
EndChar
StartChar: macron
Encoding: 175 175 362
Width: 442
Flags: MW
HStem: 567 40<156 392 150 398>
VStem: 150 248<567 607>
LayerCount: 2
Back
Fore
SplineSet
398 607 m 1
 392 567 l 1
 150 567 l 1
 156 607 l 1
 398 607 l 1
EndSplineSet
Substitution2: "'case' Case-Sensitive Forms lookup 11 subtable" macron.case
Substitution2: "'aalt' Access All Alternates lookup 0 subtable" macron.case
EndChar
StartChar: degree
Encoding: 176 176 347
Width: 362
Flags: MW
HStem: 411 42<201.5 231 201.5 239> 565 42<213.5 243>
VStem: 127 43<487.5 519.5 487.5 528> 273 45<498.5 530.5>
LayerCount: 2
Back
Fore
SplineSet
127 498 m 0
 127 558 176 607 236 607 c 0
 285 607 318 572 318 519 c 0
 318 460 269 411 209 411 c 0
 160 411 127 446 127 498 c 0
170 502 m 0
 170 473 188 453 215 453 c 0
 247 453 273 481 273 516 c 0
 273 545 256 565 230 565 c 0
 197 565 170 537 170 502 c 0
EndSplineSet
EndChar
StartChar: plusminus
Encoding: 177 177 333
Width: 446
Flags: MW
HStem: 0 41<-5 397 -11 403> 274 41<33 208 28 213 259 436>
VStem: -11 452<0 315>
LayerCount: 2
Back
Fore
SplineSet
286 506 m 1
 259 315 l 1
 441 315 l 1
 436 274 l 1
 254 274 l 1
 226 80 l 1
 180 80 l 1
 208 274 l 1
 28 274 l 1
 33 315 l 1
 213 315 l 1
 240 506 l 1
 286 506 l 1
403 41 m 1
 397 0 l 1
 -11 0 l 1
 -5 41 l 1
 403 41 l 1
EndSplineSet
EndChar
StartChar: uni00B2
Encoding: 178 178 262
Width: 262
Flags: MW
HStem: 403 51<104 199 199 217 104 227 56 199> 660 18<174 197>
VStem: 82 71<630 631> 220 74<605.5 637 596 639>
LayerCount: 2
Back
Fore
SplineSet
199 454 m 2
 235 454 252 460 259 480 c 1
 279 480 l 1
 268 452 259 413 258 401 c 1
 254 402 237 403 227 403 c 2
 56 403 l 1
 60 447 l 1
 124 493 l 2
 213 558 220 585 220 626 c 0
 220 652 206 660 188 660 c 0
 160 660 153 644 153 634 c 0
 153 626 155 618 154 609 c 0
 151 592 134 583 115 583 c 0
 91 583 82 597 82 614 c 0
 82 648 125 678 193 678 c 0
 250 678 294 658 294 616 c 0
 294 576 281 553 165 488 c 2
 104 454 l 1
 199 454 l 2
EndSplineSet
EndChar
StartChar: uni00B3
Encoding: 179 179 263
Width: 251
Flags: MW
HStem: 397 19<135 162.5 135 180> 537 16<113 144> 660 18<167 188.5>
VStem: 43 66<432.5 439 428.5 458> 74 70<631.5 637.5> 208 75<466 502.5>
LayerCount: 2
Back
Fore
SplineSet
188 678 m 0xec
 241 678 285 661 285 626 c 0
 285 583 235 556 177 550 c 1
 176 547 l 1
 244 546 283 526 283 488 c 0
 283 434 219 397 141 397 c 0
 85 397 43 417 43 448 c 0
 43 468 59 486 86 486 c 0
 105 486 116 477 116 463 c 0
 116 456 109 442 109 436 c 0xf4
 109 421 127 416 143 416 c 0
 182 416 208 446 208 486 c 0
 208 519 181 531 113 537 c 1
 115 553 l 1
 173 553 210 594 210 630 c 0
 210 647 199 660 178 660 c 0
 156 660 144 647 144 635 c 0
 144 628 146 624 145 616 c 0
 142 597 123 590 106 590 c 0
 83 590 74 604 74 618 c 0
 74 657 132 678 188 678 c 0xec
EndSplineSet
EndChar
StartChar: acute
Encoding: 180 180 353
Width: 266
Flags: MW
HStem: 493 160<83 248>
VStem: 74 216<498 631>
LayerCount: 2
Back
Fore
SplineSet
290 627 m 0
 290 622 284 618 280 615 c 2
 109 502 l 2
 105 499 96 493 88 493 c 0
 78 493 74 496 74 500 c 0
 74 505 84 514 94 524 c 2
 201 632 l 2
 216 648 221 653 236 653 c 0
 260 653 290 635 290 627 c 0
EndSplineSet
Substitution2: "'case' Case-Sensitive Forms lookup 11 subtable" acute.case
Substitution2: "'aalt' Access All Alternates lookup 0 subtable" acute.case
EndChar
StartChar: paragraph
Encoding: 182 182 342
Width: 484
Flags: MW
HStem: 566 31<331.5 342 342 380 417 514 417 417>
VStem: 59 459<378.5 597>
LayerCount: 2
Back
Fore
SplineSet
59 421 m 0
 59 528 143 597 275 597 c 2
 518 597 l 1
 514 566 l 1
 417 566 l 1
 299 -269 l 1
 262 -269 l 1
 380 566 l 1
 342 566 l 2
 321 566 305 555 301 528 c 2
 189 -269 l 1
 152 -269 l 1
 230 288 l 1
 121 288 59 336 59 421 c 0
EndSplineSet
EndChar
StartChar: periodcentered
Encoding: 183 183 266
Width: 244
Flags: MW
HStem: 127 115<107 130>
VStem: 56 125<172 195.5>
LayerCount: 2
Back
Fore
SplineSet
56 176 m 0
 56 215 87 242 127 242 c 0
 159 242 181 223 181 192 c 0
 181 152 149 127 111 127 c 0
 78 127 56 146 56 176 c 0
EndSplineSet
EndChar
StartChar: cedilla
Encoding: 184 184 356
Width: 227
Flags: MW
HStem: -214 27<33.5 35.5 13.5 75.5>
VStem: 23 49<-68.5 -64> 78 68<-143.5 -122.5>
LayerCount: 2
Back
Fore
SplineSet
112 0 m 1
 81 -43 l 2
 75 -51 72 -59 72 -63 c 0xc0
 72 -85 146 -73 146 -117 c 0
 146 -170 109 -214 42 -214 c 0
 25 -214 -3 -213 -24 -198 c 1
 -12 -171 l 1
 -5 -182 7 -187 20 -187 c 0
 51 -187 78 -161 78 -130 c 0
 78 -115 65 -103 53 -94 c 2xa0
 33 -80 l 2
 27 -76 23 -71 23 -66 c 0
 23 -62 25 -58 32 -52 c 1
 77 0 l 1
 112 0 l 1
EndSplineSet
EndChar
StartChar: uni00B9
Encoding: 185 185 261
Width: 192
Flags: MW
HStem: 404 17<94 97.5 172 176>
VStem: 50 156<404 422>
LayerCount: 2
Back
Fore
SplineSet
200 683 m 1
 166 439 l 2
 164 429 168 421 176 421 c 2
 206 422 l 1
 203 404 l 1
 50 404 l 1
 53 422 l 1
 94 421 l 2
 101 421 104 428 106 439 c 2
 129 604 l 2
 130 611 128 616 123 616 c 0
 119 616 99 608 84 603 c 1
 83 629 l 1
 117 638 142 656 173 683 c 1
 200 683 l 1
EndSplineSet
EndChar
StartChar: ordmasculine
Encoding: 186 186 242
Width: 339
GlyphClass: 2
Flags: MW
HStem: 344 24<174.5 211.5 174.5 234> 594 24<200 238.5>
VStem: 77 69<426 496.5 410 507> 267 70<457.5 540.5 455.5 551>
LayerCount: 2
Back
Fore
SplineSet
77 458 m 0
 77 556 137 618 226 618 c 0
 295 618 337 577 337 504 c 0
 337 407 281 344 187 344 c 0
 111 344 77 394 77 458 c 0
146 432 m 0
 146 388 158 368 191 368 c 0
 232 368 267 388 267 527 c 0
 267 575 255 594 222 594 c 0
 178 594 146 561 146 432 c 0
EndSplineSet
EndChar
StartChar: guillemotright
Encoding: 187 187 293
Width: 441
Flags: MW
HStem: 16 342<27 112 27 112 75 232 75 195>
VStem: 27 372<16 187>
LayerCount: 2
Back
Fore
SplineSet
27 16 m 1
 145 187 l 1
 75 358 l 1
 112 358 l 1
 231 187 l 1
 64 16 l 1
 27 16 l 1
195 16 m 1
 313 187 l 1
 243 358 l 1
 280 358 l 1
 399 187 l 1
 232 16 l 1
 195 16 l 1
EndSplineSet
Position2: "'cpsp' Capital Spacing lookup 0 per glyph data 0" dx=0 dy=20 dh=0 dv=0
EndChar
StartChar: onequarter
Encoding: 188 188 259
Width: 559
Flags: MW
HStem: -5 21G<64 64> 0 21<356 389 389 392 476 493 353 389> 65 37<319 404 478 509> 333 17<113 116.5 191 195> 587 20G<519 519>
VStem: 33 518 401.5 69
LayerCount: 2
Back
Fore
SplineSet
225 351 m 1x7c
 222 333 l 1
 69 333 l 1
 72 351 l 1
 113 350 l 2
 120 350 123 357 125 368 c 2
 148 533 l 2
 149 540 147 545 142 545 c 0
 138 545 118 537 103 532 c 1
 102 558 l 1
 136 567 161 585 192 612 c 1
 219 612 l 1
 185 368 l 2
 183 358 187 350 195 350 c 2
 225 351 l 1x7c
519 607 m 1
 551 586 l 1
 64 -5 l 1
 33 19 l 1xbc
 519 607 l 1
502 274 m 1
 478 102 l 1
 514 102 l 1
 509 65 l 1
 473 65 l 1
 468 30 l 2
 467 24 470 21 476 21 c 2
 496 21 l 1
 493 0 l 1
 353 0 l 1
 356 21 l 1
 389 21 l 2
 395 21 398 24 399 30 c 2
 404 65 l 1x7a
 277 65 l 1
 282 98 l 1
 469 274 l 1
 502 274 l 1
319 102 m 1
 409 102 l 1
 423 198 l 1
 319 102 l 1
EndSplineSet
Ligature2: "'frac' Diagonal Fractions lookup 9 subtable" one slash four
EndChar
StartChar: onehalf
Encoding: 189 189 258
Width: 615
Flags: MW
HStem: -5 21G<64 64> 0 21G<348 519 348 348> 0 51<396 491 491 509 396 519 348 491> 257 18<466 489> 333 17<113 116.5 191 195> 587 20G<519 519>
VStem: 374 71<227 228> 512 74<202.5 234 193 236>
LayerCount: 2
Back
Fore
SplineSet
225 351 m 1x3f
 222 333 l 1
 69 333 l 1
 72 351 l 1
 113 350 l 2
 120 350 123 357 125 368 c 2
 148 533 l 2
 149 540 147 545 142 545 c 0
 138 545 118 537 103 532 c 1
 102 558 l 1
 136 567 161 585 192 612 c 1
 219 612 l 1
 185 368 l 2
 183 358 187 350 195 350 c 2
 225 351 l 1x3f
519 607 m 1
 551 586 l 1
 64 -5 l 1x9f
 33 19 l 1x5f
 519 607 l 1
491 51 m 2x3f
 527 51 544 57 551 77 c 1
 571 77 l 1
 560 49 551 10 550 -2 c 1
 546 -1 529 0 519 0 c 2
 348 0 l 1
 352 44 l 1
 416 90 l 2
 505 155 512 182 512 223 c 0
 512 249 498 257 480 257 c 0
 452 257 445 241 445 231 c 0
 445 223 447 215 446 206 c 0
 443 189 426 180 407 180 c 0
 383 180 374 194 374 211 c 0
 374 245 417 275 485 275 c 0
 542 275 586 255 586 213 c 0
 586 173 573 150 457 85 c 2
 396 51 l 1
 491 51 l 2x3f
EndSplineSet
Ligature2: "'frac' Diagonal Fractions lookup 9 subtable" one slash two
EndChar
StartChar: threequarters
Encoding: 190 190 260
Width: 559
Flags: MW
HStem: -5 21G<74 74> 0 21<356 389 389 392 476 493 353 389> 65 37<319 404 478 509> 326 19<149 176.5 149 194> 466 16<127 158> 589 18<181 202.5>
VStem: 57 66<361.5 368 357.5 387> 88 70<560.5 566.5> 222 75<395 431.5> 401.5 69
LayerCount: 2
Back
Fore
SplineSet
529 607 m 1x7dc0
 561 586 l 1
 74 -5 l 1
 43 19 l 1xbec0
 529 607 l 1x7dc0
155 326 m 0
 99 326 57 346 57 377 c 0
 57 397 73 415 100 415 c 0
 119 415 130 406 130 392 c 0
 130 385 123 371 123 365 c 0x7ec0
 123 350 141 345 157 345 c 0
 196 345 222 375 222 415 c 0
 222 448 195 460 127 466 c 1
 129 482 l 1
 187 482 224 523 224 559 c 0
 224 576 213 589 192 589 c 0
 170 589 158 576 158 564 c 0
 158 557 160 553 159 545 c 0
 156 526 137 519 120 519 c 0
 97 519 88 533 88 547 c 0x7dc0
 88 586 146 607 202 607 c 0
 255 607 299 590 299 555 c 0
 299 512 249 485 191 479 c 1
 190 476 l 1
 258 475 297 455 297 417 c 0
 297 363 233 326 155 326 c 0
502 274 m 1
 478 102 l 1
 514 102 l 1
 509 65 l 1
 473 65 l 1
 468 30 l 2
 467 24 470 21 476 21 c 2
 496 21 l 1
 493 0 l 1
 353 0 l 1
 356 21 l 1
 389 21 l 2
 395 21 398 24 399 30 c 2
 404 65 l 1
 277 65 l 1
 282 98 l 1x7dc0
 469 274 l 1
 502 274 l 1
319 102 m 1
 409 102 l 1
 423 198 l 1
 319 102 l 1
EndSplineSet
Ligature2: "'frac' Diagonal Fractions lookup 9 subtable" three slash four
EndChar
StartChar: questiondown
Encoding: 191 191 276
Width: 389
Flags: MW
HStem: -235 27<129.5 178.5 129.5 182> 330 115<228 251>
VStem: -14 89<-161.5 -99.5 -161.5 -75.5> 173 131<379 400.5> 199 71<80 137.5 74 146> 243 77<-174.5 -156.5>
LayerCount: 2
Back
Fore
SplineSet
246 445 m 0xf0
 274 445 304 429 304 396 c 0
 304 362 271 330 231 330 c 0
 201 330 173 347 173 380 c 0
 173 421 210 445 246 445 c 0xf0
178 216 m 1xa8
 214 207 270 161 270 114 c 0xa8
 270 34 75 -54 75 -145 c 0
 75 -178 101 -208 158 -208 c 0
 199 -208 243 -193 243 -162 c 0
 243 -151 238 -145 238 -135 c 0
 238 -111 260 -103 279 -103 c 0
 310 -103 320 -125 320 -144 c 0xa4
 320 -205 225 -235 139 -235 c 0
 46 -235 -14 -199 -14 -137 c 0
 -14 -14 199 26 199 134 c 0
 199 158 189 182 163 197 c 1
 178 216 l 1xa8
EndSplineSet
Position2: "'cpsp' Capital Spacing lookup 0 per glyph data 1" dx=0 dy=35 dh=0 dv=0
EndChar
StartChar: Aacute
Encoding: 193 193 3
Width: 580
GlyphClass: 2
Flags: MW
HStem: 0 27<-16 -4 -16 119 536 541> 208 28<154 353 154 361 139 353> 587 20G<326 355 355 355>
VStem: -51 626<0 29>
LayerCount: 2
Back
Fore
SplineSet
306 666 m 0
 296 666 292 669 292 673 c 0
 292 678 302 687 312 697 c 2
 419 805 l 2
 434 821 439 826 454 826 c 0
 478 826 508 808 508 800 c 0
 508 795 502 791 498 788 c 2
 327 675 l 2
 323 672 314 666 306 666 c 0
541 27 m 1
 575 29 l 1
 571 0 l 1
 312 0 l 1
 316 29 l 1
 369 27 l 2
 389 26 396 40 396 58 c 0
 396 67 395 80 392 90 c 2
 361 208 l 1
 139 208 l 1
 79 96 l 2
 68 76 58 56 58 41 c 0
 58 32 62 26 72 26 c 2
 123 29 l 1
 119 0 l 1
 -51 0 l 1
 -47 29 l 1
 -16 27 l 1
 8 27 28 58 53 104 c 2
 326 607 l 1
 355 607 l 1
 486 102 l 2
 499 53 509 27 536 27 c 2
 541 27 l 1
154 236 m 1
 353 236 l 1
 288 484 l 1
 154 236 l 1
EndSplineSet
Position2: "'cpsp' Capital Spacing lookup 0 per glyph data 2" dx=5 dy=0 dh=10 dv=0
EndChar
StartChar: Acircumflex
Encoding: 194 194 5
Width: 580
GlyphClass: 2
Flags: MW
HStem: 0 27<-16 -4 -16 119 536 541> 208 28<154 353 154 361 139 353> 587 20G<326 355 355 355>
VStem: -51 626<0 29>
LayerCount: 2
Back
Fore
SplineSet
220 666 m 0
 211 666 209 670 209 673 c 0
 209 681 249 705 295 749 c 2
 345 797 l 2
 361 812 374 822 379 822 c 0
 382 822 393 813 405 797 c 2
 441 749 l 2
 475 703 506 682 506 674 c 0
 506 672 504 666 493 666 c 0
 486 666 473 673 466 678 c 2
 369 751 l 1
 249 678 l 2
 240 673 228 666 220 666 c 0
541 27 m 1
 575 29 l 1
 571 0 l 1
 312 0 l 1
 316 29 l 1
 369 27 l 2
 389 26 396 40 396 58 c 0
 396 67 395 80 392 90 c 2
 361 208 l 1
 139 208 l 1
 79 96 l 2
 68 76 58 56 58 41 c 0
 58 32 62 26 72 26 c 2
 123 29 l 1
 119 0 l 1
 -51 0 l 1
 -47 29 l 1
 -16 27 l 1
 8 27 28 58 53 104 c 2
 326 607 l 1
 355 607 l 1
 486 102 l 2
 499 53 509 27 536 27 c 2
 541 27 l 1
154 236 m 1
 353 236 l 1
 288 484 l 1
 154 236 l 1
EndSplineSet
Position2: "'cpsp' Capital Spacing lookup 0 per glyph data 2" dx=5 dy=0 dh=10 dv=0
EndChar
StartChar: Atilde
Encoding: 195 195 11
Width: 580
GlyphClass: 2
Flags: MW
HStem: 0 27<-16 -4 -16 119 536 541> 208 28<154 353 154 361 139 353> 587 20G<326 355 355 355> 675 49<431.5 451.5> 718 49<274.5 295>
VStem: 216 20<676 676> 490 20<766 766>
LayerCount: 2
Back
Fore
SplineSet
275 718 m 0xee
 256 718 240 700 236 676 c 1
 216 676 l 1
 223 725 256 767 293 767 c 0xee
 336 767 412 724 451 724 c 0
 470 724 487 742 490 766 c 1
 510 766 l 1
 503 717 470 675 433 675 c 0xf6
 389 675 315 718 275 718 c 0xee
541 27 m 1
 575 29 l 1
 571 0 l 1
 312 0 l 1
 316 29 l 1
 369 27 l 2
 389 26 396 40 396 58 c 0
 396 67 395 80 392 90 c 2
 361 208 l 1
 139 208 l 1
 79 96 l 2
 68 76 58 56 58 41 c 0
 58 32 62 26 72 26 c 2
 123 29 l 1
 119 0 l 1
 -51 0 l 1
 -47 29 l 1
 -16 27 l 1
 8 27 28 58 53 104 c 2
 326 607 l 1
 355 607 l 1
 486 102 l 2
 499 53 509 27 536 27 c 2
 541 27 l 1
154 236 m 1
 353 236 l 1
 288 484 l 1
 154 236 l 1
EndSplineSet
Position2: "'cpsp' Capital Spacing lookup 0 per glyph data 2" dx=5 dy=0 dh=10 dv=0
EndChar
StartChar: Adieresis
Encoding: 196 196 6
Width: 580
GlyphClass: 2
Flags: MW
HStem: 0 27<-16 -4 -16 119 536 541> 208 28<154 353 154 361 139 353> 587 20G<326 355 355 355> 677 95<269 290 443 464>
VStem: 224 109<714 734.5> 398 109<714 734.5>
LayerCount: 2
Back
Fore
SplineSet
272 677 m 0
 244 677 224 692 224 718 c 0
 224 751 252 772 286 772 c 0
 315 772 333 756 333 731 c 0
 333 697 308 677 272 677 c 0
446 677 m 0
 418 677 398 692 398 718 c 0
 398 751 426 772 460 772 c 0
 489 772 507 756 507 731 c 0
 507 697 482 677 446 677 c 0
541 27 m 1
 575 29 l 1
 571 0 l 1
 312 0 l 1
 316 29 l 1
 369 27 l 2
 389 26 396 40 396 58 c 0
 396 67 395 80 392 90 c 2
 361 208 l 1
 139 208 l 1
 79 96 l 2
 68 76 58 56 58 41 c 0
 58 32 62 26 72 26 c 2
 123 29 l 1
 119 0 l 1
 -51 0 l 1
 -47 29 l 1
 -16 27 l 1
 8 27 28 58 53 104 c 2
 326 607 l 1
 355 607 l 1
 486 102 l 2
 499 53 509 27 536 27 c 2
 541 27 l 1
154 236 m 1
 353 236 l 1
 288 484 l 1
 154 236 l 1
EndSplineSet
Position2: "'cpsp' Capital Spacing lookup 0 per glyph data 2" dx=5 dy=0 dh=10 dv=0
EndChar
StartChar: Aring
Encoding: 197 197 10
Width: 580
GlyphClass: 2
Flags: MW
HStem: 0 27<-16 -4 -16 119 536 541> 208 28<154 353 154 361 139 353> 587 20G<326 355 355 355> 666 36<351 373.5 351 383> 793 36<361.5 384.5>
VStem: 287 45<730.5 755.5 730.5 764> 404 46<740.5 765>
LayerCount: 2
Back
Fore
SplineSet
356 666 m 0
 312 666 287 694 287 738 c 0
 287 790 330 829 379 829 c 0
 424 829 450 802 450 758 c 0
 450 704 410 666 356 666 c 0
374 793 m 0
 349 793 332 769 332 742 c 0
 332 719 341 702 361 702 c 0
 386 702 404 727 404 754 c 0
 404 776 395 793 374 793 c 0
541 27 m 1
 575 29 l 1
 571 0 l 1
 312 0 l 1
 316 29 l 1
 369 27 l 2
 389 26 396 40 396 58 c 0
 396 67 395 80 392 90 c 2
 361 208 l 1
 139 208 l 1
 79 96 l 2
 68 76 58 56 58 41 c 0
 58 32 62 26 72 26 c 2
 123 29 l 1
 119 0 l 1
 -51 0 l 1
 -47 29 l 1
 -16 27 l 1
 8 27 28 58 53 104 c 2
 326 607 l 1
 355 607 l 1
 486 102 l 2
 499 53 509 27 536 27 c 2
 541 27 l 1
154 236 m 1
 353 236 l 1
 288 484 l 1
 154 236 l 1
EndSplineSet
Position2: "'cpsp' Capital Spacing lookup 0 per glyph data 2" dx=5 dy=0 dh=10 dv=0
EndChar
StartChar: AE
Encoding: 198 198 12
Width: 818
GlyphClass: 2
Flags: MW
HStem: 0 27<-12 -5 61 71 523 587 587 631.5> 208 28<188 401 188 403 168 401> 297 27<496 571 496 575> 406 20G<660 689 689 689> 443 154<761 777 777 784 327 789 761 761> 569 28<487 643 487 487>
VStem: -49 108.62 395.5 96 406 95 660 29<426 426> 763.43 25.57
LayerCount: 2
Back
Fore
SplineSet
811 599 m 1xf760
 789 443 l 1
 761 443 l 1xfb60
 774 531 735 569 643 569 c 2
 487 569 l 1
 496 324 l 1xf760
 575 324 l 2
 615 324 651 365 660 426 c 1
 689 426 l 1
 656 195 l 1
 627 195 l 1
 636 255 611 297 571 297 c 2
 496 297 l 1
 506 46 l 1
 508 35 513 27 523 27 c 2
 587 27 l 2
 676 27 728 75 741 171 c 1
 770 171 l 1
 746 -3 l 1
 710 0 674 0 660 0 c 2
 326 0 l 1
 330 30 l 1
 386 27 l 2
 399 26 407 37 409 47 c 1
 403 208 l 1xf6e0
 168 208 l 1
 77 80 l 2
 60 57 51 27 71 27 c 1
 125 30 l 1
 121 0 l 1
 -51 0 l 1
 -47 30 l 1
 -12 27 l 1
 2 27 21 48 49 86 c 2
 383 543 l 2
 390 552 383 567 373 567 c 2
 322 565 l 1
 327 597 l 1
 777 597 l 2
 791 597 803 598 811 599 c 1xf760
390 511 m 1
 188 236 l 1
 401 236 l 1
 390 511 l 1
EndSplineSet
Position2: "'cpsp' Capital Spacing lookup 0 per glyph data 2" dx=5 dy=0 dh=10 dv=0
EndChar
StartChar: Ccedilla
Encoding: 199 199 17
Width: 585
GlyphClass: 2
Flags: MW
HStem: -214 27<212.5 214.5 192.5 254.5> -10 27<284 297 284 284> -7 21G<250 250> 35 132<507 509 509 516> 433 131<544.5 566 540 584> 582 25<312 423>
VStem: 49 101<174 336 174 355.5> 202 49<-68.5 -64> 257 68<-143.5 -122.5>
AnchorPoint: "Anchor-0" 263 0 basechar 0
LayerCount: 2
Back
Fore
SplineSet
584 564 m 1xce
 572 518 565 467 565 448 c 0
 565 441 565 434 566 433 c 1xce
 540 433 l 1
 534 515 466 582 380 582 c 0
 244 582 150 432 150 240 c 0
 150 108 207 17 305 17 c 0xc6
 395 17 477 82 507 167 c 1
 538 167 l 1xd6
 519 89 516 73 516 47 c 2
 516 35 l 1
 509 35 l 2
 443 35 398 -10 297 -10 c 2
 284 -10 l 1
 260 -43 l 2
 254 -51 251 -59 251 -63 c 0xc7
 251 -85 325 -73 325 -117 c 0
 325 -170 288 -214 221 -214 c 0
 204 -214 176 -213 155 -198 c 1
 167 -171 l 1
 174 -182 186 -187 199 -187 c 0
 230 -187 257 -161 257 -130 c 0
 257 -115 244 -103 232 -94 c 2xc680
 212 -80 l 2
 206 -76 202 -71 202 -66 c 0
 202 -62 204 -58 211 -52 c 1
 250 -7 l 1
 122 11 49 103 49 245 c 0
 49 466 181 607 388 607 c 0xa7
 507 607 505 564 584 564 c 1xce
EndSplineSet
Position2: "'cpsp' Capital Spacing lookup 0 per glyph data 2" dx=5 dy=0 dh=10 dv=0
EndChar
StartChar: Eacute
Encoding: 201 201 23
Width: 545
GlyphClass: 2
Flags: MW
HStem: 0 28<180 316 316 359> 297 28<212 298 208 302> 406 20G<387 417 417 417> 443 154<477 506 477 477> 569 28<136 141.5 253 256 256 360>
VStem: 387 30<426 426> 479.55 26.45
AnchorPoint: "Anchor-0" 222 0 basechar 0
LayerCount: 2
Back
Fore
SplineSet
491 800 m 0xee
 491 795 485 791 481 788 c 2
 310 675 l 2
 306 672 297 666 289 666 c 0
 279 666 275 669 275 673 c 0
 275 678 285 687 295 697 c 2
 402 805 l 2
 417 821 422 826 437 826 c 0
 461 826 491 808 491 800 c 0xee
528 599 m 1
 506 443 l 1
 477 443 l 1xf6
 490 532 454 569 360 569 c 2
 256 569 l 2
 250 569 245 564 244 555 c 2
 212 325 l 1
 302 325 l 2
 343 325 378 362 387 426 c 1
 417 426 l 1
 384 195 l 1
 354 195 l 1
 363 255 336 297 298 297 c 2
 208 297 l 1
 172 41 l 2
 171 32 174 28 180 28 c 2
 316 28 l 2
 402 28 456 82 469 179 c 1
 498 179 l 1
 473 -3 l 1
 458 -1 428 0 387 0 c 2
 18 0 l 1
 22 30 l 1
 62 27 l 2
 72 27 79 34 81 49 c 2
 151 548 l 2
 153 561 147 569 136 569 c 2
 98 567 l 1
 102 597 l 1
 510 597 l 2
 518 597 523 597 528 599 c 1
EndSplineSet
Position2: "'cpsp' Capital Spacing lookup 0 per glyph data 2" dx=5 dy=0 dh=10 dv=0
EndChar
StartChar: Ecircumflex
Encoding: 202 202 25
Width: 545
GlyphClass: 2
Flags: MW
HStem: 0 28<180 316 316 359> 297 28<212 298 208 302> 406 20G<387 417 417 417> 443 154<477 506 477 477> 569 28<136 141.5 253 256 256 360>
VStem: 387 30<426 426> 479.55 26.45
AnchorPoint: "Anchor-0" 222 0 basechar 0
LayerCount: 2
Back
Fore
SplineSet
203 666 m 0xee
 194 666 192 670 192 673 c 0
 192 681 232 705 278 749 c 2
 328 797 l 2
 344 812 357 822 362 822 c 0
 365 822 376 813 388 797 c 2
 424 749 l 2
 458 703 489 682 489 674 c 0
 489 672 487 666 476 666 c 0
 469 666 456 673 449 678 c 2
 352 751 l 1
 232 678 l 2
 223 673 211 666 203 666 c 0xee
528 599 m 1
 506 443 l 1
 477 443 l 1xf6
 490 532 454 569 360 569 c 2
 256 569 l 2
 250 569 245 564 244 555 c 2
 212 325 l 1
 302 325 l 2
 343 325 378 362 387 426 c 1
 417 426 l 1
 384 195 l 1
 354 195 l 1
 363 255 336 297 298 297 c 2
 208 297 l 1
 172 41 l 2
 171 32 174 28 180 28 c 2
 316 28 l 2
 402 28 456 82 469 179 c 1
 498 179 l 1
 473 -3 l 1
 458 -1 428 0 387 0 c 2
 18 0 l 1
 22 30 l 1
 62 27 l 2
 72 27 79 34 81 49 c 2
 151 548 l 2
 153 561 147 569 136 569 c 2
 98 567 l 1
 102 597 l 1
 510 597 l 2
 518 597 523 597 528 599 c 1
EndSplineSet
Position2: "'cpsp' Capital Spacing lookup 0 per glyph data 2" dx=5 dy=0 dh=10 dv=0
EndChar
StartChar: Edieresis
Encoding: 203 203 26
Width: 545
GlyphClass: 2
Flags: MW
HStem: 0 28<180 316 316 359> 297 28<212 298 208 302> 406 20G<387 417 417 417> 443 154<477 506 477 477> 569 28<136 141.5 253 256 256 360> 677 95<252 273 426 447>
VStem: 207 109<714 734.5> 381 109<714 734.5> 387 30<426 426> 479.55 26.45
AnchorPoint: "Anchor-0" 222 0 basechar 0
LayerCount: 2
Back
Fore
SplineSet
269 772 m 0xeec0
 298 772 316 756 316 731 c 0
 316 697 291 677 255 677 c 0
 227 677 207 692 207 718 c 0
 207 751 235 772 269 772 c 0xeec0
443 772 m 0xef
 472 772 490 756 490 731 c 0
 490 697 465 677 429 677 c 0
 401 677 381 692 381 718 c 0
 381 751 409 772 443 772 c 0xef
528 599 m 1
 506 443 l 1
 477 443 l 1xf6c0
 490 532 454 569 360 569 c 2
 256 569 l 2
 250 569 245 564 244 555 c 2
 212 325 l 1
 302 325 l 2
 343 325 378 362 387 426 c 1
 417 426 l 1
 384 195 l 1
 354 195 l 1xeec0
 363 255 336 297 298 297 c 2
 208 297 l 1
 172 41 l 2
 171 32 174 28 180 28 c 2
 316 28 l 2
 402 28 456 82 469 179 c 1
 498 179 l 1
 473 -3 l 1
 458 -1 428 0 387 0 c 2
 18 0 l 1
 22 30 l 1
 62 27 l 2
 72 27 79 34 81 49 c 2
 151 548 l 2
 153 561 147 569 136 569 c 2
 98 567 l 1
 102 597 l 1
 510 597 l 2
 518 597 523 597 528 599 c 1
EndSplineSet
Position2: "'cpsp' Capital Spacing lookup 0 per glyph data 2" dx=5 dy=0 dh=10 dv=0
EndChar
StartChar: Igrave
Encoding: 204 204 42
Width: 301
GlyphClass: 2
Flags: MW
HStem: 0 27<61 66.5 182.5 188> 569 28<137 142.5 258.5 264>
VStem: 18 289
LayerCount: 2
Back
Fore
SplineSet
155 826 m 0
 170 826 172 821 184 805 c 2
 266 691 l 2
 271 683 275 677 275 674 c 0
 275 669 270 666 258 666 c 0
 250 666 243 672 240 675 c 2
 101 788 l 2
 98 791 95 794 95 799 c 0
 95 808 130 826 155 826 c 0
307 597 m 1
 303 567 l 1
 264 569 l 2
 253 569 245 561 243 548 c 2
 173 49 l 2
 171 34 177 27 188 27 c 2
 227 29 l 1
 223 0 l 1
 18 0 l 1
 22 29 l 1
 61 27 l 2
 72 27 79 34 81 49 c 2
 151 548 l 2
 153 560 148 569 137 569 c 2
 98 567 l 1
 102 597 l 1
 307 597 l 1
EndSplineSet
Position2: "'cpsp' Capital Spacing lookup 0 per glyph data 2" dx=5 dy=0 dh=10 dv=0
EndChar
StartChar: Iacute
Encoding: 205 205 38
Width: 301
GlyphClass: 2
Flags: MW
HStem: 0 27<61 66.5 182.5 188> 569 28<137 142.5 258.5 264>
VStem: 18 344
LayerCount: 2
Back
Fore
SplineSet
362 800 m 0
 362 795 356 791 352 788 c 2
 181 675 l 2
 177 672 168 666 160 666 c 0
 150 666 146 669 146 673 c 0
 146 678 156 687 166 697 c 2
 273 805 l 2
 288 821 293 826 308 826 c 0
 332 826 362 808 362 800 c 0
307 597 m 1
 303 567 l 1
 264 569 l 2
 253 569 245 561 243 548 c 2
 173 49 l 2
 171 34 177 27 188 27 c 2
 227 29 l 1
 223 0 l 1
 18 0 l 1
 22 29 l 1
 61 27 l 2
 72 27 79 34 81 49 c 2
 151 548 l 2
 153 560 148 569 137 569 c 2
 98 567 l 1
 102 597 l 1
 307 597 l 1
EndSplineSet
Position2: "'cpsp' Capital Spacing lookup 0 per glyph data 2" dx=5 dy=0 dh=10 dv=0
EndChar
StartChar: Icircumflex
Encoding: 206 206 39
Width: 301
GlyphClass: 2
Flags: MW
HStem: 0 27<61 66.5 182.5 188> 569 28<137 142.5 258.5 264>
VStem: 18 342
LayerCount: 2
Back
Fore
SplineSet
74 666 m 0
 65 666 63 670 63 673 c 0
 63 681 103 705 149 749 c 2
 199 797 l 2
 215 812 228 822 233 822 c 0
 236 822 247 813 259 797 c 2
 295 749 l 2
 329 703 360 682 360 674 c 0
 360 672 358 666 347 666 c 0
 340 666 327 673 320 678 c 2
 223 751 l 1
 103 678 l 2
 94 673 82 666 74 666 c 0
307 597 m 1
 303 567 l 1
 264 569 l 2
 253 569 245 561 243 548 c 2
 173 49 l 2
 171 34 177 27 188 27 c 2
 227 29 l 1
 223 0 l 1
 18 0 l 1
 22 29 l 1
 61 27 l 2
 72 27 79 34 81 49 c 2
 151 548 l 2
 153 560 148 569 137 569 c 2
 98 567 l 1
 102 597 l 1
 307 597 l 1
EndSplineSet
Position2: "'cpsp' Capital Spacing lookup 0 per glyph data 2" dx=5 dy=0 dh=10 dv=0
EndChar
StartChar: Idieresis
Encoding: 207 207 40
Width: 301
GlyphClass: 2
Flags: MW
HStem: 0 27<61 66.5 182.5 188> 569 28<137 142.5 258.5 264> 677 95<123 144 297 318>
VStem: 78 109<714 734.5> 252 109<714 734.5>
LayerCount: 2
Back
Fore
SplineSet
140 772 m 0
 169 772 187 756 187 731 c 0
 187 697 162 677 126 677 c 0
 98 677 78 692 78 718 c 0
 78 751 106 772 140 772 c 0
314 772 m 0
 343 772 361 756 361 731 c 0
 361 697 336 677 300 677 c 0
 272 677 252 692 252 718 c 0
 252 751 280 772 314 772 c 0
307 597 m 1
 303 567 l 1
 264 569 l 2
 253 569 245 561 243 548 c 2
 173 49 l 2
 171 34 177 27 188 27 c 2
 227 29 l 1
 223 0 l 1
 18 0 l 1
 22 29 l 1
 61 27 l 2
 72 27 79 34 81 49 c 2
 151 548 l 2
 153 560 148 569 137 569 c 2
 98 567 l 1
 102 597 l 1
 307 597 l 1
EndSplineSet
Position2: "'cpsp' Capital Spacing lookup 0 per glyph data 2" dx=5 dy=0 dh=10 dv=0
EndChar
StartChar: Eth
Encoding: 208 208 19
Width: 613
GlyphClass: 2
Flags: MW
HStem: 0 28<180 224 224 248> 293 36<56 115 51 120 212 391> 569 28<137 142.5 253 256 256 300>
VStem: 487 101<340.5 442.5>
LayerCount: 2
Back
Fore
SplineSet
320 597 m 2
 497 597 588 531 588 362 c 0
 588 134 481 0 248 0 c 2
 18 0 l 1
 22 29 l 1
 65 27 l 2
 74 27 79 37 81 49 c 2
 115 293 l 1
 51 293 l 1
 56 329 l 1
 120 329 l 1
 151 548 l 2
 153 559 148 569 137 569 c 2
 98 567 l 1
 102 597 l 1
 320 597 l 2
464 202 m 0
 477 250 487 308 487 373 c 0
 487 512 431 569 300 569 c 2
 256 569 l 2
 250 569 245 565 244 556 c 2
 212 329 l 1
 396 329 l 1
 391 293 l 1
 207 293 l 1
 172 41 l 2
 170 32 174 28 180 28 c 2
 224 28 l 2
 380 28 434 91 464 202 c 0
EndSplineSet
Position2: "'cpsp' Capital Spacing lookup 0 per glyph data 2" dx=5 dy=0 dh=10 dv=0
EndChar
StartChar: Ntilde
Encoding: 209 209 59
Width: 641
GlyphClass: 2
Flags: MW
HStem: -6 21G<479 511 479 479> 0 27<56 62 120.5 126> 569 28<132 138 541 546 602 607> 675 49<460.5 480.5> 718 49<303.5 324>
VStem: 245 20<676 676> 519 20<766 766>
AnchorPoint: "Anchor-0" 318 0 basechar 0
LayerCount: 2
Back
Fore
SplineSet
322 767 m 0x6e
 365 767 441 724 480 724 c 0
 499 724 516 742 519 766 c 1
 539 766 l 1
 532 717 499 675 462 675 c 0x76
 418 675 344 718 304 718 c 0
 285 718 269 700 265 676 c 1
 245 676 l 1
 252 725 285 767 322 767 c 0x6e
652 597 m 1
 648 567 l 1
 607 569 l 2
 597 569 591 562 589 548 c 2
 511 -6 l 1
 479 -6 l 1xae
 179 521 l 1
 113 49 l 2
 111 34 115 27 126 27 c 2
 175 29 l 1
 171 0 l 1
 13 0 l 1
 17 29 l 1
 56 27 l 2
 68 27 75 34 77 49 c 2
 147 548 l 2
 149 560 144 569 132 569 c 2
 93 567 l 1
 97 597 l 1
 249 597 l 1
 498 158 l 1
 553 549 l 2
 555 562 551 569 541 569 c 2
 489 567 l 1
 493 597 l 1
 652 597 l 1
EndSplineSet
Position2: "'cpsp' Capital Spacing lookup 0 per glyph data 2" dx=5 dy=0 dh=10 dv=0
EndChar
StartChar: Ograve
Encoding: 210 210 64
Width: 649
GlyphClass: 2
Flags: MW
HStem: -10 27<251.5 346.5> 580 27<325 421>
VStem: 50 98<140 261.5 140 402> 524 99<333 457.5>
LayerCount: 2
Back
Fore
SplineSet
330 826 m 0
 345 826 347 821 359 805 c 2
 441 691 l 2
 446 683 450 677 450 674 c 0
 450 669 445 666 433 666 c 0
 425 666 418 672 415 675 c 2
 276 788 l 2
 273 791 270 794 270 799 c 0
 270 808 305 826 330 826 c 0
50 242 m 0
 50 562 271 607 379 607 c 0
 466 607 623 575 623 356 c 0
 623 36 400 -10 293 -10 c 0
 205 -10 50 25 50 242 c 0
148 215 m 0
 148 65 197 17 306 17 c 0
 388 17 444 60 478 139 c 0
 504 200 524 283 524 383 c 0
 524 532 476 580 366 580 c 0
 280 580 222 532 189 443 c 0
 167 385 148 308 148 215 c 0
EndSplineSet
Position2: "'cpsp' Capital Spacing lookup 0 per glyph data 2" dx=5 dy=0 dh=10 dv=0
EndChar
StartChar: Oacute
Encoding: 211 211 61
Width: 649
GlyphClass: 2
Flags: MW
HStem: -10 27<251.5 346.5> 580 27<325 421>
VStem: 50 98<140 261.5 140 402> 524 99<333 457.5>
LayerCount: 2
Back
Fore
SplineSet
537 800 m 0
 537 795 531 791 527 788 c 2
 356 675 l 2
 352 672 343 666 335 666 c 0
 325 666 321 669 321 673 c 0
 321 678 331 687 341 697 c 2
 448 805 l 2
 463 821 468 826 483 826 c 0
 507 826 537 808 537 800 c 0
50 242 m 0
 50 562 271 607 379 607 c 0
 466 607 623 575 623 356 c 0
 623 36 400 -10 293 -10 c 0
 205 -10 50 25 50 242 c 0
148 215 m 0
 148 65 197 17 306 17 c 0
 388 17 444 60 478 139 c 0
 504 200 524 283 524 383 c 0
 524 532 476 580 366 580 c 0
 280 580 222 532 189 443 c 0
 167 385 148 308 148 215 c 0
EndSplineSet
Position2: "'cpsp' Capital Spacing lookup 0 per glyph data 2" dx=5 dy=0 dh=10 dv=0
EndChar
StartChar: Ocircumflex
Encoding: 212 212 62
Width: 649
GlyphClass: 2
Flags: MW
HStem: -10 27<251.5 346.5> 580 27<325 421>
VStem: 50 98<140 261.5 140 402> 524 99<333 457.5>
LayerCount: 2
Back
Fore
SplineSet
249 666 m 0
 240 666 238 670 238 673 c 0
 238 681 278 705 324 749 c 2
 374 797 l 2
 390 812 403 822 408 822 c 0
 411 822 422 813 434 797 c 2
 470 749 l 2
 504 703 535 682 535 674 c 0
 535 672 533 666 522 666 c 0
 515 666 502 673 495 678 c 2
 398 751 l 1
 278 678 l 2
 269 673 257 666 249 666 c 0
50 242 m 0
 50 562 271 607 379 607 c 0
 466 607 623 575 623 356 c 0
 623 36 400 -10 293 -10 c 0
 205 -10 50 25 50 242 c 0
148 215 m 0
 148 65 197 17 306 17 c 0
 388 17 444 60 478 139 c 0
 504 200 524 283 524 383 c 0
 524 532 476 580 366 580 c 0
 280 580 222 532 189 443 c 0
 167 385 148 308 148 215 c 0
EndSplineSet
Position2: "'cpsp' Capital Spacing lookup 0 per glyph data 2" dx=5 dy=0 dh=10 dv=0
EndChar
StartChar: Otilde
Encoding: 213 213 68
Width: 649
GlyphClass: 2
Flags: MW
HStem: -10 27<251.5 346.5> 580 27<325 421> 675 49<460.5 480.5> 718 49<303.5 324>
VStem: 50 98<140 261.5 140 402> 245 20<676 676> 519 20<766 766> 524 99<333 457.5>
LayerCount: 2
Back
Fore
SplineSet
322 767 m 0xdd
 365 767 441 724 480 724 c 0
 499 724 516 742 519 766 c 1
 539 766 l 1
 532 717 499 675 462 675 c 0xee
 418 675 344 718 304 718 c 0
 285 718 269 700 265 676 c 1
 245 676 l 1
 252 725 285 767 322 767 c 0xdd
50 242 m 0
 50 562 271 607 379 607 c 0
 466 607 623 575 623 356 c 0
 623 36 400 -10 293 -10 c 0
 205 -10 50 25 50 242 c 0
148 215 m 0
 148 65 197 17 306 17 c 0
 388 17 444 60 478 139 c 0
 504 200 524 283 524 383 c 0
 524 532 476 580 366 580 c 0
 280 580 222 532 189 443 c 0
 167 385 148 308 148 215 c 0
EndSplineSet
Position2: "'cpsp' Capital Spacing lookup 0 per glyph data 2" dx=5 dy=0 dh=10 dv=0
EndChar
StartChar: Odieresis
Encoding: 214 214 63
Width: 649
GlyphClass: 2
Flags: MW
HStem: -10 27<251.5 346.5> 580 27<325 421> 677 95<298 319 472 493>
VStem: 50 98<140 261.5 140 402> 253 109<714 734.5> 427 109<714 734.5> 524 99<333 457.5>
LayerCount: 2
Back
Fore
SplineSet
315 772 m 0xfa
 344 772 362 756 362 731 c 0
 362 697 337 677 301 677 c 0
 273 677 253 692 253 718 c 0
 253 751 281 772 315 772 c 0xfa
489 772 m 0xfc
 518 772 536 756 536 731 c 0
 536 697 511 677 475 677 c 0
 447 677 427 692 427 718 c 0
 427 751 455 772 489 772 c 0xfc
50 242 m 0
 50 562 271 607 379 607 c 0
 466 607 623 575 623 356 c 0xfa
 623 36 400 -10 293 -10 c 0
 205 -10 50 25 50 242 c 0
148 215 m 0
 148 65 197 17 306 17 c 0
 388 17 444 60 478 139 c 0
 504 200 524 283 524 383 c 0xfa
 524 532 476 580 366 580 c 0
 280 580 222 532 189 443 c 0
 167 385 148 308 148 215 c 0
EndSplineSet
Position2: "'cpsp' Capital Spacing lookup 0 per glyph data 2" dx=5 dy=0 dh=10 dv=0
EndChar
StartChar: multiply
Encoding: 215 215 327
Width: 445
Flags: MW
HStem: 102 333<340 385>
VStem: 51 359<132 405>
LayerCount: 2
Back
Fore
SplineSet
385 435 m 1
 410 405 l 1
 260 269 l 1
 372 131 l 1
 340 102 l 1
 227 239 l 1
 77 103 l 1
 51 132 l 1
 202 269 l 1
 91 404 l 1
 124 434 l 1
 234 298 l 1
 385 435 l 1
EndSplineSet
EndChar
StartChar: Oslash
Encoding: 216 216 67
Width: 644
GlyphClass: 2
Flags: MW
HStem: -10 27<279 346.5> 580 27<325 392>
VStem: 50 98<191.5 261.5 189.5 402> 524 99<333 407.5 196 409.5>
LayerCount: 2
Back
Fore
SplineSet
542 557 m 1
 588 521 623 459 623 356 c 0
 623 36 400 -10 293 -10 c 0
 255 -10 206 -4 161 21 c 1
 81 -92 l 1
 46 -74 l 1
 128 42 l 1
 84 79 50 141 50 242 c 0
 50 562 271 607 379 607 c 0
 415 607 464 601 508 579 c 1
 584 687 l 1
 619 666 l 1
 542 557 l 1
148 215 m 0
 148 164 154 125 166 95 c 1
 482 542 l 1
 456 569 418 580 366 580 c 0
 280 580 222 532 189 443 c 0
 167 385 148 308 148 215 c 0
478 139 m 0
 504 200 524 283 524 383 c 0
 524 436 518 476 505 506 c 1
 188 58 l 1
 213 29 252 17 306 17 c 0
 388 17 444 60 478 139 c 0
EndSplineSet
Position2: "'cpsp' Capital Spacing lookup 0 per glyph data 2" dx=5 dy=0 dh=10 dv=0
EndChar
StartChar: Ugrave
Encoding: 217 217 90
Width: 631
GlyphClass: 2
Flags: MW
HStem: -10 36<270.5 375.5> 569 28<123 127.5 244.5 250 548 553 613 618>
VStem: 84.41 92.78
LayerCount: 2
Back
Fore
SplineSet
330 826 m 0
 345 826 347 821 359 805 c 2
 441 691 l 2
 446 683 450 677 450 674 c 0
 450 669 445 666 433 666 c 0
 425 666 418 672 415 675 c 2
 276 788 l 2
 273 791 270 794 270 799 c 0
 270 808 305 826 330 826 c 0
661 597 m 1
 657 567 l 1
 618 569 l 2
 608 569 601 562 599 549 c 2
 548 189 l 2
 529 54 448 -10 303 -10 c 0
 147 -10 68 62 87 199 c 2
 136 548 l 2
 138 560 132 569 123 569 c 2
 84 567 l 1
 88 597 l 1
 303 597 l 1
 299 567 l 1
 250 569 l 2
 239 569 231 562 229 549 c 2
 180 199 l 1
 164 92 217 26 324 26 c 0
 438 26 495 82 512 198 c 2
 561 548 l 2
 563 561 558 569 548 569 c 2
 499 567 l 1
 503 597 l 1
 661 597 l 1
EndSplineSet
Position2: "'cpsp' Capital Spacing lookup 0 per glyph data 2" dx=5 dy=0 dh=10 dv=0
EndChar
StartChar: Uacute
Encoding: 218 218 87
Width: 631
GlyphClass: 2
Flags: MW
HStem: -10 36<270.5 375.5> 569 28<123 127.5 244.5 250 548 553 613 618>
VStem: 84.41 92.78
LayerCount: 2
Back
Fore
SplineSet
537 800 m 0
 537 795 531 791 527 788 c 2
 356 675 l 2
 352 672 343 666 335 666 c 0
 325 666 321 669 321 673 c 0
 321 678 331 687 341 697 c 2
 448 805 l 2
 463 821 468 826 483 826 c 0
 507 826 537 808 537 800 c 0
661 597 m 1
 657 567 l 1
 618 569 l 2
 608 569 601 562 599 549 c 2
 548 189 l 2
 529 54 448 -10 303 -10 c 0
 147 -10 68 62 87 199 c 2
 136 548 l 2
 138 560 132 569 123 569 c 2
 84 567 l 1
 88 597 l 1
 303 597 l 1
 299 567 l 1
 250 569 l 2
 239 569 231 562 229 549 c 2
 180 199 l 1
 164 92 217 26 324 26 c 0
 438 26 495 82 512 198 c 2
 561 548 l 2
 563 561 558 569 548 569 c 2
 499 567 l 1
 503 597 l 1
 661 597 l 1
EndSplineSet
Position2: "'cpsp' Capital Spacing lookup 0 per glyph data 2" dx=5 dy=0 dh=10 dv=0
EndChar
StartChar: Udieresis
Encoding: 220 220 89
Width: 631
GlyphClass: 2
Flags: MW
HStem: -10 36<270.5 375.5> 569 28<123 127.5 244.5 250 548 553 613 618> 677 95<298 319 472 493>
VStem: 84.41 92.78 253 109<714 734.5> 427 109<714 734.5>
LayerCount: 2
Back
Fore
SplineSet
315 772 m 0
 344 772 362 756 362 731 c 0
 362 697 337 677 301 677 c 0
 273 677 253 692 253 718 c 0
 253 751 281 772 315 772 c 0
489 772 m 0
 518 772 536 756 536 731 c 0
 536 697 511 677 475 677 c 0
 447 677 427 692 427 718 c 0
 427 751 455 772 489 772 c 0
661 597 m 1
 657 567 l 1
 618 569 l 2
 608 569 601 562 599 549 c 2
 548 189 l 2
 529 54 448 -10 303 -10 c 0
 147 -10 68 62 87 199 c 2
 136 548 l 2
 138 560 132 569 123 569 c 2
 84 567 l 1
 88 597 l 1
 303 597 l 1
 299 567 l 1
 250 569 l 2
 239 569 231 562 229 549 c 2
 180 199 l 1
 164 92 217 26 324 26 c 0
 438 26 495 82 512 198 c 2
 561 548 l 2
 563 561 558 569 548 569 c 2
 499 567 l 1
 503 597 l 1
 661 597 l 1
EndSplineSet
Position2: "'cpsp' Capital Spacing lookup 0 per glyph data 2" dx=5 dy=0 dh=10 dv=0
EndChar
StartChar: Yacute
Encoding: 221 221 103
Width: 491
GlyphClass: 2
Flags: MW
HStem: 0 27<169 174.5 289.5 296> 569 28<73 77.5 201 208 453 458 516.5 521>
VStem: 45 510<567 597> 460.12 92.88
LayerCount: 2
Back
Fore
SplineSet
266 666 m 0xe0
 256 666 252 669 252 673 c 0
 252 678 262 687 272 697 c 2
 379 805 l 2
 394 821 399 826 414 826 c 0
 438 826 468 808 468 800 c 0
 468 795 462 791 458 788 c 2
 287 675 l 2
 283 672 274 666 266 666 c 0xe0
406 597 m 1xd0
 555 597 l 1
 551 567 l 1
 521 569 l 2
 512 569 501 561 492 548 c 2
 315 288 l 1
 281 48 l 2
 279 36 283 27 296 27 c 2
 344 29 l 1
 340 0 l 1
 116 0 l 1
 120 29 l 1
 169 27 l 2
 180 27 187 34 189 49 c 2
 219 263 l 1
 92 550 l 2
 86 563 82 569 73 569 c 2
 45 567 l 1
 49 597 l 1
 265 597 l 1
 261 567 l 1
 208 569 l 2
 194 569 197 553 200 545 c 2
 299 319 l 1
 456 549 l 2
 461 556 463 569 453 569 c 2
 402 567 l 1
 406 597 l 1xd0
EndSplineSet
Position2: "'cpsp' Capital Spacing lookup 0 per glyph data 2" dx=5 dy=0 dh=10 dv=0
EndChar
StartChar: Thorn
Encoding: 222 222 71
Width: 508
GlyphClass: 2
Flags: MW
HStem: 0 27<61 67> 162 26<204 270 270 288 190 270> 471 25<237 295 233 314> 569 28<137 143 259 264>
VStem: 398 96<310.5 391>
LayerCount: 2
Back
Fore
SplineSet
317 597 m 1
 313 567 l 1
 264 569 l 2
 254 569 246 559 244 548 c 2
 237 496 l 1
 314 496 l 2
 436 496 494 454 494 362 c 0
 494 243 414 162 288 162 c 2
 190 162 l 1
 174 49 l 2
 172 36 175 26 188 27 c 2
 237 29 l 1
 233 0 l 1
 18 0 l 1
 22 29 l 1
 61 27 l 2
 73 27 79 35 81 49 c 2
 151 548 l 2
 153 559 149 569 137 569 c 2
 98 567 l 1
 102 597 l 1
 317 597 l 1
295 471 m 2
 233 471 l 1
 195 201 l 2
 194 194 198 188 204 188 c 2
 270 188 l 2
 333 188 398 264 398 357 c 0
 398 425 361 471 295 471 c 2
EndSplineSet
Position2: "'cpsp' Capital Spacing lookup 0 per glyph data 2" dx=5 dy=0 dh=10 dv=0
EndChar
StartChar: germandbls
Encoding: 223 223 193
Width: 558
GlyphClass: 2
Flags: MW
HStem: -245 27<-38.5 2.5 -38.5 26.5> -10 27<338 385.5 338 398.5> 703 27<325.5 377.5>
VStem: -136 82<-168 -167.5> 225 73<55.5 67.5 45.5 93> 270 76<376.5 442> 428 74<600.5 650.5> 445 77<95.5 165>
LayerCount: 2
Back
Fore
SplineSet
121 440 m 2xf5
 139 601 222 730 365 730 c 0
 450 730 502 684 502 624 c 0xf6
 502 566 454 538 411 510 c 0
 377 487 346 463 346 424 c 0xf5
 346 329 522 289 522 144 c 0
 522 47 444 -10 353 -10 c 0
 275 -10 225 31 225 80 c 0
 225 106 240 137 279 137 c 0
 298 137 311 130 311 111 c 0
 311 91 298 78 298 57 c 0xf9
 298 34 314 17 362 17 c 0
 409 17 445 33 445 96 c 0xf5
 445 234 270 265 270 400 c 0
 270 484 338 498 384 534 c 0
 409 553 428 578 428 623 c 0
 428 678 399 703 356 703 c 0xf6
 295 703 231 653 209 454 c 2
 170 102 l 2
 148 -94 90 -245 -37 -245 c 0
 -89 -245 -136 -219 -136 -178 c 0
 -136 -157 -123 -134 -91 -134 c 0
 -73 -134 -54 -141 -54 -162 c 0
 -54 -174 -60 -182 -60 -193 c 0
 -60 -209 -48 -218 -29 -218 c 0
 34 -218 58 -123 80 72 c 2
 121 440 l 2xf5
EndSplineSet
EndChar
StartChar: agrave
Encoding: 224 224 116
Width: 466
GlyphClass: 2
Flags: MW
HStem: -10 55<145 151.5> 400 30<238.5 291 209 295.5>
VStem: 28 89<97 140 97 182> 294 83<20.5 102>
LayerCount: 2
Back
Fore
SplineSet
313 502 m 2
 174 615 l 2
 171 618 168 621 168 626 c 0
 168 635 203 653 228 653 c 0
 243 653 245 648 257 632 c 2
 339 518 l 2
 344 510 348 504 348 501 c 0
 348 496 343 493 331 493 c 0
 323 493 316 499 313 502 c 2
390 67 m 0
 398 67 411 69 428 80 c 1
 440 60 l 1
 396 7 346 -10 318 -10 c 0
 299 -10 294 5 294 36 c 0
 294 65 304 123 315 187 c 1
 238 41 183 -10 120 -10 c 0
 61 -10 28 36 28 112 c 0
 28 252 143 430 275 430 c 0
 307 430 336 415 353 393 c 1
 359 415 l 1
 443 429 l 1
 419 330 l 1
 397 230 377 120 377 84 c 0
 377 73 381 67 390 67 c 0
156 45 m 0
 217 45 340 244 340 346 c 0
 340 376 314 400 277 400 c 0
 200 400 152 320 131 232 c 1
 121 195 117 157 117 123 c 0
 117 71 134 45 156 45 c 0
EndSplineSet
EndChar
StartChar: atilde
Encoding: 227 227 120
Width: 466
GlyphClass: 2
Flags: MW
HStem: -10 55<145 151.5> 400 30<238.5 291 209 295.5> 529 49<361.5 381.5> 572 49<204.5 225>
VStem: 28 89<97 140 97 182> 146 20<530 530> 294 83<20.5 102> 420 20<620 620>
LayerCount: 2
Back
Fore
SplineSet
205 572 m 0xdf
 186 572 170 554 166 530 c 1
 146 530 l 1
 153 579 186 621 223 621 c 0xdf
 266 621 342 578 381 578 c 0
 400 578 417 596 420 620 c 1
 440 620 l 1
 433 571 400 529 363 529 c 0xeb
 319 529 245 572 205 572 c 0xdf
390 67 m 0xdb
 398 67 411 69 428 80 c 1
 440 60 l 1
 396 7 346 -10 318 -10 c 0
 299 -10 294 5 294 36 c 0
 294 65 304 123 315 187 c 1
 238 41 183 -10 120 -10 c 0
 61 -10 28 36 28 112 c 0
 28 252 143 430 275 430 c 0
 307 430 336 415 353 393 c 1
 359 415 l 1
 443 429 l 1
 419 330 l 1
 397 230 377 120 377 84 c 0
 377 73 381 67 390 67 c 0xdb
156 45 m 0
 217 45 340 244 340 346 c 0
 340 376 314 400 277 400 c 0
 200 400 152 320 131 232 c 1
 121 195 117 157 117 123 c 0
 117 71 134 45 156 45 c 0
EndSplineSet
EndChar
StartChar: adieresis
Encoding: 228 228 115
Width: 466
GlyphClass: 2
Flags: MW
HStem: -10 55<145 151.5> 400 30<238.5 291 209 295.5> 548 95<199 220 373 394>
VStem: 28 89<97 140 97 182> 154 109<585 605.5> 294 83<20.5 102> 328 109<585 605.5>
LayerCount: 2
Back
Fore
SplineSet
202 548 m 0xfa
 174 548 154 563 154 589 c 0
 154 622 182 643 216 643 c 0
 245 643 263 627 263 602 c 0
 263 568 238 548 202 548 c 0xfa
376 548 m 0
 348 548 328 563 328 589 c 0
 328 622 356 643 390 643 c 0
 419 643 437 627 437 602 c 0
 437 568 412 548 376 548 c 0
390 67 m 0xfc
 398 67 411 69 428 80 c 1
 440 60 l 1
 396 7 346 -10 318 -10 c 0
 299 -10 294 5 294 36 c 0
 294 65 304 123 315 187 c 1
 238 41 183 -10 120 -10 c 0
 61 -10 28 36 28 112 c 0
 28 252 143 430 275 430 c 0
 307 430 336 415 353 393 c 1
 359 415 l 1
 443 429 l 1
 419 330 l 1
 397 230 377 120 377 84 c 0
 377 73 381 67 390 67 c 0xfc
156 45 m 0
 217 45 340 244 340 346 c 0
 340 376 314 400 277 400 c 0
 200 400 152 320 131 232 c 1
 121 195 117 157 117 123 c 0
 117 71 134 45 156 45 c 0
EndSplineSet
EndChar
StartChar: aring
Encoding: 229 229 119
Width: 466
GlyphClass: 2
Flags: MW
HStem: -10 55<145 151.5> 400 30<238.5 291 209 295.5> 493 36<278 300.5 278 310> 620 36<288.5 311.5>
VStem: 28 89<97 140 97 182> 214 45<557.5 582.5 557.5 591> 294 83<20.5 102> 331 46<567.5 592>
LayerCount: 2
Back
Fore
SplineSet
283 493 m 0xfd
 239 493 214 521 214 565 c 0
 214 617 257 656 306 656 c 0
 351 656 377 629 377 585 c 0
 377 531 337 493 283 493 c 0xfd
301 620 m 0
 276 620 259 596 259 569 c 0
 259 546 268 529 288 529 c 0
 313 529 331 554 331 581 c 0
 331 603 322 620 301 620 c 0
390 67 m 0xfe
 398 67 411 69 428 80 c 1
 440 60 l 1
 396 7 346 -10 318 -10 c 0
 299 -10 294 5 294 36 c 0
 294 65 304 123 315 187 c 1
 238 41 183 -10 120 -10 c 0
 61 -10 28 36 28 112 c 0
 28 252 143 430 275 430 c 0
 307 430 336 415 353 393 c 1
 359 415 l 1
 443 429 l 1
 419 330 l 1
 397 230 377 120 377 84 c 0
 377 73 381 67 390 67 c 0xfe
156 45 m 0
 217 45 340 244 340 346 c 0
 340 376 314 400 277 400 c 0
 200 400 152 320 131 232 c 1
 121 195 117 157 117 123 c 0
 117 71 134 45 156 45 c 0
EndSplineSet
EndChar
StartChar: ae
Encoding: 230 230 121
Width: 643
GlyphClass: 2
Flags: MW
HStem: -10 55<127.5 137> -9 54<414 443.5> 181 32 380 30<327 380 380 382> 400 30<492.5 526>
VStem: 13 89<100 135 100 175.5> 271 88 563 71<306.5 353.5>
AnchorPoint: "Anchor-0" 393 0 basechar 0
LayerCount: 2
Back
Fore
SplineSet
634 332 m 0x6f
 634 266 560 195 360 181 c 1
 359 172 359 163 359 154 c 0
 359 86 392 45 436 45 c 0
 471 45 516 67 568 100 c 1
 590 84 l 1
 541 33 476 -9 411 -9 c 0x6f
 335 -9 278 45 271 130 c 1
 217 31 168 -10 106 -10 c 0
 46 -10 13 40 13 103 c 0
 13 248 188 410 376 410 c 0xb7
 393 410 408 409 420 406 c 1
 447 421 477 430 508 430 c 0
 582 430 634 385 634 332 c 0x6f
563 338 m 0
 563 369 546 400 506 400 c 0
 458 400 422 366 397 319 c 0
 381 287 369 250 364 213 c 1
 495 223 563 275 563 338 c 0
274 191 m 1
 286 264 327 334 382 380 c 1
 380 380 l 2x77
 274 380 200 325 155 261 c 0
 119 211 102 155 102 115 c 0
 102 85 114 45 141 45 c 0
 185 45 240 114 274 191 c 1
EndSplineSet
EndChar
StartChar: ccedilla
Encoding: 231 231 126
Width: 406
GlyphClass: 2
Flags: MW
HStem: -214 27<121.5 123.5 101.5 163.5> -9 54<158 212> 400 30<236.5 278>
VStem: 26 89<124 184.5 124 218> 111 49<-68.5 -64> 166 68<-143.5 -122.5> 316 71<346 363 323.5 372>
AnchorPoint: "Anchor-0" 172 0 basechar 0
LayerCount: 2
Back
Fore
SplineSet
332 278 m 0xf6
 313 278 300 285 300 304 c 0
 300 325 316 334 316 358 c 0
 316 386 293 400 263 400 c 0
 210 400 174 358 149 307 c 0
 128 264 115 211 115 158 c 0
 115 90 143 45 192 45 c 0xf6
 232 45 282 74 324 100 c 1
 346 84 l 1
 303 40 248 2 195 -7 c 1
 169 -43 l 2
 163 -51 160 -59 160 -63 c 0xea
 160 -85 234 -73 234 -117 c 0
 234 -170 197 -214 130 -214 c 0
 113 -214 85 -213 64 -198 c 1
 76 -171 l 1
 83 -182 95 -187 108 -187 c 0
 139 -187 166 -161 166 -130 c 0
 166 -115 153 -103 141 -94 c 2xf6
 121 -80 l 2
 115 -76 111 -71 111 -66 c 0
 111 -62 113 -58 120 -52 c 1xea
 158 -9 l 1
 75 -3 26 59 26 145 c 0
 26 291 141 430 265 430 c 0
 334 430 387 389 387 337 c 0
 387 310 372 278 332 278 c 0xf6
EndSplineSet
EndChar
StartChar: egrave
Encoding: 232 232 137
Width: 399
GlyphClass: 2
Flags: MW
HStem: -9 54<170 199.5> 181 32 400 30<238 282>
VStem: 26 89<120 158.5 120 214.5> 319 71<306.5 353.5>
AnchorPoint: "Anchor-0" 149 0 basechar 0
LayerCount: 2
Back
Fore
SplineSet
278 502 m 2
 139 615 l 2
 136 618 133 621 133 626 c 0
 133 635 168 653 193 653 c 0
 208 653 210 648 222 632 c 2
 304 518 l 2
 309 510 313 504 313 501 c 0
 313 496 308 493 296 493 c 0
 288 493 281 499 278 502 c 2
390 332 m 0
 390 266 316 195 116 181 c 1
 115 172 115 163 115 154 c 0
 115 86 148 45 192 45 c 0
 227 45 272 67 324 100 c 1
 346 84 l 1
 297 33 232 -9 167 -9 c 0
 86 -9 26 53 26 147 c 0
 26 282 138 430 264 430 c 0
 338 430 390 385 390 332 c 0
262 400 m 0
 214 400 178 366 153 319 c 0
 137 287 125 250 120 213 c 1
 251 223 319 275 319 338 c 0
 319 369 302 400 262 400 c 0
EndSplineSet
EndChar
StartChar: eacute
Encoding: 233 233 132
Width: 399
GlyphClass: 2
Flags: MW
HStem: -9 54<170 199.5> 181 32 400 30<238 282>
VStem: 26 89<120 158.5 120 214.5> 319 71<306.5 353.5>
AnchorPoint: "Anchor-0" 149 0 basechar 0
LayerCount: 2
Back
Fore
SplineSet
344 653 m 0
 368 653 398 635 398 627 c 0
 398 622 392 618 388 615 c 2
 217 502 l 2
 213 499 204 493 196 493 c 0
 186 493 182 496 182 500 c 0
 182 505 192 514 202 524 c 2
 309 632 l 2
 324 648 329 653 344 653 c 0
264 430 m 0
 338 430 390 385 390 332 c 0
 390 266 316 195 116 181 c 1
 115 172 115 163 115 154 c 0
 115 86 148 45 192 45 c 0
 227 45 272 67 324 100 c 1
 346 84 l 1
 297 33 232 -9 167 -9 c 0
 86 -9 26 53 26 147 c 0
 26 282 138 430 264 430 c 0
120 213 m 1
 251 223 319 275 319 338 c 0
 319 369 302 400 262 400 c 0
 214 400 178 366 153 319 c 0
 137 287 125 250 120 213 c 1
EndSplineSet
EndChar
StartChar: ecircumflex
Encoding: 234 234 134
Width: 399
GlyphClass: 2
Flags: MW
HStem: -9 54<170 199.5> 181 32 400 30<238 282>
VStem: 26 89<120 158.5 120 214.5> 319 71<306.5 353.5>
AnchorPoint: "Anchor-0" 149 0 basechar 0
LayerCount: 2
Back
Fore
SplineSet
331 576 m 2
 365 530 396 509 396 501 c 0
 396 499 394 493 383 493 c 0
 376 493 363 500 356 505 c 2
 259 578 l 1
 139 505 l 2
 130 500 118 493 110 493 c 0
 101 493 99 497 99 500 c 0
 99 508 139 532 185 576 c 2
 235 624 l 2
 251 639 264 649 269 649 c 0
 272 649 283 640 295 624 c 2
 331 576 l 2
264 430 m 0
 338 430 390 385 390 332 c 0
 390 266 316 195 116 181 c 1
 115 172 115 163 115 154 c 0
 115 86 148 45 192 45 c 0
 227 45 272 67 324 100 c 1
 346 84 l 1
 297 33 232 -9 167 -9 c 0
 86 -9 26 53 26 147 c 0
 26 282 138 430 264 430 c 0
120 213 m 1
 251 223 319 275 319 338 c 0
 319 369 302 400 262 400 c 0
 214 400 178 366 153 319 c 0
 137 287 125 250 120 213 c 1
EndSplineSet
EndChar
StartChar: igrave
Encoding: 236 236 151
Width: 256
GlyphClass: 2
Flags: MW
HStem: -10 21G<90.5 116.5> 406 20G<148 173.5>
VStem: 64 84<20.5 106> 103 93<336 413.5>
LayerCount: 2
Back
Fore
SplineSet
110 653 m 0xe0
 125 653 127 648 139 632 c 2
 221 518 l 2
 226 510 230 504 230 501 c 0
 230 496 225 493 213 493 c 0
 205 493 198 499 195 502 c 2
 56 615 l 2
 53 618 50 621 50 626 c 0
 50 635 85 653 110 653 c 0xe0
213 60 m 1
 171 16 131 -10 102 -10 c 0
 79 -10 64 5 64 36 c 0xe0
 64 68 79 146 90 223 c 0
 99 283 103 325 103 347 c 0
 103 367 86 373 72 373 c 0
 67 373 60 372 56 371 c 1
 51 400 l 1
 90 416 131 426 165 426 c 0
 182 426 196 423 196 404 c 0xd0
 196 392 178 310 164 230 c 0
 154 173 148 118 148 94 c 0
 148 83 149 67 165 67 c 0
 170 67 184 69 201 80 c 1
 213 60 l 1
EndSplineSet
EndChar
StartChar: iacute
Encoding: 237 237 147
Width: 256
GlyphClass: 2
Flags: MW
HStem: -10 21G<90.5 116.5> 406 20G<148 173.5>
VStem: 64 84<20.5 106> 103 93<336 413.5>
LayerCount: 2
Back
Fore
SplineSet
315 627 m 0xe0
 315 622 309 618 305 615 c 2
 134 502 l 2
 130 499 121 493 113 493 c 0
 103 493 99 496 99 500 c 0
 99 505 109 514 119 524 c 2
 226 632 l 2
 241 648 246 653 261 653 c 0
 285 653 315 635 315 627 c 0xe0
213 60 m 1
 171 16 131 -10 102 -10 c 0
 79 -10 64 5 64 36 c 0xe0
 64 68 79 146 90 223 c 0
 99 283 103 325 103 347 c 0
 103 367 86 373 72 373 c 0
 67 373 60 372 56 371 c 1
 51 400 l 1
 90 416 131 426 165 426 c 0
 182 426 196 423 196 404 c 0xd0
 196 392 178 310 164 230 c 0
 154 173 148 118 148 94 c 0
 148 83 149 67 165 67 c 0
 170 67 184 69 201 80 c 1
 213 60 l 1
EndSplineSet
EndChar
StartChar: icircumflex
Encoding: 238 238 148
Width: 256
GlyphClass: 2
Flags: MW
HStem: -10 21G<90.5 116.5> 406 20G<148 173.5>
VStem: 64 84<20.5 106> 103 93<336 413.5>
LayerCount: 2
Back
Fore
SplineSet
187 659 m 0xe0
 190 659 196 653 201 644 c 2
 280 521 l 2
 288 509 293 501 293 500 c 0
 293 496 287 493 282 493 c 0
 273 493 262 499 255 506 c 2
 176 583 l 1
 75 506 l 2
 66 499 53 493 44 493 c 0
 40 493 35 496 35 499 c 0
 35 501 42 509 53 521 c 2
 169 644 l 1
 176 653 184 659 187 659 c 0xe0
213 60 m 1
 171 16 131 -10 102 -10 c 0
 79 -10 64 5 64 36 c 0xe0
 64 68 79 146 90 223 c 0
 99 283 103 325 103 347 c 0
 103 367 86 373 72 373 c 0
 67 373 60 372 56 371 c 1
 51 400 l 1
 90 416 131 426 165 426 c 0
 182 426 196 423 196 404 c 0xd0
 196 392 178 310 164 230 c 0
 154 173 148 118 148 94 c 0
 148 83 149 67 165 67 c 0
 170 67 184 69 201 80 c 1
 213 60 l 1
EndSplineSet
EndChar
StartChar: idieresis
Encoding: 239 239 149
Width: 256
GlyphClass: 2
Flags: MW
HStem: -10 21G<90.5 116.5> 406 20G<148 173.5> 548 95<81 102 255 276>
VStem: 36 109<585 605.5> 64 84<20.5 106> 103 93<336 413.5> 210 109<585 605.5>
LayerCount: 2
Back
Fore
SplineSet
98 643 m 0xf2
 127 643 145 627 145 602 c 0
 145 568 120 548 84 548 c 0
 56 548 36 563 36 589 c 0
 36 622 64 643 98 643 c 0xf2
272 643 m 0
 301 643 319 627 319 602 c 0
 319 568 294 548 258 548 c 0
 230 548 210 563 210 589 c 0
 210 622 238 643 272 643 c 0
213 60 m 1xea
 171 16 131 -10 102 -10 c 0
 79 -10 64 5 64 36 c 0xea
 64 68 79 146 90 223 c 0
 99 283 103 325 103 347 c 0
 103 367 86 373 72 373 c 0
 67 373 60 372 56 371 c 1
 51 400 l 1
 90 416 131 426 165 426 c 0
 182 426 196 423 196 404 c 0xe6
 196 392 178 310 164 230 c 0
 154 173 148 118 148 94 c 0
 148 83 149 67 165 67 c 0
 170 67 184 69 201 80 c 1
 213 60 l 1xea
EndSplineSet
EndChar
StartChar: eth
Encoding: 240 240 128
Width: 449
GlyphClass: 2
Flags: MW
HStem: -10 32<169.5 213.5 169.5 245> 402 28<251 263 251 281> 585 22<136 179.5>
VStem: 28 88<112.5 175 107 235> 334 88<248.5 319>
LayerCount: 2
Back
Fore
SplineSet
310 546 m 1
 382 486 422 387 422 269 c 0
 422 112 315 -10 175 -10 c 0
 61 -10 28 74 28 151 c 0
 28 319 150 431 251 430 c 0
 275 430 297 424 317 411 c 1
 305 455 282 495 256 517 c 1
 145 456 l 1
 134 483 l 1
 235 538 l 1
 197 569 166 585 136 585 c 1
 158 607 l 1
 201 607 248 592 286 566 c 1
 386 621 l 1
 396 594 l 1
 310 546 l 1
300 119 m 0
 321 164 334 221 334 276 c 0
 334 362 303 402 259 402 c 0
 214 402 174 359 148 300 c 0
 128 255 116 201 116 149 c 0
 116 65 147 22 192 22 c 0
 235 22 274 62 300 119 c 0
EndSplineSet
EndChar
StartChar: ntilde
Encoding: 241 241 170
Width: 504
GlyphClass: 2
Flags: MW
HStem: -10 21G<344 367.5> 0 21G<51 129 51 51> 373 53 375 55<315 339.5> 406 20G<132.5 160> 529 49<366.5 386.5> 572 49<209.5 230>
VStem: 98 90<309.5 415> 151 20<530 530> 321 82<21 108> 369 82<308 339.5> 425 20<620 620>
AnchorPoint: "Anchor-0" 217 0 basechar 0
LayerCount: 2
Back
Fore
SplineSet
210 572 m 0x52a0
 191 572 175 554 171 530 c 1
 151 530 l 1
 158 579 191 621 228 621 c 0x52a0
 271 621 347 578 386 578 c 0
 405 578 422 596 425 620 c 1
 445 620 l 1
 438 571 405 529 368 529 c 0x5490
 324 529 250 572 210 572 c 0x52a0
459 80 m 1x52c0
 471 60 l 1
 429 16 382 -10 353 -10 c 0
 335 -10 321 7 321 35 c 0x92c0
 321 90 369 256 369 324 c 0
 369 355 353 375 326 375 c 0x5320
 264 375 173 229 143 114 c 1
 129 0 l 1
 51 0 l 1
 68 103 98 278 98 341 c 0
 98 361 89 373 69 373 c 0
 64 373 57 372 53 371 c 1x6320
 48 400 l 1
 79 413 114 426 151 426 c 0
 169 426 188 423 188 407 c 0x4b20
 188 389 169 292 158 222 c 1
 198 318 268 430 362 430 c 0
 417 430 451 393 451 340 c 0x5320
 451 276 403 126 403 90 c 0
 403 83 405 67 422 67 c 0
 428 67 442 69 459 80 c 1x52c0
EndSplineSet
EndChar
StartChar: ocircumflex
Encoding: 244 244 173
Width: 451
GlyphClass: 2
Flags: MW
HStem: -10 32<168.5 222 168.5 253.5> 398 32<230.5 282.5>
VStem: 28 88<109.5 170 106.5 226.5> 335 88<252.5 310.5 193.5 313.5>
LayerCount: 2
Back
Fore
SplineSet
145 493 m 0
 136 493 134 497 134 500 c 0
 134 508 174 532 220 576 c 2
 270 624 l 2
 286 639 299 649 304 649 c 0
 307 649 318 640 330 624 c 2
 366 576 l 2
 400 530 431 509 431 501 c 0
 431 499 429 493 418 493 c 0
 411 493 398 500 391 505 c 2
 294 578 l 1
 174 505 l 2
 165 500 153 493 145 493 c 0
272 430 m 0
 382 430 423 357 423 264 c 0
 423 123 328 -10 179 -10 c 0
 69 -10 28 63 28 156 c 0
 28 297 123 430 272 430 c 0
258 398 m 0
 203 398 162 345 140 285 c 0
 124 241 116 192 116 148 c 0
 116 65 144 22 193 22 c 0
 251 22 295 81 317 152 c 0
 329 191 335 233 335 272 c 0
 335 355 307 398 258 398 c 0
EndSplineSet
EndChar
StartChar: otilde
Encoding: 245 245 179
Width: 451
GlyphClass: 2
Flags: MW
HStem: -10 32<168.5 222 168.5 253.5> 398 32<230.5 282.5> 529 49<361.5 381.5> 572 49<204.5 225>
VStem: 28 88<109.5 170 106.5 226.5> 146 20<530 530> 335 88<252.5 310.5 193.5 313.5> 420 20<620 620>
LayerCount: 2
Back
Fore
SplineSet
223 621 m 0xde
 266 621 342 578 381 578 c 0
 400 578 417 596 420 620 c 1
 440 620 l 1
 433 571 400 529 363 529 c 0xe9
 319 529 245 572 205 572 c 0
 186 572 170 554 166 530 c 1
 146 530 l 1
 153 579 186 621 223 621 c 0xde
272 430 m 0xda
 382 430 423 357 423 264 c 0
 423 123 328 -10 179 -10 c 0
 69 -10 28 63 28 156 c 0
 28 297 123 430 272 430 c 0xda
258 398 m 0
 203 398 162 345 140 285 c 0
 124 241 116 192 116 148 c 0
 116 65 144 22 193 22 c 0
 251 22 295 81 317 152 c 0
 329 191 335 233 335 272 c 0
 335 355 307 398 258 398 c 0
EndSplineSet
EndChar
StartChar: odieresis
Encoding: 246 246 174
Width: 451
GlyphClass: 2
Flags: MW
HStem: -10 32<168.5 222 168.5 253.5> 398 32<230.5 282.5> 548 95<199 220 373 394>
VStem: 28 88<109.5 170 106.5 226.5> 154 109<585 605.5> 328 109<585 605.5> 335 88<252.5 310.5 193.5 313.5>
LayerCount: 2
Back
Fore
SplineSet
216 643 m 0xfa
 245 643 263 627 263 602 c 0
 263 568 238 548 202 548 c 0
 174 548 154 563 154 589 c 0
 154 622 182 643 216 643 c 0xfa
390 643 m 0xfc
 419 643 437 627 437 602 c 0
 437 568 412 548 376 548 c 0
 348 548 328 563 328 589 c 0
 328 622 356 643 390 643 c 0xfc
272 430 m 0xfa
 382 430 423 357 423 264 c 0
 423 123 328 -10 179 -10 c 0
 69 -10 28 63 28 156 c 0
 28 297 123 430 272 430 c 0xfa
258 398 m 0
 203 398 162 345 140 285 c 0
 124 241 116 192 116 148 c 0
 116 65 144 22 193 22 c 0
 251 22 295 81 317 152 c 0
 329 191 335 233 335 272 c 0
 335 355 307 398 258 398 c 0
EndSplineSet
EndChar
StartChar: divide
Encoding: 247 247 314
Width: 445
Flags: MW
HStem: 50 95<194.5 215.5> 249 41<29 432 23 438> 389 95<242.5 263.5>
VStem: 151 109<87 107> 199 109<426 447>
LayerCount: 2
Back
Fore
SplineSet
259 484 m 0x68
 287 484 308 469 308 442 c 0
 308 410 281 389 246 389 c 0
 217 389 199 405 199 430 c 0
 199 464 226 484 259 484 c 0x68
438 290 m 1
 432 249 l 1
 23 249 l 1
 29 290 l 1
 438 290 l 1
211 145 m 0xf0
 239 145 260 130 260 103 c 0
 260 71 233 50 198 50 c 0
 170 50 151 66 151 91 c 0
 151 123 178 145 211 145 c 0xf0
EndSplineSet
EndChar
StartChar: oslash
Encoding: 248 248 178
Width: 459
GlyphClass: 2
Flags: MW
HStem: -10 32<182.5 222 182.5 253.5> 1 21G 398 32<230.5 270.5>
VStem: 28 88<136 170 136 226.5> 335 88<252.5 281>
LayerCount: 2
Back
Fore
SplineSet
443 482 m 1xb8
 381 391 l 1
 410 361 423 315 423 264 c 0
 423 123 328 -10 179 -10 c 0xb8
 153 -10 132 -6 113 1 c 1
 54 -85 l 1
 18 -67 l 1x78
 79 21 l 1
 43 51 28 100 28 156 c 0
 28 297 123 430 272 430 c 0
 303 430 328 424 349 414 c 1
 411 504 l 1
 443 482 l 1xb8
116 148 m 0
 116 124 118 103 123 86 c 1
 315 365 l 1
 302 387 283 398 258 398 c 0
 203 398 162 345 140 285 c 0
 124 241 116 192 116 148 c 0
335 272 m 0
 335 290 334 305 331 319 c 1
 143 45 l 1
 156 30 172 22 193 22 c 0
 251 22 295 81 317 152 c 0
 329 191 335 233 335 272 c 0
EndSplineSet
EndChar
StartChar: uacute
Encoding: 250 250 199
Width: 489
GlyphClass: 2
Flags: MW
HStem: -10 55<157.5 167> 406 20G<137.5 165> 408 20G<458 458>
VStem: 54 82<84 100.5> 314 86<20.5 105>
LayerCount: 2
Back
Fore
SplineSet
235 493 m 0xb8
 225 493 221 496 221 500 c 0
 221 505 231 514 241 524 c 2
 348 632 l 2
 363 648 368 653 383 653 c 0
 407 653 437 635 437 627 c 0
 437 622 431 618 427 615 c 2
 256 502 l 2
 252 499 243 493 235 493 c 0xb8
451 80 m 1
 463 60 l 1
 414 7 368 -10 338 -10 c 0
 319 -10 314 5 314 36 c 0
 314 64 322 118 331 179 c 1
 255 39 198 -10 136 -10 c 0
 80 -10 54 26 54 70 c 0
 54 131 103 304 104 344 c 0
 105 368 88 373 67 373 c 0
 59 373 51 372 47 371 c 1
 42 400 l 1
 81 413 118 426 157 426 c 0
 173 426 189 422 189 407 c 0xd8
 189 377 136 157 136 99 c 0
 136 69 145 45 170 45 c 0
 228 45 319 188 348 292 c 1
 366 411 l 1
 458 428 l 1
 418 224 400 126 400 84 c 0
 400 73 404 67 413 67 c 0
 421 67 434 69 451 80 c 1
EndSplineSet
EndChar
StartChar: ucircumflex
Encoding: 251 251 200
Width: 489
GlyphClass: 2
Flags: MW
HStem: -10 55<157.5 167> 406 20G<137.5 165> 408 20G<458 458>
VStem: 54 82<84 100.5> 314 86<20.5 105>
LayerCount: 2
Back
Fore
SplineSet
149 493 m 0xb8
 140 493 138 497 138 500 c 0
 138 508 178 532 224 576 c 2
 274 624 l 2
 290 639 303 649 308 649 c 0
 311 649 322 640 334 624 c 2
 370 576 l 2
 404 530 435 509 435 501 c 0
 435 499 433 493 422 493 c 0
 415 493 402 500 395 505 c 2
 298 578 l 1
 178 505 l 2
 169 500 157 493 149 493 c 0xb8
451 80 m 1
 463 60 l 1
 414 7 368 -10 338 -10 c 0
 319 -10 314 5 314 36 c 0
 314 64 322 118 331 179 c 1
 255 39 198 -10 136 -10 c 0
 80 -10 54 26 54 70 c 0
 54 131 103 304 104 344 c 0
 105 368 88 373 67 373 c 0
 59 373 51 372 47 371 c 1
 42 400 l 1
 81 413 118 426 157 426 c 0
 173 426 189 422 189 407 c 0xd8
 189 377 136 157 136 99 c 0
 136 69 145 45 170 45 c 0
 228 45 319 188 348 292 c 1
 366 411 l 1
 458 428 l 1
 418 224 400 126 400 84 c 0
 400 73 404 67 413 67 c 0
 421 67 434 69 451 80 c 1
EndSplineSet
EndChar
StartChar: udieresis
Encoding: 252 252 201
Width: 489
GlyphClass: 2
Flags: MW
HStem: -10 55<157.5 167> 406 20G<137.5 165> 408 20G<458 458> 548 95<203 224 377 398>
VStem: 54 82<84 100.5> 158 109<585 605.5> 314 86<20.5 105> 332 109<585 605.5>
LayerCount: 2
Back
Fore
SplineSet
206 548 m 0xbd
 178 548 158 563 158 589 c 0
 158 622 186 643 220 643 c 0
 249 643 267 627 267 602 c 0
 267 568 242 548 206 548 c 0xbd
380 548 m 0
 352 548 332 563 332 589 c 0
 332 622 360 643 394 643 c 0
 423 643 441 627 441 602 c 0
 441 568 416 548 380 548 c 0
451 80 m 1xba
 463 60 l 1
 414 7 368 -10 338 -10 c 0
 319 -10 314 5 314 36 c 0
 314 64 322 118 331 179 c 1
 255 39 198 -10 136 -10 c 0
 80 -10 54 26 54 70 c 0
 54 131 103 304 104 344 c 0
 105 368 88 373 67 373 c 0
 59 373 51 372 47 371 c 1
 42 400 l 1
 81 413 118 426 157 426 c 0
 173 426 189 422 189 407 c 0xda
 189 377 136 157 136 99 c 0
 136 69 145 45 170 45 c 0
 228 45 319 188 348 292 c 1
 366 411 l 1
 458 428 l 1
 418 224 400 126 400 84 c 0
 400 73 404 67 413 67 c 0
 421 67 434 69 451 80 c 1xba
EndSplineSet
EndChar
StartChar: thorn
Encoding: 254 254 182
Width: 460
GlyphClass: 2
Flags: MW
HStem: -239 24<-5 -5 92 95> -10 30<189 227.5 189 272> 375 55<306 313.5> 675 55
VStem: 121 93<590 717.5> 349 89<254 308>
LayerCount: 2
Back
Fore
SplineSet
336 430 m 0
 399 430 438 378 438 300 c 0
 438 161 338 -10 206 -10 c 0
 165 -10 131 7 114 31 c 1
 100 -67 87 -171 86 -203 c 0
 86 -211 89 -215 95 -215 c 2
 158 -213 l 1
 154 -239 l 1
 -40 -239 l 1
 -36 -213 l 1
 -5 -215 l 1
 3 -214 7 -208 9 -195 c 0
 35 -13 121 529 121 651 c 0
 121 667 108 675 88 675 c 0
 81 675 73 675 64 673 c 1
 58 698 l 1
 106 722 152 730 176 730 c 0
 200 730 214 727 214 708 c 0
 214 692 184 524 175 464 c 2
 142 232 l 1
 204 376 276 430 336 430 c 0
311 103 m 0
 338 160 349 232 349 276 c 0
 349 340 327 375 300 375 c 0
 243 375 125 192 125 94 c 0
 125 30 176 20 202 20 c 0
 253 20 288 56 311 103 c 0
EndSplineSet
EndChar
StartChar: ydieresis
Encoding: 255 255 217
Width: 411
GlyphClass: 2
Flags: MW
HStem: -239 94<-69 -50.5 -76.5 -41.5> 374 52<37.5 115.5> 406 20G<92 115.5> 409 20G<322 360.5> 548 95<164 185 338 359>
VStem: 119 109<585 605.5> 293 109<585 605.5> 351 53<287 387.5>
LayerCount: 2
Back
Fore
SplineSet
167 548 m 0x9d
 139 548 119 563 119 589 c 0
 119 622 147 643 181 643 c 0
 210 643 228 627 228 602 c 0
 228 568 203 548 167 548 c 0x9d
341 548 m 0x9e
 313 548 293 563 293 589 c 0
 293 622 321 643 355 643 c 0
 384 643 402 627 402 602 c 0
 402 568 377 548 341 548 c 0x9e
340 429 m 0x9d
 381 429 404 407 404 368 c 0x9d
 404 303 339 157 263 39 c 0
 113 -195 -25 -239 -58 -239 c 0
 -80 -239 -108 -236 -108 -195 c 0
 -108 -171 -90 -145 -63 -145 c 0
 -38 -145 -19 -169 8 -169 c 0
 26 -169 95 -123 181 -15 c 1
 74 341 l 1
 68 366 59 374 41 374 c 0
 34 374 26 373 16 371 c 1xcd
 11 400 l 1
 39 413 80 426 104 426 c 0
 127 426 140 414 153 368 c 2xad
 239 66 l 1
 299 156 351 259 351 315 c 0
 351 336 344 337 315 339 c 0
 298 340 287 357 287 381 c 0
 287 412 304 429 340 429 c 0x9d
EndSplineSet
Substitution2: "Single Substitution lookup 23 subtable" ydieresis.ss01
Substitution2: "'ss01' Style Set 1 lookup 16 subtable" ydieresis.ss01
Substitution2: "'salt' Stylistic Alternatives lookup 15 subtable" ydieresis.ss01
Substitution2: "'aalt' Access All Alternates lookup 0 subtable" ydieresis.ss01
EndChar
StartChar: amacron
Encoding: 257 257 117
Width: 466
GlyphClass: 2
Flags: MW
HStem: -10 55<145 151.5> 400 30<238.5 291 209 295.5> 567 40<177 413 171 419>
VStem: 28 89<97 140 97 182> 294 83<20.5 102>
LayerCount: 2
Back
Fore
SplineSet
419 607 m 1
 413 567 l 1
 171 567 l 1
 177 607 l 1
 419 607 l 1
390 67 m 0
 398 67 411 69 428 80 c 1
 440 60 l 1
 396 7 346 -10 318 -10 c 0
 299 -10 294 5 294 36 c 0
 294 65 304 123 315 187 c 1
 238 41 183 -10 120 -10 c 0
 61 -10 28 36 28 112 c 0
 28 252 143 430 275 430 c 0
 307 430 336 415 353 393 c 1
 359 415 l 1
 443 429 l 1
 419 330 l 1
 397 230 377 120 377 84 c 0
 377 73 381 67 390 67 c 0
156 45 m 0
 217 45 340 244 340 346 c 0
 340 376 314 400 277 400 c 0
 200 400 152 320 131 232 c 1
 121 195 117 157 117 123 c 0
 117 71 134 45 156 45 c 0
EndSplineSet
EndChar
StartChar: abreve
Encoding: 259 259 113
Width: 466
GlyphClass: 2
Flags: MW
HStem: -10 55<145 151.5> 400 30<238.5 291 209 295.5> 518 50<267 318 267 324>
VStem: 28 89<97 140 97 182> 178 44<642 642> 294 83<20.5 102>
LayerCount: 2
Back
Fore
SplineSet
286 518 m 0
 211 518 176 569 178 642 c 1
 222 642 l 1
 225 606 241 568 293 568 c 0
 343 568 373 606 386 642 c 1
 429 642 l 1
 411 569 362 518 286 518 c 0
390 67 m 0
 398 67 411 69 428 80 c 1
 440 60 l 1
 396 7 346 -10 318 -10 c 0
 299 -10 294 5 294 36 c 0
 294 65 304 123 315 187 c 1
 238 41 183 -10 120 -10 c 0
 61 -10 28 36 28 112 c 0
 28 252 143 430 275 430 c 0
 307 430 336 415 353 393 c 1
 359 415 l 1
 443 429 l 1
 419 330 l 1
 397 230 377 120 377 84 c 0
 377 73 381 67 390 67 c 0
156 45 m 0
 217 45 340 244 340 346 c 0
 340 376 314 400 277 400 c 0
 200 400 152 320 131 232 c 1
 121 195 117 157 117 123 c 0
 117 71 134 45 156 45 c 0
EndSplineSet
EndChar
StartChar: Aogonek
Encoding: 260 260 9
Width: 580
GlyphClass: 2
Flags: MW
HStem: -159 43<491.5 558.5> 0 27<-16 -4 -16 119 539 539 539 541> 208 28<154 353 154 361 139 353> 587 20G<326 355 355 355>
VStem: 445 58<-83.5 -79.5>
LayerCount: 2
Back
Fore
SplineSet
617 -85 m 1
 629 -99 l 1
 593 -137 550 -159 508 -159 c 0
 475 -159 445 -138 445 -97 c 0
 445 -62 466 -26 507 0 c 1
 312 0 l 1
 316 29 l 1
 369 27 l 2
 389 26 396 40 396 58 c 0
 396 67 395 80 392 90 c 2
 361 208 l 1
 139 208 l 1
 79 96 l 2
 68 76 58 56 58 41 c 0
 58 32 62 26 72 26 c 2
 123 29 l 1
 119 0 l 1
 -51 0 l 1
 -47 29 l 1
 -16 27 l 1
 8 27 28 58 53 104 c 2
 326 607 l 1
 355 607 l 1
 486 102 l 2
 499 53 509 27 536 27 c 2
 541 27 l 1
 575 29 l 1
 571 0 l 1
 539 0 l 1
 517 -18 503 -43 503 -71 c 0
 503 -96 516 -116 548 -116 c 0
 569 -116 592 -105 617 -85 c 1
154 236 m 1
 353 236 l 1
 288 484 l 1
 154 236 l 1
EndSplineSet
EndChar
StartChar: aogonek
Encoding: 261 261 118
Width: 466
GlyphClass: 2
Flags: MW
HStem: -159 43<318.5 385.5> -10 55<145 151.5> 400 30<238.5 291 209 295.5>
VStem: 28 89<97 140 97 182> 272 58<-83.5 -81.5> 294 83<20.5 102>
LayerCount: 2
Back
Fore
SplineSet
444 -85 m 1xf8
 456 -99 l 1
 420 -137 377 -159 335 -159 c 0
 302 -159 272 -138 272 -97 c 0xf8
 272 -66 288 -35 320 -10 c 1
 318 -10 l 2
 299 -10 294 5 294 36 c 0
 294 65 304 123 315 187 c 1
 238 41 183 -10 120 -10 c 0
 61 -10 28 36 28 112 c 0
 28 252 143 430 275 430 c 0
 307 430 336 415 353 393 c 1
 359 415 l 1
 443 429 l 1
 419 330 l 1
 397 230 377 120 377 84 c 0
 377 73 381 67 390 67 c 0
 398 67 411 69 428 80 c 1
 440 60 l 1xf4
 418 33 394 15 372 5 c 1
 346 -13 330 -41 330 -71 c 0
 330 -96 343 -116 375 -116 c 0
 396 -116 419 -105 444 -85 c 1xf8
156 45 m 0
 217 45 340 244 340 346 c 0
 340 376 314 400 277 400 c 0
 200 400 152 320 131 232 c 1
 121 195 117 157 117 123 c 0
 117 71 134 45 156 45 c 0
EndSplineSet
EndChar
StartChar: Cacute
Encoding: 262 262 15
Width: 585
GlyphClass: 2
Flags: MW
HStem: -10 27<256 347.5> 35 132<507 509 509 516> 433 131<544.5 566 540 584> 582 25<312 423>
VStem: 49 101<174 336 174 355.5>
AnchorPoint: "Anchor-0" 263 0 basechar 0
LayerCount: 2
Back
Fore
SplineSet
516 800 m 0
 516 795 510 791 506 788 c 2
 335 675 l 2
 331 672 322 666 314 666 c 0
 304 666 300 669 300 673 c 0
 300 678 310 687 320 697 c 2
 427 805 l 2
 442 821 447 826 462 826 c 0
 486 826 516 808 516 800 c 0
49 245 m 0
 49 466 181 607 388 607 c 0x98
 507 607 505 564 584 564 c 1
 572 518 565 467 565 448 c 0
 565 441 565 434 566 433 c 1xb8
 540 433 l 1
 534 515 466 582 380 582 c 0
 244 582 150 432 150 240 c 0
 150 108 207 17 305 17 c 0x98
 395 17 477 82 507 167 c 1
 538 167 l 1xd8
 519 89 516 73 516 47 c 2
 516 35 l 1
 509 35 l 2
 443 35 398 -10 297 -10 c 0
 140 -10 49 87 49 245 c 0
EndSplineSet
EndChar
StartChar: cacute
Encoding: 263 263 124
Width: 406
GlyphClass: 2
Flags: MW
HStem: -9 54<167.5 201> 400 30<236.5 278>
VStem: 26 89<124 184.5 124 218> 316 71<346 363 323.5 372>
AnchorPoint: "Anchor-0" 172 0 basechar 0
LayerCount: 2
Back
Fore
SplineSet
386 627 m 0
 386 622 380 618 376 615 c 2
 205 502 l 2
 201 499 192 493 184 493 c 0
 174 493 170 496 170 500 c 0
 170 505 180 514 190 524 c 2
 297 632 l 2
 312 648 317 653 332 653 c 0
 356 653 386 635 386 627 c 0
265 430 m 0
 334 430 387 389 387 337 c 0
 387 310 372 278 332 278 c 0
 313 278 300 285 300 304 c 0
 300 325 316 334 316 358 c 0
 316 386 293 400 263 400 c 0
 210 400 174 358 149 307 c 0
 128 264 115 211 115 158 c 0
 115 90 143 45 192 45 c 0
 232 45 282 74 324 100 c 1
 346 84 l 1
 297 33 231 -9 171 -9 c 0
 80 -9 26 54 26 145 c 0
 26 291 141 430 265 430 c 0
EndSplineSet
EndChar
StartChar: Ccaron
Encoding: 268 268 16
Width: 585
GlyphClass: 2
Flags: MW
HStem: -10 27<256 347.5> 35 132<507 509 509 516> 433 131<544.5 566 540 584> 582 25<312 423>
VStem: 49 101<174 336 174 355.5>
AnchorPoint: "Anchor-0" 263 0 basechar 0
LayerCount: 2
Back
Fore
SplineSet
523 824 m 0
 532 824 534 820 534 817 c 0
 534 809 494 785 448 741 c 2
 398 693 l 2
 382 678 369 668 364 668 c 0
 361 668 350 677 338 693 c 2
 302 741 l 2
 268 787 237 808 237 816 c 0
 237 818 239 824 250 824 c 0
 257 824 270 817 277 812 c 2
 374 739 l 1
 494 812 l 2
 503 817 515 824 523 824 c 0
49 245 m 0
 49 466 181 607 388 607 c 0x98
 507 607 505 564 584 564 c 1
 572 518 565 467 565 448 c 0
 565 441 565 434 566 433 c 1xb8
 540 433 l 1
 534 515 466 582 380 582 c 0
 244 582 150 432 150 240 c 0
 150 108 207 17 305 17 c 0x98
 395 17 477 82 507 167 c 1
 538 167 l 1xd8
 519 89 516 73 516 47 c 2
 516 35 l 1
 509 35 l 2
 443 35 398 -10 297 -10 c 0
 140 -10 49 87 49 245 c 0
EndSplineSet
EndChar
StartChar: Dcaron
Encoding: 270 270 20
Width: 613
GlyphClass: 2
Flags: MW
HStem: 0 28<180 224 224 248> 569 28<137 142.5 253 256 256 300>
VStem: 487 101<340.5 442.5>
LayerCount: 2
Back
Fore
SplineSet
528 824 m 0
 537 824 539 820 539 817 c 0
 539 809 499 785 453 741 c 2
 403 693 l 2
 387 678 374 668 369 668 c 0
 366 668 355 677 343 693 c 2
 307 741 l 2
 273 787 242 808 242 816 c 0
 242 818 244 824 255 824 c 0
 262 824 275 817 282 812 c 2
 379 739 l 1
 499 812 l 2
 508 817 520 824 528 824 c 0
320 597 m 2
 497 597 588 531 588 362 c 0
 588 134 481 0 248 0 c 2
 18 0 l 1
 22 29 l 1
 65 27 l 2
 74 27 79 37 81 49 c 2
 151 548 l 2
 153 559 148 569 137 569 c 2
 98 567 l 1
 102 597 l 1
 320 597 l 2
300 569 m 2
 256 569 l 2
 250 569 245 565 244 556 c 2
 172 41 l 2
 170 32 174 28 180 28 c 2
 224 28 l 2
 380 28 434 91 464 202 c 0
 477 250 487 308 487 373 c 0
 487 512 431 569 300 569 c 2
EndSplineSet
EndChar
StartChar: dcaron
Encoding: 271 271 129
Width: 476
GlyphClass: 2
Flags: MW
HStem: -10 55<146 153> 400 30<221.5 270> 530 77<501 546> 587 20G<514.5 546> 675 55
VStem: 23 88<112 158.5 112 190> 301 86<25 151> 523 56
LayerCount: 2
Back
Fore
SplineSet
432 730 m 0xdf
 456 730 470 727 470 708 c 0
 470 699 467 675 463 651 c 0
 443 531 387 208 387 94 c 0
 387 83 388 67 404 67 c 0
 409 67 424 69 441 80 c 1
 453 60 l 1
 404 7 357 -10 331 -10 c 0
 307 -10 301 11 301 39 c 0
 301 68 305 123 316 186 c 1
 254 43 183 -10 123 -10 c 0
 62 -10 23 42 23 120 c 0
 23 260 123 430 253 430 c 0
 296 430 329 412 346 391 c 1
 360 467 378 643 378 651 c 0
 378 667 365 675 343 675 c 0
 336 675 328 675 319 673 c 1
 313 698 l 1
 359 724 398 730 432 730 c 0xdf
531 607 m 0
 561 607 579 582 579 554 c 0
 579 502 532 457 490 438 c 1
 476 451 l 1
 499 467 521 493 523 511 c 0
 525 526 517 530 509 530 c 0xef
 493 530 483 544 483 560 c 0
 483 582 498 607 531 607 c 0
159 45 m 0
 216 45 334 228 334 326 c 0
 334 390 283 400 257 400 c 0
 186 400 143 323 124 245 c 0
 115 209 111 173 111 144 c 0
 111 80 133 45 159 45 c 0
EndSplineSet
EndChar
StartChar: dcroat
Encoding: 273 273 130
Width: 476
GlyphClass: 2
Flags: MW
HStem: -10 55<146 153> 400 30<221.5 270> 558 40<283 368 277 373 454 519> 675 55
VStem: 23 88<112 158.5 112 190> 301 86<25 139.5> 378 92<651 717.5>
LayerCount: 2
Back
Fore
SplineSet
519 558 m 1xfa
 447 558 l 1
 423 410 387 185 387 94 c 0
 387 83 388 67 404 67 c 0
 409 67 424 69 441 80 c 1
 453 60 l 1
 404 7 357 -10 331 -10 c 0
 307 -10 301 11 301 39 c 0
 301 68 305 123 316 186 c 1xfc
 254 43 183 -10 123 -10 c 0
 62 -10 23 42 23 120 c 0
 23 260 123 430 253 430 c 0
 296 430 329 412 346 391 c 1
 353 432 362 501 368 558 c 1
 277 558 l 1
 283 598 l 1
 373 598 l 1
 378 651 l 1
 378 667 365 675 343 675 c 0
 336 675 328 675 319 673 c 1
 313 698 l 1
 359 724 398 730 432 730 c 0
 456 730 470 727 470 708 c 0
 470 699 467 675 463 651 c 0
 461 636 458 618 454 598 c 1
 525 598 l 1
 519 558 l 1xfa
159 45 m 0
 216 45 334 228 334 326 c 0
 334 390 283 400 257 400 c 0
 186 400 143 323 124 245 c 0
 115 209 111 173 111 144 c 0
 111 80 133 45 159 45 c 0
EndSplineSet
EndChar
StartChar: Edotaccent
Encoding: 278 278 27
Width: 545
GlyphClass: 2
Flags: MW
HStem: 0 28<180 316 316 359> 297 28<212 298 208 302> 406 20G<387 417 417 417> 443 154<477 506 477 477> 569 28<136 141.5 253 256 256 360> 678 95<338 359>
VStem: 293 109<715 735.5> 387 30<426 426> 479.55 26.45
AnchorPoint: "Anchor-0" 222 0 basechar 0
LayerCount: 2
Back
Fore
SplineSet
355 773 m 0xee80
 384 773 402 757 402 732 c 0
 402 698 377 678 341 678 c 0
 313 678 293 693 293 719 c 0
 293 752 321 773 355 773 c 0xee80
528 599 m 1
 506 443 l 1
 477 443 l 1xf580
 490 532 454 569 360 569 c 2
 256 569 l 2
 250 569 245 564 244 555 c 2
 212 325 l 1
 302 325 l 2
 343 325 378 362 387 426 c 1
 417 426 l 1
 384 195 l 1
 354 195 l 1xed80
 363 255 336 297 298 297 c 2
 208 297 l 1
 172 41 l 2
 171 32 174 28 180 28 c 2
 316 28 l 2
 402 28 456 82 469 179 c 1
 498 179 l 1
 473 -3 l 1
 458 -1 428 0 387 0 c 2
 18 0 l 1
 22 30 l 1
 62 27 l 2
 72 27 79 34 81 49 c 2
 151 548 l 2
 153 561 147 569 136 569 c 2
 98 567 l 1
 102 597 l 1
 510 597 l 2
 518 597 523 597 528 599 c 1
EndSplineSet
EndChar
StartChar: edotaccent
Encoding: 279 279 136
Width: 399
GlyphClass: 2
Flags: MW
HStem: -9 54<170 199.5> 181 32 400 30<238 282> 548 95<250 271>
VStem: 26 89<120 158.5 120 214.5> 205 109<585 605.5> 319 71<306.5 353.5>
AnchorPoint: "Anchor-0" 149 0 basechar 0
LayerCount: 2
Back
Fore
SplineSet
253 548 m 0
 225 548 205 563 205 589 c 0
 205 622 233 643 267 643 c 0
 296 643 314 627 314 602 c 0
 314 568 289 548 253 548 c 0
390 332 m 0xfa
 390 266 316 195 116 181 c 1
 115 172 115 163 115 154 c 0
 115 86 148 45 192 45 c 0
 227 45 272 67 324 100 c 1
 346 84 l 1
 297 33 232 -9 167 -9 c 0
 86 -9 26 53 26 147 c 0
 26 282 138 430 264 430 c 0
 338 430 390 385 390 332 c 0xfa
262 400 m 0
 214 400 178 366 153 319 c 0
 137 287 125 250 120 213 c 1
 251 223 319 275 319 338 c 0
 319 369 302 400 262 400 c 0
EndSplineSet
EndChar
StartChar: Eogonek
Encoding: 280 280 30
Width: 545
GlyphClass: 2
Flags: MW
HStem: -159 43<358.5 425.5> 0 28<180 316 316 359> 297 28<212 298 208 302> 406 20G<387 417 417 417> 443 154<477 506 477 477> 569 28<136 141.5 253 256 256 360>
VStem: 312 58<-83.5 -79.5> 387 30<426 426> 479.55 26.45
AnchorPoint: "Anchor-0" 222 0 basechar 0
LayerCount: 2
Back
Fore
SplineSet
506 443 m 1xfa80
 477 443 l 1xfa80
 490 532 454 569 360 569 c 2
 256 569 l 2
 250 569 245 564 244 555 c 2
 212 325 l 1
 302 325 l 2
 343 325 378 362 387 426 c 1
 417 426 l 1
 384 195 l 1
 354 195 l 1xf780
 363 255 336 297 298 297 c 2
 208 297 l 1
 172 41 l 2
 171 32 174 28 180 28 c 2
 316 28 l 2
 402 28 456 82 469 179 c 1
 498 179 l 1
 473 -3 l 1
 460 -1 437 0 406 0 c 1
 384 -18 370 -43 370 -71 c 0
 370 -96 383 -116 415 -116 c 0
 436 -116 459 -105 484 -85 c 1
 496 -99 l 1
 460 -137 417 -159 375 -159 c 0
 342 -159 312 -138 312 -97 c 0
 312 -62 333 -26 374 0 c 1
 18 0 l 1
 22 30 l 1
 62 27 l 2
 72 27 79 34 81 49 c 2
 151 548 l 2
 153 561 147 569 136 569 c 2
 98 567 l 1
 102 597 l 1
 510 597 l 2
 518 597 523 597 528 599 c 1xf680
 506 443 l 1xfa80
EndSplineSet
EndChar
StartChar: eogonek
Encoding: 281 281 139
Width: 399
GlyphClass: 2
Flags: MW
HStem: -159 43<184.5 251.5> -9 54<170 170.5> 181 32 400 30<238 282>
VStem: 26 89<120 158.5 120 214.5> 138 58<-83.5 -81> 319 71<306.5 353.5>
AnchorPoint: "Anchor-0" 149 0 basechar 0
LayerCount: 2
Back
Fore
SplineSet
390 332 m 0
 390 266 316 195 116 181 c 1
 115 172 115 163 115 154 c 0
 115 86 148 45 192 45 c 0xfa
 227 45 272 67 324 100 c 1
 346 84 l 1
 318 55 284 28 249 11 c 1
 217 -6 196 -37 196 -71 c 0
 196 -96 209 -116 241 -116 c 0
 262 -116 285 -105 310 -85 c 1
 322 -99 l 1
 286 -137 243 -159 201 -159 c 0
 168 -159 138 -138 138 -97 c 0
 138 -65 156 -33 189 -7 c 1xfe
 182 -8 174 -9 167 -9 c 0
 86 -9 26 53 26 147 c 0
 26 282 138 430 264 430 c 0
 338 430 390 385 390 332 c 0
262 400 m 0
 214 400 178 366 153 319 c 0
 137 287 125 250 120 213 c 1
 251 223 319 275 319 338 c 0
 319 369 302 400 262 400 c 0
EndSplineSet
EndChar
StartChar: Ecaron
Encoding: 282 282 24
Width: 545
GlyphClass: 2
Flags: MW
HStem: 0 28<180 316 316 359> 297 28<212 298 208 302> 406 20G<387 417 417 417> 443 154<477 506 477 477> 569 28<136 141.5 253 256 256 360>
VStem: 387 30<426 426> 479.55 26.45
AnchorPoint: "Anchor-0" 222 0 basechar 0
LayerCount: 2
Back
Fore
SplineSet
498 824 m 0xee
 507 824 509 820 509 817 c 0
 509 809 469 785 423 741 c 2
 373 693 l 2
 357 678 344 668 339 668 c 0
 336 668 325 677 313 693 c 2
 277 741 l 2
 243 787 212 808 212 816 c 0
 212 818 214 824 225 824 c 0
 232 824 245 817 252 812 c 2
 349 739 l 1
 469 812 l 2
 478 817 490 824 498 824 c 0xee
528 599 m 1
 506 443 l 1
 477 443 l 1xf6
 490 532 454 569 360 569 c 2
 256 569 l 2
 250 569 245 564 244 555 c 2
 212 325 l 1
 302 325 l 2
 343 325 378 362 387 426 c 1
 417 426 l 1
 384 195 l 1
 354 195 l 1
 363 255 336 297 298 297 c 2
 208 297 l 1
 172 41 l 2
 171 32 174 28 180 28 c 2
 316 28 l 2
 402 28 456 82 469 179 c 1
 498 179 l 1
 473 -3 l 1
 458 -1 428 0 387 0 c 2
 18 0 l 1
 22 30 l 1
 62 27 l 2
 72 27 79 34 81 49 c 2
 151 548 l 2
 153 561 147 569 136 569 c 2
 98 567 l 1
 102 597 l 1
 510 597 l 2
 518 597 523 597 528 599 c 1
EndSplineSet
EndChar
StartChar: ecaron
Encoding: 283 283 133
Width: 399
GlyphClass: 2
Flags: MW
HStem: -9 54<170 199.5> 181 32 400 30<238 282>
VStem: 26 89<120 158.5 120 214.5> 319 71<306.5 353.5>
AnchorPoint: "Anchor-0" 149 0 basechar 0
LayerCount: 2
Back
Fore
SplineSet
407 657 m 0
 416 657 418 653 418 650 c 0
 418 642 378 618 332 574 c 2
 282 526 l 2
 266 511 253 501 248 501 c 0
 245 501 234 510 222 526 c 2
 186 574 l 2
 152 620 121 641 121 649 c 0
 121 651 123 657 134 657 c 0
 141 657 154 650 161 645 c 2
 258 572 l 1
 378 645 l 2
 387 650 399 657 407 657 c 0
264 430 m 0
 338 430 390 385 390 332 c 0
 390 266 316 195 116 181 c 1
 115 172 115 163 115 154 c 0
 115 86 148 45 192 45 c 0
 227 45 272 67 324 100 c 1
 346 84 l 1
 297 33 232 -9 167 -9 c 0
 86 -9 26 53 26 147 c 0
 26 282 138 430 264 430 c 0
120 213 m 1
 251 223 319 275 319 338 c 0
 319 369 302 400 262 400 c 0
 214 400 178 366 153 319 c 0
 137 287 125 250 120 213 c 1
EndSplineSet
EndChar
StartChar: Gbreve
Encoding: 286 286 33
Width: 626
GlyphClass: 2
Flags: MW
HStem: -10 27<256.5 334 256.5 362> 245 27<443 449 564 569> 433 131<561 567 525 585> 582 25<317.5 424.5> 666 50<342 393 342 399>
VStem: 49 100<156.5 342 152.5 357.5> 253 44<790 790> 530 37<433 507>
AnchorPoint: "Anchor-0" 283 0 basechar 0
LayerCount: 2
Back
Fore
SplineSet
504 790 m 1
 486 717 437 666 361 666 c 0
 286 666 251 717 253 790 c 1
 297 790 l 1
 300 754 316 716 368 716 c 0
 418 716 448 754 461 790 c 1
 504 790 l 1
389 607 m 0
 515 607 537 564 585 564 c 1
 578 540 566 468 567 433 c 1
 525 433 l 1xff
 527 438 530 443 530 467 c 0
 530 547 468 582 381 582 c 0
 254 582 149 460 149 224 c 0
 149 81 207 17 306 17 c 0
 362 17 395 27 434 63 c 1
 457 223 l 2
 459 238 455 245 443 245 c 2
 385 243 l 1
 389 272 l 1
 615 272 l 1
 611 243 l 1
 569 245 l 2
 559 245 551 235 550 224 c 2
 523 35 l 1
 517 36 513 36 509 36 c 0
 471 36 426 -10 298 -10 c 0
 141 -10 49 74 49 239 c 0
 49 476 175 607 389 607 c 0
EndSplineSet
EndChar
StartChar: gbreve
Encoding: 287 287 142
Width: 428
GlyphClass: 2
Flags: MW
HStem: -245 26<86.5 177.5 86.5 193> -9 21G<120 120> 130 27<166 208.5 166 224.5> 403 20 403 27<211.5 254> 424 81<417 443> 518 50<223 274 223 280>
VStem: -36 52<-161 -109> 25 66<84.5 86.5> 41 86<221.5 241.5 205 292> 134 44<642 642> 293 86<318.5 338 268.5 355> 308 69<-150.5 -97.5>
LayerCount: 2
Back
Fore
SplineSet
242 518 m 0xeb28
 167 518 132 569 134 642 c 1
 178 642 l 1
 181 606 197 568 249 568 c 0
 299 568 329 606 342 642 c 1
 385 642 l 1
 367 569 318 518 242 518 c 0xeb28
430 505 m 0xe728
 462 505 471 484 471 467 c 0
 471 448 454 424 432 424 c 0
 401 424 408 447 392 447 c 0
 382 447 350 435 328 414 c 1
 365 393 379 357 379 319 c 0
 379 218 284 130 165 130 c 0
 144 130 126 133 111 138 c 1
 101 126 91 113 91 101 c 0xe7b0
 91 68 154 60 221 37 c 0
 296 11 377 -13 377 -102 c 0
 377 -199 260 -245 126 -245 c 0
 14 -245 -36 -207 -36 -140 c 0xeb28
 -36 -78 21 -30 87 3 c 1
 51 19 25 39 25 71 c 0xeba8
 25 102 51 123 81 143 c 1
 88 148 l 1
 55 168 41 202 41 241 c 0
 41 343 134 430 253 430 c 0xeb48
 274 430 292 427 307 423 c 1xf328
 347 466 404 505 430 505 c 0xe728
277 230 m 0xeb50
 288 259 293 303 293 334 c 0
 293 376 275 403 233 403 c 0
 190 403 162 380 143 330 c 0
 132 301 127 257 127 226 c 0
 127 184 145 157 187 157 c 0
 230 157 258 180 277 230 c 0xeb50
308 -125 m 0xeb28
 308 -70 247 -47 181 -27 c 2
 120 -9 l 1
 73 -27 16 -74 16 -138 c 0
 16 -184 44 -219 129 -219 c 0
 226 -219 308 -183 308 -125 c 0xeb28
EndSplineSet
EndChar
StartChar: Gcommaaccent
Encoding: 290 290 34
Width: 626
GlyphClass: 2
Flags: MW
HStem: -111 77<246 298.5> -10 27<256.5 334 256.5 362> 245 27<443 449 564 569> 433 131<561 567 525 585> 582 25<317.5 424.5>
VStem: 49 100<156.5 342 152.5 357.5> 278 56 530 37<433 507>
AnchorPoint: "Anchor-0" 283 0 basechar 0
LayerCount: 2
Back
Fore
SplineSet
389 607 m 0
 515 607 537 564 585 564 c 1
 578 540 566 468 567 433 c 1
 525 433 l 1x7f
 527 438 530 443 530 467 c 0
 530 547 468 582 381 582 c 0
 254 582 149 460 149 224 c 0
 149 81 207 17 306 17 c 0
 362 17 395 27 434 63 c 1
 457 223 l 2
 459 238 455 245 443 245 c 2
 385 243 l 1
 389 272 l 1
 615 272 l 1
 611 243 l 1
 569 245 l 2
 559 245 551 235 550 224 c 2
 523 35 l 1
 517 36 513 36 509 36 c 0
 471 36 426 -10 298 -10 c 0
 141 -10 49 74 49 239 c 0
 49 476 175 607 389 607 c 0
281 -34 m 0xef
 316 -34 334 -59 334 -87 c 0
 334 -144 282 -192 235 -213 c 1
 221 -200 l 1
 249 -185 276 -158 278 -140 c 0
 281 -117 268 -111 254 -111 c 0
 238 -111 228 -97 228 -81 c 0
 228 -59 247 -34 281 -34 c 0xef
EndSplineSet
EndChar
StartChar: gcommaaccent
Encoding: 291 291 143
Width: 428
GlyphClass: 2
Flags: MW
HStem: -245 26<86.5 177.5 86.5 193> -9 21G<120 120> 130 27<166 208.5 166 224.5> 403 20 403 27<211.5 254> 424 81<417 443> 486 77<242.5 295>
VStem: -36 52<-161 -109> 25 66<84.5 86.5> 41 86<221.5 241.5 205 292> 207 56 293 86<318.5 338 268.5 355> 308 69<-150.5 -97.5>
LayerCount: 2
Back
Fore
SplineSet
260 486 m 0xeb28
 225 486 207 511 207 539 c 0
 207 596 259 644 306 665 c 1
 320 652 l 1
 292 637 265 610 263 592 c 0
 260 569 273 563 287 563 c 0
 303 563 313 549 313 533 c 0
 313 511 294 486 260 486 c 0xeb28
430 505 m 0xe528
 462 505 471 484 471 467 c 0
 471 448 454 424 432 424 c 0
 401 424 408 447 392 447 c 0
 382 447 350 435 328 414 c 1
 365 393 379 357 379 319 c 0
 379 218 284 130 165 130 c 0
 144 130 126 133 111 138 c 1
 101 126 91 113 91 101 c 0xe5b0
 91 68 154 60 221 37 c 0
 296 11 377 -13 377 -102 c 0
 377 -199 260 -245 126 -245 c 0
 14 -245 -36 -207 -36 -140 c 0xeb28
 -36 -78 21 -30 87 3 c 1
 51 19 25 39 25 71 c 0xeba8
 25 102 51 123 81 143 c 1
 88 148 l 1
 55 168 41 202 41 241 c 0
 41 343 134 430 253 430 c 0xeb68
 274 430 292 427 307 423 c 1xf328
 347 466 404 505 430 505 c 0xe528
277 230 m 0xeb70
 288 259 293 303 293 334 c 0
 293 376 275 403 233 403 c 0
 190 403 162 380 143 330 c 0
 132 301 127 257 127 226 c 0
 127 184 145 157 187 157 c 0
 230 157 258 180 277 230 c 0xeb70
308 -125 m 0xeb28
 308 -70 247 -47 181 -27 c 2
 120 -9 l 1
 73 -27 16 -74 16 -138 c 0
 16 -184 44 -219 129 -219 c 0
 226 -219 308 -183 308 -125 c 0xeb28
EndSplineSet
EndChar
StartChar: Imacron
Encoding: 298 298 43
Width: 301
GlyphClass: 2
Flags: MW
HStem: 0 27<61 66.5 182.5 188> 569 28<137 142.5 258.5 264> 676 40<95 331 89 337>
VStem: 18 319
LayerCount: 2
Back
Fore
SplineSet
337 716 m 1
 331 676 l 1
 89 676 l 1
 95 716 l 1
 337 716 l 1
307 597 m 1
 303 567 l 1
 264 569 l 2
 253 569 245 561 243 548 c 2
 173 49 l 2
 171 34 177 27 188 27 c 2
 227 29 l 1
 223 0 l 1
 18 0 l 1
 22 29 l 1
 61 27 l 2
 72 27 79 34 81 49 c 2
 151 548 l 2
 153 560 148 569 137 569 c 2
 98 567 l 1
 102 597 l 1
 307 597 l 1
EndSplineSet
EndChar
StartChar: imacron
Encoding: 299 299 153
Width: 256
GlyphClass: 2
Flags: MW
HStem: -10 21G<90.5 116.5> 406 20G<148 173.5> 567 40<59 295 53 301>
VStem: 64 84<20.5 106> 103 93<336 413.5>
LayerCount: 2
Back
Fore
SplineSet
301 607 m 1xf0
 295 567 l 1
 53 567 l 1
 59 607 l 1
 301 607 l 1xf0
213 60 m 1
 171 16 131 -10 102 -10 c 0
 79 -10 64 5 64 36 c 0xf0
 64 68 79 146 90 223 c 0
 99 283 103 325 103 347 c 0
 103 367 86 373 72 373 c 0
 67 373 60 372 56 371 c 1
 51 400 l 1
 90 416 131 426 165 426 c 0
 182 426 196 423 196 404 c 0xe8
 196 392 178 310 164 230 c 0
 154 173 148 118 148 94 c 0
 148 83 149 67 165 67 c 0
 170 67 184 69 201 80 c 1
 213 60 l 1
EndSplineSet
EndChar
StartChar: Iogonek
Encoding: 302 302 44
Width: 301
GlyphClass: 2
Flags: MW
HStem: -159 43<120.5 187.5> 0 27<61 66.5 61 136 182.5 188> 569 28<137 142.5 258.5 264>
VStem: 74 58<-83.5 -79.5>
LayerCount: 2
Back
Fore
SplineSet
102 597 m 1
 307 597 l 1
 303 567 l 1
 264 569 l 2
 253 569 245 561 243 548 c 2
 173 49 l 2
 171 34 177 27 188 27 c 2
 227 29 l 1
 223 0 l 1
 168 0 l 1
 146 -18 132 -43 132 -71 c 0
 132 -96 145 -116 177 -116 c 0
 198 -116 221 -105 246 -85 c 1
 258 -99 l 1
 222 -137 179 -159 137 -159 c 0
 104 -159 74 -138 74 -97 c 0
 74 -62 95 -26 136 0 c 1
 18 0 l 1
 22 29 l 1
 61 27 l 2
 72 27 79 34 81 49 c 2
 151 548 l 2
 153 560 148 569 137 569 c 2
 98 567 l 1
 102 597 l 1
EndSplineSet
EndChar
StartChar: iogonek
Encoding: 303 303 154
Width: 256
GlyphClass: 2
Flags: MW
HStem: -160 43<89.5 156.5> -9 21G 406 20G<148 173.5> 548 95<167 188>
VStem: 43 58<-84.5 -82> 64 84<22.5 106> 103 93<336 413.5> 122 109<585 605.5>
LayerCount: 2
Back
Fore
SplineSet
170 548 m 0xf9
 142 548 122 563 122 589 c 0
 122 622 150 643 184 643 c 0
 213 643 231 627 231 602 c 0
 231 568 206 548 170 548 c 0xf9
146 -117 m 0xf8
 167 -117 190 -106 215 -86 c 1
 227 -100 l 1
 191 -138 148 -160 106 -160 c 0
 73 -160 43 -139 43 -98 c 0xf8
 43 -66 60 -34 93 -9 c 1
 75 -6 64 9 64 36 c 0xf4
 64 68 79 146 90 223 c 0
 99 283 103 325 103 347 c 0
 103 367 86 373 72 373 c 0
 67 373 60 372 56 371 c 1
 51 400 l 1
 90 416 131 426 165 426 c 0
 182 426 196 423 196 404 c 0xf2
 196 392 178 310 164 230 c 0
 154 173 148 118 148 94 c 0
 148 83 149 67 165 67 c 0
 170 67 184 69 201 80 c 1
 213 60 l 1xf4
 187 33 161 12 139 1 c 1
 115 -17 101 -43 101 -72 c 0
 101 -97 114 -117 146 -117 c 0xf8
EndSplineSet
EndChar
StartChar: Idotaccent
Encoding: 304 304 41
Width: 301
GlyphClass: 2
Flags: MW
HStem: 0 27<61 66.5 182.5 188> 569 28<137 142.5 258.5 264> 678 95<209 230>
VStem: 164 109<715 735.5>
LayerCount: 2
Back
Fore
SplineSet
226 773 m 0
 255 773 273 757 273 732 c 0
 273 698 248 678 212 678 c 0
 184 678 164 693 164 719 c 0
 164 752 192 773 226 773 c 0
307 597 m 1
 303 567 l 1
 264 569 l 2
 253 569 245 561 243 548 c 2
 173 49 l 2
 171 34 177 27 188 27 c 2
 227 29 l 1
 223 0 l 1
 18 0 l 1
 22 29 l 1
 61 27 l 2
 72 27 79 34 81 49 c 2
 151 548 l 2
 153 560 148 569 137 569 c 2
 98 567 l 1
 102 597 l 1
 307 597 l 1
EndSplineSet
EndChar
StartChar: IJ
Encoding: 306 306 37
Width: 738
GlyphClass: 2
Flags: MW
HStem: -10 26<417.5 463.5 393.5 498> -4 20 0 27<61 66.5 182.5 188> 5 167<322.5 341.5> 569 28<137 142.5 258.5 264 580 584.5 701 707>
VStem: 318 34.27
LayerCount: 2
Back
Fore
SplineSet
307 597 m 1x2c
 303 567 l 1
 264 569 l 2
 253 569 245 561 243 548 c 2
 173 49 l 2
 171 34 177 27 188 27 c 2
 227 29 l 1
 223 0 l 1
 18 0 l 1
 22 29 l 1
 61 27 l 2
 72 27 79 34 81 49 c 2
 151 548 l 2
 153 560 148 569 137 569 c 2
 98 567 l 1
 102 597 l 1
 307 597 l 1x2c
748 597 m 1
 744 567 l 1
 707 569 l 2
 695 569 688 561 686 549 c 2
 634 179 l 2
 616 51 551 -10 445 -10 c 0
 390 -10 354 5 329 5 c 0x8c
 316 5 304 3 293 -4 c 1x4c
 318 172 l 1x1c
 355 172 l 1
 346 113 354 16 433 16 c 0x8c
 494 16 524 59 541 179 c 2
 593 548 l 2
 595 561 589 569 580 569 c 2
 511 567 l 1
 515 597 l 1
 748 597 l 1
EndSplineSet
Position2: "'cpsp' Capital Spacing lookup 0 per glyph data 2" dx=5 dy=0 dh=10 dv=0
EndChar
StartChar: ij
Encoding: 307 307 152
Width: 502
GlyphClass: 2
Flags: MW
HStem: -245 27<221.5 257.5 221.5 274.5> -10 21G<90.5 116.5> 373 53 403 23 406 20G<148 173.5 405 431> 548 95<161 182 422 443>
VStem: 64 84<20.5 106> 103 93<336 413.5> 116 109<585 605.5> 124 82<-168 -167.5> 377 109<585 605.5>
LayerCount: 2
Back
Fore
SplineSet
178 643 m 0xcca0
 207 643 225 627 225 602 c 0
 225 568 200 548 164 548 c 0
 136 548 116 563 116 589 c 0
 116 622 144 643 178 643 c 0xcca0
439 643 m 0
 468 643 486 627 486 602 c 0
 486 568 461 548 425 548 c 0
 397 548 377 563 377 589 c 0
 377 622 405 643 439 643 c 0
213 60 m 1xce20
 171 16 131 -10 102 -10 c 0
 79 -10 64 5 64 36 c 0xce20
 64 68 79 146 90 223 c 0
 99 283 103 325 103 347 c 0
 103 367 86 373 72 373 c 0
 67 373 60 372 56 371 c 1xe520
 51 400 l 1
 90 416 131 426 165 426 c 0
 182 426 196 423 196 404 c 0xcd20
 196 392 178 310 164 230 c 0
 154 173 148 118 148 94 c 0
 148 83 149 67 165 67 c 0
 170 67 184 69 201 80 c 1
 213 60 l 1xce20
422 426 m 0xcc60
 440 426 453 423 453 403 c 1xd460
 453 406 405 95 394 11 c 0
 373 -148 326 -245 223 -245 c 0
 171 -245 124 -219 124 -178 c 0
 124 -157 137 -134 169 -134 c 0
 187 -134 206 -141 206 -162 c 0
 206 -174 200 -182 200 -193 c 0
 200 -209 213 -218 230 -218 c 0
 285 -218 299 -123 326 72 c 2
 347 225 l 2
 355 284 360 327 360 342 c 0
 360 369 343 373 330 373 c 0
 323 373 317 372 313 371 c 1xe460
 308 400 l 1
 347 416 388 426 422 426 c 0xcc60
EndSplineSet
EndChar
StartChar: Kcommaaccent
Encoding: 310 310 47
Width: 598
GlyphClass: 2
Flags: MW
HStem: -111 77<233 285.5> 0 27<61 66.5 182.5 188 388 396.5 528 536.5> 569 28<137 142.5 258.5 264 459 461.5 553 553>
VStem: 265 56
AnchorPoint: "Anchor-0" 270 0 basechar 0
LayerCount: 2
Back
Fore
SplineSet
553 569 m 2
 537 570 521 562 499 540 c 2
 328 365 l 1
 512 41 l 2
 517 32 524 27 532 27 c 0
 541 27 555 29 566 30 c 1
 562 0 l 1
 330 0 l 1
 334 30 l 1
 388 27 l 2
 405 27 407 41 401 52 c 2
 262 298 l 1
 199 234 l 1
 173 49 l 2
 171 34 177 27 188 27 c 2
 237 29 l 1
 233 0 l 1
 18 0 l 1
 22 29 l 1
 61 27 l 2
 72 27 79 34 81 49 c 2
 151 548 l 2
 153 561 148 569 137 569 c 2
 98 567 l 1
 102 597 l 1
 317 597 l 1
 313 567 l 1
 264 569 l 2
 253 569 245 562 243 547 c 2
 206 281 l 1
 459 548 l 2
 463 553 466 558 466 562 c 0
 466 567 464 569 459 569 c 2
 417 567 l 1
 421 597 l 1
 596 597 l 1
 592 567 l 1
 553 569 l 2
268 -34 m 0
 303 -34 321 -59 321 -87 c 0
 321 -144 269 -192 222 -213 c 1
 208 -200 l 1
 236 -185 263 -158 265 -140 c 0
 268 -117 255 -111 241 -111 c 0
 225 -111 215 -97 215 -81 c 0
 215 -59 234 -34 268 -34 c 0
EndSplineSet
EndChar
StartChar: kcommaaccent
Encoding: 311 311 158
Width: 481
GlyphClass: 2
Flags: MW
HStem: -111 77<188 240.5> -10 21G<325.5 356.5> -10 70<325.5 385.5> 0 21G<45 124 45 45> 375 55<310 329> 675 55
VStem: 133 93<615.5 717.5> 220 56 353 84<332 347.5>
AnchorPoint: "Anchor-0" 225 0 basechar 0
LayerCount: 2
Back
Fore
SplineSet
436 80 m 1xae80
 448 60 l 1xad80
 410 18 371 -10 342 -10 c 0
 309 -10 296 10 286 40 c 2xcd80
 229 206 l 1
 317 236 353 290 353 333 c 0
 353 362 337 375 321 375 c 0
 258 375 167 229 138 112 c 1
 124 0 l 1
 45 0 l 1x9e80
 59 87 133 580 133 651 c 0
 133 667 120 675 100 675 c 0
 93 675 85 675 76 673 c 1
 70 698 l 1
 118 722 164 730 188 730 c 0
 212 730 226 727 226 708 c 0
 226 700 222 674 216 640 c 0
 208 589 195 518 187 464 c 2
 152 222 l 1
 193 317 263 430 357 430 c 0
 406 430 437 397 437 357 c 0
 437 307 388 255 307 219 c 1
 357 85 l 2
 361 73 367 60 382 60 c 0
 389 60 410 63 436 80 c 1xae80
223 -34 m 0x9d80
 258 -34 276 -59 276 -87 c 0
 276 -144 224 -192 177 -213 c 1
 163 -200 l 1
 191 -185 218 -158 220 -140 c 0
 223 -117 210 -111 196 -111 c 0
 180 -111 170 -97 170 -81 c 0
 170 -59 189 -34 223 -34 c 0x9d80
EndSplineSet
EndChar
StartChar: Lacute
Encoding: 313 313 49
Width: 498
GlyphClass: 2
Flags: MW
HStem: 0 28<180 289 289 326> 569 28<137 142 258.5 264>
VStem: 18 453<0 171>
AnchorPoint: "Anchor-0" 217 0 basechar 0
LayerCount: 2
Back
Fore
SplineSet
384 800 m 0
 384 795 378 791 374 788 c 2
 203 675 l 2
 199 672 190 666 182 666 c 0
 172 666 168 669 168 673 c 0
 168 678 178 687 188 697 c 2
 295 805 l 2
 310 821 315 826 330 826 c 0
 354 826 384 808 384 800 c 0
317 597 m 1
 313 567 l 1
 264 569 l 2
 253 569 245 561 243 548 c 2
 172 41 l 2
 171 32 174 28 180 28 c 2
 289 28 l 2
 377 28 430 78 443 171 c 1
 471 171 l 1
 447 -3 l 1
 434 -1 394 0 326 0 c 2
 18 0 l 1
 22 30 l 1
 65 27 l 2
 74 27 79 37 81 49 c 2
 151 548 l 2
 153 560 147 569 137 569 c 2
 98 567 l 1
 102 597 l 1
 317 597 l 1
EndSplineSet
EndChar
StartChar: lacute
Encoding: 314 314 160
Width: 236
GlyphClass: 2
Flags: MW
HStem: -10 21G<70.5 98> 675 55
VStem: 43 87<20.5 94>
AnchorPoint: "Anchor-0" 90 0 basechar 0
LayerCount: 2
Back
Fore
SplineSet
335 845 m 0
 334 840 330 837 324 834 c 2
 154 762 l 2
 149 760 143 758 136 758 c 0
 129 758 123 761 123 767 c 1
 124 771 129 777 138 783 c 2
 263 866 l 2
 277 876 284 878 291 878 c 0
 309 878 336 855 335 845 c 0
123 651 m 0
 123 667 110 675 90 675 c 0
 83 675 75 675 66 673 c 1
 60 698 l 1
 106 720 149 730 183 730 c 0
 202 730 216 727 216 708 c 0
 216 691 203 625 189 539 c 0
 164 385 133 174 130 94 c 0
 130 83 131 67 149 67 c 0
 154 67 173 69 190 80 c 1
 202 60 l 1
 160 16 114 -10 82 -10 c 0
 59 -10 43 5 43 36 c 0
 43 63 67 219 89 370 c 0
 107 491 123 609 123 651 c 0
EndSplineSet
EndChar
StartChar: Lcommaaccent
Encoding: 315 315 51
Width: 498
GlyphClass: 2
Flags: MW
HStem: -111 77<180 232.5> 0 28<180 289 289 326> 569 28<137 142 258.5 264>
VStem: 212 56
AnchorPoint: "Anchor-0" 217 0 basechar 0
LayerCount: 2
Back
Fore
SplineSet
317 597 m 1
 313 567 l 1
 264 569 l 2
 253 569 245 561 243 548 c 2
 172 41 l 2
 171 32 174 28 180 28 c 2
 289 28 l 2
 377 28 430 78 443 171 c 1
 471 171 l 1
 447 -3 l 1
 434 -1 394 0 326 0 c 2
 18 0 l 1
 22 30 l 1
 65 27 l 2
 74 27 79 37 81 49 c 2
 151 548 l 2
 153 560 147 569 137 569 c 2
 98 567 l 1
 102 597 l 1
 317 597 l 1
215 -34 m 0
 250 -34 268 -59 268 -87 c 0
 268 -144 216 -192 169 -213 c 1
 155 -200 l 1
 183 -185 210 -158 212 -140 c 0
 215 -117 202 -111 188 -111 c 0
 172 -111 162 -97 162 -81 c 0
 162 -59 181 -34 215 -34 c 0
EndSplineSet
EndChar
StartChar: lcommaaccent
Encoding: 316 316 162
Width: 236
GlyphClass: 2
Flags: MW
HStem: -111 77<53 105.5> -10 21G<70.5 98> 675 55
VStem: 43 87<20.5 94> 85 56 123 93<630 717.5>
AnchorPoint: "Anchor-0" 90 0 basechar 0
LayerCount: 2
Back
Fore
SplineSet
123 651 m 0x64
 123 667 110 675 90 675 c 0
 83 675 75 675 66 673 c 1
 60 698 l 1
 106 720 149 730 183 730 c 0
 202 730 216 727 216 708 c 0x64
 216 691 203 625 189 539 c 0
 164 385 133 174 130 94 c 0
 130 83 131 67 149 67 c 0
 154 67 173 69 190 80 c 1
 202 60 l 1
 160 16 114 -10 82 -10 c 0
 59 -10 43 5 43 36 c 0x70
 43 63 67 219 89 370 c 0
 107 491 123 609 123 651 c 0x64
88 -34 m 0xe8
 123 -34 141 -59 141 -87 c 0
 141 -144 89 -192 42 -213 c 1
 28 -200 l 1
 56 -185 83 -158 85 -140 c 0
 88 -117 75 -111 61 -111 c 0
 45 -111 35 -97 35 -81 c 0
 35 -59 54 -34 88 -34 c 0xe8
EndSplineSet
EndChar
StartChar: Lcaron
Encoding: 317 317 50
Width: 498
GlyphClass: 2
Flags: MW
HStem: 0 28<180 289 289 326> 530 77<431 476> 569 28<137 142 258.5 264> 587 20G<444.5 476>
VStem: 453 56
AnchorPoint: "Anchor-0" 217 0 basechar 0
LayerCount: 2
Back
Fore
SplineSet
461 607 m 0x98
 491 607 509 582 509 554 c 0
 509 502 462 457 420 438 c 1
 406 451 l 1
 429 467 451 493 453 511 c 0
 455 526 447 530 439 530 c 0xc8
 423 530 413 544 413 560 c 0
 413 582 428 607 461 607 c 0x98
317 597 m 1xa8
 313 567 l 1
 264 569 l 2
 253 569 245 561 243 548 c 2
 172 41 l 2
 171 32 174 28 180 28 c 2
 289 28 l 2
 377 28 430 78 443 171 c 1
 471 171 l 1
 447 -3 l 1
 434 -1 394 0 326 0 c 2
 18 0 l 1
 22 30 l 1
 65 27 l 2
 74 27 79 37 81 49 c 2
 151 548 l 2
 153 560 147 569 137 569 c 2
 98 567 l 1
 102 597 l 1
 317 597 l 1xa8
EndSplineSet
EndChar
StartChar: lcaron
Encoding: 318 318 161
Width: 236
GlyphClass: 2
Flags: MW
HStem: -10 21G<70.5 98> 530 77<248 293> 587 20G<261.5 293> 675 55
VStem: 43 87<20.5 94> 123 93<630 717.5> 270 56
AnchorPoint: "Anchor-0" 90 0 basechar 0
LayerCount: 2
Back
Fore
SplineSet
123 651 m 0xb6
 123 667 110 675 90 675 c 0
 83 675 75 675 66 673 c 1
 60 698 l 1
 106 720 149 730 183 730 c 0
 202 730 216 727 216 708 c 0xb6
 216 691 203 625 189 539 c 0
 164 385 133 174 130 94 c 0
 130 83 131 67 149 67 c 0
 154 67 173 69 190 80 c 1
 202 60 l 1
 160 16 114 -10 82 -10 c 0
 59 -10 43 5 43 36 c 0xba
 43 63 67 219 89 370 c 0
 107 491 123 609 123 651 c 0xb6
278 607 m 0xba
 308 607 326 582 326 554 c 0
 326 502 279 457 237 438 c 1
 223 451 l 1
 246 467 268 493 270 511 c 0
 272 526 264 530 256 530 c 0xda
 240 530 230 544 230 560 c 0
 230 582 245 607 278 607 c 0xba
EndSplineSet
EndChar
StartChar: Ldot
Encoding: 319 319 52
Width: 498
GlyphClass: 2
Flags: MW
HStem: 0 28<180 289 289 326> 277 115<400 423> 569 28<137 142 258.5 264>
VStem: 349 125<322 345.5>
AnchorPoint: "Anchor-0" 217 0 basechar 0
LayerCount: 2
Back
Fore
SplineSet
317 597 m 1
 313 567 l 1
 264 569 l 2
 253 569 245 561 243 548 c 2
 172 41 l 2
 171 32 174 28 180 28 c 2
 289 28 l 2
 377 28 430 78 443 171 c 1
 471 171 l 1
 447 -3 l 1
 434 -1 394 0 326 0 c 2
 18 0 l 1
 22 30 l 1
 65 27 l 2
 74 27 79 37 81 49 c 2
 151 548 l 2
 153 560 147 569 137 569 c 2
 98 567 l 1
 102 597 l 1
 317 597 l 1
349 326 m 0
 349 365 380 392 420 392 c 0
 452 392 474 373 474 342 c 0
 474 302 442 277 404 277 c 0
 371 277 349 296 349 326 c 0
EndSplineSet
Ligature2: "Ligature Substitution lookup 20 subtable" L periodcentered
Position2: "'cpsp' Capital Spacing lookup 0 per glyph data 2" dx=5 dy=0 dh=10 dv=0
EndChar
StartChar: ldot
Encoding: 320 320 163
Width: 236
GlyphClass: 2
Flags: MW
HStem: -10 21G<70.5 98> 284 105<230.5 248> 675 55
VStem: 43 87<20.5 94> 123 93<630 717.5> 186 106<326.5 346>
AnchorPoint: "Anchor-0" 90 0 basechar 0
LayerCount: 2
Back
Fore
SplineSet
123 651 m 0xe8
 123 667 110 675 90 675 c 0
 83 675 75 675 66 673 c 1
 60 698 l 1
 106 720 149 730 183 730 c 0
 202 730 216 727 216 708 c 0xe8
 216 691 203 625 189 539 c 0
 164 385 133 174 130 94 c 0
 130 83 131 67 149 67 c 0
 154 67 173 69 190 80 c 1
 202 60 l 1
 160 16 114 -10 82 -10 c 0
 59 -10 43 5 43 36 c 0xf4
 43 63 67 219 89 370 c 0
 107 491 123 609 123 651 c 0xe8
186 329 m 0xf4
 186 363 214 389 247 389 c 0
 274 389 292 370 292 344 c 0
 292 309 265 284 231 284 c 0
 205 284 186 303 186 329 c 0xf4
EndSplineSet
Ligature2: "Ligature Substitution lookup 20 subtable" l periodcentered
EndChar
StartChar: lslash
Encoding: 322 322 164
Width: 249
GlyphClass: 2
Flags: MW
HStem: -10 21G<70.5 98> 675 55
VStem: 43 87<20.5 94> 123 93<631.5 717.5>
AnchorPoint: "Anchor-0" 90 0 basechar 0
LayerCount: 2
Back
Fore
SplineSet
242 465 m 1xd0
 169 409 l 1
 150 283 132 153 130 94 c 0
 130 83 131 67 149 67 c 0
 154 67 173 69 190 80 c 1
 202 60 l 1
 160 16 114 -10 82 -10 c 0
 59 -10 43 5 43 36 c 0
 43 62 65 207 86 352 c 1
 17 299 l 1
 24 346 l 1xe0
 93 399 l 1
 109 510 123 612 123 651 c 0
 123 667 110 675 90 675 c 0
 83 675 75 675 66 673 c 1
 60 698 l 1
 106 720 149 730 183 730 c 0
 202 730 216 727 216 708 c 0
 216 691 203 625 189 539 c 0
 185 513 180 484 176 456 c 1
 249 513 l 1
 242 465 l 1xd0
EndSplineSet
EndChar
StartChar: Nacute
Encoding: 323 323 56
Width: 641
GlyphClass: 2
Flags: MW
HStem: -6 21G<479 511 479 479> 0 27<56 62 120.5 126> 569 28<132 138 541 546 602 607>
VStem: 13 639<0 597>
AnchorPoint: "Anchor-0" 318 0 basechar 0
LayerCount: 2
Back
Fore
SplineSet
537 800 m 0x70
 537 795 531 791 527 788 c 2
 356 675 l 2
 352 672 343 666 335 666 c 0
 325 666 321 669 321 673 c 0
 321 678 331 687 341 697 c 2
 448 805 l 2
 463 821 468 826 483 826 c 0
 507 826 537 808 537 800 c 0x70
652 597 m 1
 648 567 l 1
 607 569 l 2
 597 569 591 562 589 548 c 2
 511 -6 l 1
 479 -6 l 1xb0
 179 521 l 1
 113 49 l 2
 111 34 115 27 126 27 c 2
 175 29 l 1
 171 0 l 1
 13 0 l 1
 17 29 l 1
 56 27 l 2
 68 27 75 34 77 49 c 2
 147 548 l 2
 149 560 144 569 132 569 c 2
 93 567 l 1
 97 597 l 1
 249 597 l 1
 498 158 l 1
 553 549 l 2
 555 562 551 569 541 569 c 2
 489 567 l 1
 493 597 l 1
 652 597 l 1
EndSplineSet
EndChar
StartChar: nacute
Encoding: 324 324 167
Width: 504
GlyphClass: 2
Flags: MW
HStem: -10 21G<344 367.5> 0 21G<51 129 51 51> 373 53 375 55<315 339.5> 406 20G<132.5 160>
VStem: 98 90<309.5 415> 321 82<21 108> 369 82<308 339.5>
AnchorPoint: "Anchor-0" 217 0 basechar 0
LayerCount: 2
Back
Fore
SplineSet
236 493 m 0x51
 226 493 222 496 222 500 c 0
 222 505 232 514 242 524 c 2
 349 632 l 2
 364 648 369 653 384 653 c 0
 408 653 438 635 438 627 c 0
 438 622 432 618 428 615 c 2
 257 502 l 2
 253 499 244 493 236 493 c 0x51
459 80 m 1x52
 471 60 l 1
 429 16 382 -10 353 -10 c 0
 335 -10 321 7 321 35 c 0x92
 321 90 369 256 369 324 c 0
 369 355 353 375 326 375 c 0x55
 264 375 173 229 143 114 c 1
 129 0 l 1
 51 0 l 1
 68 103 98 278 98 341 c 0
 98 361 89 373 69 373 c 0
 64 373 57 372 53 371 c 1x65
 48 400 l 1
 79 413 114 426 151 426 c 0
 169 426 188 423 188 407 c 0x4d
 188 389 169 292 158 222 c 1
 198 318 268 430 362 430 c 0
 417 430 451 393 451 340 c 0x55
 451 276 403 126 403 90 c 0
 403 83 405 67 422 67 c 0
 428 67 442 69 459 80 c 1x52
EndSplineSet
EndChar
StartChar: Ncommaaccent
Encoding: 325 325 58
Width: 641
GlyphClass: 2
Flags: MW
HStem: -111 77<281 333.5> -6 21G<479 511 479 479> 0 27<56 62 120.5 126> 569 28<132 138 541 546 602 607>
VStem: 313 56
AnchorPoint: "Anchor-0" 318 0 basechar 0
LayerCount: 2
Back
Fore
SplineSet
652 597 m 1x38
 648 567 l 1
 607 569 l 2
 597 569 591 562 589 548 c 2
 511 -6 l 1
 479 -6 l 1x58
 179 521 l 1
 113 49 l 2
 111 34 115 27 126 27 c 2
 175 29 l 1
 171 0 l 1
 13 0 l 1
 17 29 l 1
 56 27 l 2
 68 27 75 34 77 49 c 2
 147 548 l 2
 149 560 144 569 132 569 c 2
 93 567 l 1
 97 597 l 1
 249 597 l 1
 498 158 l 1
 553 549 l 2
 555 562 551 569 541 569 c 2
 489 567 l 1
 493 597 l 1
 652 597 l 1x38
316 -34 m 0xb8
 351 -34 369 -59 369 -87 c 0
 369 -144 317 -192 270 -213 c 1
 256 -200 l 1
 284 -185 311 -158 313 -140 c 0
 316 -117 303 -111 289 -111 c 0
 273 -111 263 -97 263 -81 c 0
 263 -59 282 -34 316 -34 c 0xb8
EndSplineSet
EndChar
StartChar: ncaron
Encoding: 328 328 168
Width: 504
GlyphClass: 2
Flags: MW
HStem: -10 21G<344 367.5> 0 21G<51 129 51 51> 373 53 375 55<315 339.5> 406 20G<132.5 160>
VStem: 98 90<309.5 415> 321 82<21 108> 369 82<308 339.5>
AnchorPoint: "Anchor-0" 217 0 basechar 0
LayerCount: 2
Back
Fore
SplineSet
226 574 m 2x51
 192 620 161 641 161 649 c 0
 161 651 163 657 174 657 c 0
 181 657 194 650 201 645 c 2
 298 572 l 1
 418 645 l 2
 427 650 439 657 447 657 c 0
 456 657 458 653 458 650 c 0
 458 642 418 618 372 574 c 2
 322 526 l 2
 306 511 293 501 288 501 c 0
 285 501 274 510 262 526 c 2
 226 574 l 2x51
459 80 m 1x52
 471 60 l 1
 429 16 382 -10 353 -10 c 0
 335 -10 321 7 321 35 c 0x92
 321 90 369 256 369 324 c 0
 369 355 353 375 326 375 c 0x55
 264 375 173 229 143 114 c 1
 129 0 l 1
 51 0 l 1
 68 103 98 278 98 341 c 0
 98 361 89 373 69 373 c 0
 64 373 57 372 53 371 c 1x65
 48 400 l 1
 79 413 114 426 151 426 c 0
 169 426 188 423 188 407 c 0x4d
 188 389 169 292 158 222 c 1
 198 318 268 430 362 430 c 0
 417 430 451 393 451 340 c 0x55
 451 276 403 126 403 90 c 0
 403 83 405 67 422 67 c 0
 428 67 442 69 459 80 c 1x52
EndSplineSet
EndChar
StartChar: Omacron
Encoding: 332 332 66
Width: 649
GlyphClass: 2
Flags: MW
HStem: -10 27<251.5 346.5> 580 27<325 421> 676 40<270 506 264 512>
VStem: 50 98<140 261.5 140 402> 524 99<333 457.5>
LayerCount: 2
Back
Fore
SplineSet
512 716 m 1
 506 676 l 1
 264 676 l 1
 270 716 l 1
 512 716 l 1
50 242 m 0
 50 562 271 607 379 607 c 0
 466 607 623 575 623 356 c 0
 623 36 400 -10 293 -10 c 0
 205 -10 50 25 50 242 c 0
148 215 m 0
 148 65 197 17 306 17 c 0
 388 17 444 60 478 139 c 0
 504 200 524 283 524 383 c 0
 524 532 476 580 366 580 c 0
 280 580 222 532 189 443 c 0
 167 385 148 308 148 215 c 0
EndSplineSet
EndChar
StartChar: omacron
Encoding: 333 333 177
Width: 451
GlyphClass: 2
Flags: MW
HStem: -10 32<168.5 222 168.5 253.5> 398 32<230.5 282.5> 567 40<177 413 171 419>
VStem: 28 88<109.5 170 106.5 226.5> 335 88<252.5 310.5 193.5 313.5>
LayerCount: 2
Back
Fore
SplineSet
419 607 m 1
 413 567 l 1
 171 567 l 1
 177 607 l 1
 419 607 l 1
272 430 m 0
 382 430 423 357 423 264 c 0
 423 123 328 -10 179 -10 c 0
 69 -10 28 63 28 156 c 0
 28 297 123 430 272 430 c 0
258 398 m 0
 203 398 162 345 140 285 c 0
 124 241 116 192 116 148 c 0
 116 65 144 22 193 22 c 0
 251 22 295 81 317 152 c 0
 329 191 335 233 335 272 c 0
 335 355 307 398 258 398 c 0
EndSplineSet
EndChar
StartChar: Ohungarumlaut
Encoding: 336 336 65
Width: 649
GlyphClass: 2
Flags: MW
HStem: -10 27<251.5 346.5> 580 27<325 421> 817 9
VStem: 50 98<140 261.5 140 402> 524 99<333 457.5>
LayerCount: 2
Back
Fore
SplineSet
389 826 m 0
 409 826 438 810 438 801 c 0
 438 799 435 795 429 789 c 0
 421 780 405 765 303 672 c 0
 299 668 292 666 286 666 c 0
 279 666 276 669 276 673 c 0
 276 676 277 679 280 683 c 0
 356 795 368 810 373 817 c 0
 379 825 382 826 389 826 c 0
501 826 m 0
 520 826 549 812 549 802 c 0
 549 800 547 796 541 789 c 0
 533 780 512 759 415 672 c 0
 409 667 403 666 398 666 c 0
 391 666 387 670 387 673 c 0
 387 676 389 679 391 683 c 0
 461 779 485 817 485 817 c 1
 492 825 494 826 501 826 c 0
50 242 m 0
 50 562 271 607 379 607 c 0
 466 607 623 575 623 356 c 0
 623 36 400 -10 293 -10 c 0
 205 -10 50 25 50 242 c 0
148 215 m 0
 148 65 197 17 306 17 c 0
 388 17 444 60 478 139 c 0
 504 200 524 283 524 383 c 0
 524 532 476 580 366 580 c 0
 280 580 222 532 189 443 c 0
 167 385 148 308 148 215 c 0
EndSplineSet
EndChar
StartChar: ohungarumlaut
Encoding: 337 337 176
Width: 451
GlyphClass: 2
Flags: MW
HStem: -10 32<168.5 222 168.5 253.5> 398 32<230.5 282.5> 644 9
VStem: 28 88<109.5 170 106.5 226.5> 335 88<252.5 310.5 193.5 313.5>
LayerCount: 2
Back
Fore
SplineSet
286 653 m 0
 306 653 335 637 335 628 c 0
 335 626 332 622 326 616 c 0
 318 607 302 592 200 499 c 0
 196 495 189 493 183 493 c 0
 176 493 173 496 173 500 c 0
 173 503 174 506 177 510 c 0
 253 622 265 637 270 644 c 0
 276 652 279 653 286 653 c 0
398 653 m 0
 417 653 446 639 446 629 c 0
 446 627 444 623 438 616 c 0
 430 607 409 586 312 499 c 0
 306 494 300 493 295 493 c 0
 288 493 284 497 284 500 c 0
 284 503 286 506 288 510 c 0
 358 606 382 644 382 644 c 1
 389 652 391 653 398 653 c 0
272 430 m 0
 382 430 423 357 423 264 c 0
 423 123 328 -10 179 -10 c 0
 69 -10 28 63 28 156 c 0
 28 297 123 430 272 430 c 0
258 398 m 0
 203 398 162 345 140 285 c 0
 124 241 116 192 116 148 c 0
 116 65 144 22 193 22 c 0
 251 22 295 81 317 152 c 0
 329 191 335 233 335 272 c 0
 335 355 307 398 258 398 c 0
EndSplineSet
EndChar
StartChar: OE
Encoding: 338 338 69
Width: 834
GlyphClass: 2
Flags: MW
HStem: -10 28<245 299> 0 27<492 603 603 647> 297 27<523 591 519 595> 406 20G<682 711 711 711> 443 154<776 805 776 776> 569 28<564.5 568 568 659> 581 26<320.5 403>
VStem: 50 94<158 252 144.5 347> 682 29<426 426> 778.55 26.45
LayerCount: 2
Back
Fore
SplineSet
387 607 m 0xb3
 438 607 465 597 510 597 c 2
 827 597 l 1x75
 805 443 l 1
 776 443 l 1x7940
 789 534 753 569 659 569 c 2
 568 569 l 2
 561 569 556 564 555 555 c 2
 523 324 l 1
 595 324 l 2
 636 324 673 362 682 426 c 1
 711 426 l 1
 678 195 l 1
 649 195 l 1
 658 255 630 297 591 297 c 2
 519 297 l 1
 483 40 l 2
 482 31 485 27 492 27 c 2
 603 27 l 2
 691 27 745 82 758 179 c 1
 787 179 l 1
 762 -3 l 1
 745 -1 717 0 675 0 c 2
 434 0 l 2x7580
 364 0 300 -10 298 -10 c 0
 137 -10 50 79 50 237 c 0
 50 457 151 607 387 607 c 0xb3
377 581 m 0
 264 581 202 520 172 422 c 1
 150 363 144 292 144 212 c 0
 144 77 192 18 298 18 c 0
 374 18 397 56 402 90 c 2
 463 526 l 2
 467 557 429 581 377 581 c 0
EndSplineSet
Position2: "'cpsp' Capital Spacing lookup 0 per glyph data 2" dx=5 dy=0 dh=10 dv=0
EndChar
StartChar: oe
Encoding: 339 339 180
Width: 699
GlyphClass: 2
Flags: MW
HStem: -12 54<470 499.5> -10 32<168.5 213> 178 32 397 30<538 582> 398 32<230.5 282.5>
VStem: 28 88<109.5 170 106.5 226.5> 335 85 619 71<303.5 350.5>
AnchorPoint: "Anchor-0" 449 -3 basechar 0
LayerCount: 2
Back
Fore
SplineSet
690 329 m 0x77
 690 263 616 192 416 178 c 1
 415 169 415 160 415 151 c 0
 415 83 448 42 492 42 c 0
 527 42 572 64 624 97 c 1
 646 81 l 1
 597 30 532 -12 467 -12 c 0xaf
 413 -12 369 15 345 61 c 1
 303 18 247 -10 179 -10 c 0
 69 -10 28 63 28 156 c 0
 28 297 123 430 272 430 c 0x6f
 345 430 388 398 408 348 c 1
 451 396 506 427 564 427 c 0
 638 427 690 382 690 329 c 0x77
193 22 m 0x6f
 251 22 295 81 317 152 c 0
 329 191 335 233 335 272 c 0
 335 355 307 398 258 398 c 0
 203 398 162 345 140 285 c 0
 124 241 116 192 116 148 c 0
 116 65 144 22 193 22 c 0x6f
562 397 m 0x77
 514 397 478 363 453 316 c 0
 437 284 425 247 420 210 c 1
 551 220 619 272 619 335 c 0
 619 366 602 397 562 397 c 0x77
EndSplineSet
EndChar
StartChar: Racute
Encoding: 340 340 74
Width: 563
GlyphClass: 2
Flags: MW
HStem: -10 36<411 493> 0 27<61 66.5 183 188> 286 27<210 253 206 299> 569 28<133 141.5 253 256 256 316>
VStem: 371 93<37.5 205.5> 412 93<421 501.5>
AnchorPoint: "Anchor-0" 251 0 basechar 0
LayerCount: 2
Back
Fore
SplineSet
493 800 m 0x78
 493 795 487 791 483 788 c 2
 312 675 l 2
 308 672 299 666 291 666 c 0
 281 666 277 669 277 673 c 0
 277 678 287 687 297 697 c 2
 404 805 l 2
 419 821 424 826 439 826 c 0
 463 826 493 808 493 800 c 0x78
320 597 m 2x74
 447 597 505 557 505 468 c 0x74
 505 374 441 317 365 297 c 1
 435 287 464 239 464 172 c 0
 464 149 460 89 460 69 c 0
 460 40 468 26 489 26 c 0
 497 26 504 28 510 32 c 1
 518 13 l 1
 498 2 462 -10 431 -10 c 0
 391 -10 371 11 371 64 c 0
 371 93 377 134 377 161 c 0xb8
 377 250 319 283 253 286 c 1
 206 286 l 1
 173 41 l 1
 173 33 178 27 188 27 c 2
 237 29 l 1
 233 0 l 1
 18 0 l 1
 22 29 l 1
 61 27 l 2
 72 27 79 34 81 49 c 2
 150 542 l 2
 152 559 150 569 133 569 c 2
 98 567 l 1
 102 597 l 1
 320 597 l 2x74
316 569 m 2
 256 569 l 2
 250 569 246 566 245 559 c 2
 210 313 l 1
 299 313 l 2
 366 313 412 373 412 465 c 0
 412 538 383 569 316 569 c 2
EndSplineSet
EndChar
StartChar: racute
Encoding: 341 341 185
Width: 368
GlyphClass: 2
Flags: MW
HStem: 0 21G<51 129 51 51> 373 53 380 50<275 288.5> 406 20G<132.5 160>
VStem: 98 90<309.5 415> 301 74<357.5 367.5>
AnchorPoint: "Anchor-0" 98 0 basechar 0
LayerCount: 2
Back
Fore
SplineSet
124 493 m 0xac
 114 493 110 496 110 500 c 0
 110 505 120 514 130 524 c 2
 237 632 l 2
 252 648 257 653 272 653 c 0
 296 653 326 635 326 627 c 0
 326 622 320 618 316 615 c 2
 145 502 l 2
 141 499 132 493 124 493 c 0xac
307 430 m 0
 349 430 375 394 375 358 c 0
 375 331 360 298 323 298 c 0
 302 298 289 308 289 326 c 0
 289 343 301 352 301 363 c 0
 301 372 294 380 283 380 c 0xac
 234 380 164 219 141 96 c 1
 129 0 l 1
 51 0 l 1
 68 103 98 278 98 341 c 0
 98 361 89 373 69 373 c 0
 64 373 57 372 53 371 c 1xcc
 48 400 l 1
 79 413 114 426 151 426 c 0
 169 426 188 423 188 407 c 0x9c
 188 392 174 319 163 255 c 1
 196 340 243 430 307 430 c 0
EndSplineSet
EndChar
StartChar: Rcommaaccent
Encoding: 342 342 76
Width: 563
GlyphClass: 2
Flags: MW
HStem: -111 77<214 266.5> -10 36<411 493> 0 27<61 66.5 183 188> 286 27<210 253 206 299> 569 28<133 141.5 253 256 256 316>
VStem: 246 56 371 93<37.5 205.5> 412 93<421 501.5>
AnchorPoint: "Anchor-0" 251 0 basechar 0
LayerCount: 2
Back
Fore
SplineSet
320 597 m 2x39
 447 597 505 557 505 468 c 0x39
 505 374 441 317 365 297 c 1
 435 287 464 239 464 172 c 0
 464 149 460 89 460 69 c 0
 460 40 468 26 489 26 c 0
 497 26 504 28 510 32 c 1
 518 13 l 1
 498 2 462 -10 431 -10 c 0
 391 -10 371 11 371 64 c 0
 371 93 377 134 377 161 c 0x5a
 377 250 319 283 253 286 c 1
 206 286 l 1
 173 41 l 1
 173 33 178 27 188 27 c 2
 237 29 l 1
 233 0 l 1
 18 0 l 1
 22 29 l 1
 61 27 l 2
 72 27 79 34 81 49 c 2
 150 542 l 2
 152 559 150 569 133 569 c 2
 98 567 l 1
 102 597 l 1
 320 597 l 2x39
316 569 m 2
 256 569 l 2
 250 569 246 566 245 559 c 2
 210 313 l 1
 299 313 l 2
 366 313 412 373 412 465 c 0
 412 538 383 569 316 569 c 2
249 -34 m 0xbe
 284 -34 302 -59 302 -87 c 0
 302 -144 250 -192 203 -213 c 1
 189 -200 l 1
 217 -185 244 -158 246 -140 c 0
 249 -117 236 -111 222 -111 c 0
 206 -111 196 -97 196 -81 c 0
 196 -59 215 -34 249 -34 c 0xbe
EndSplineSet
EndChar
StartChar: Rcaron
Encoding: 344 344 75
Width: 563
GlyphClass: 2
Flags: MW
HStem: -10 36<411 493> 0 27<61 66.5 183 188> 286 27<210 253 206 299> 569 28<133 141.5 253 256 256 316>
VStem: 371 93<37.5 205.5> 412 93<421 501.5>
AnchorPoint: "Anchor-0" 251 0 basechar 0
LayerCount: 2
Back
Fore
SplineSet
500 824 m 0x78
 509 824 511 820 511 817 c 0
 511 809 471 785 425 741 c 2
 375 693 l 2
 359 678 346 668 341 668 c 0
 338 668 327 677 315 693 c 2
 279 741 l 2
 245 787 214 808 214 816 c 0
 214 818 216 824 227 824 c 0
 234 824 247 817 254 812 c 2
 351 739 l 1
 471 812 l 2
 480 817 492 824 500 824 c 0x78
320 597 m 2x74
 447 597 505 557 505 468 c 0x74
 505 374 441 317 365 297 c 1
 435 287 464 239 464 172 c 0
 464 149 460 89 460 69 c 0
 460 40 468 26 489 26 c 0
 497 26 504 28 510 32 c 1
 518 13 l 1
 498 2 462 -10 431 -10 c 0
 391 -10 371 11 371 64 c 0
 371 93 377 134 377 161 c 0xb8
 377 250 319 283 253 286 c 1
 206 286 l 1
 173 41 l 1
 173 33 178 27 188 27 c 2
 237 29 l 1
 233 0 l 1
 18 0 l 1
 22 29 l 1
 61 27 l 2
 72 27 79 34 81 49 c 2
 150 542 l 2
 152 559 150 569 133 569 c 2
 98 567 l 1
 102 597 l 1
 320 597 l 2x74
316 569 m 2
 256 569 l 2
 250 569 246 566 245 559 c 2
 210 313 l 1
 299 313 l 2
 366 313 412 373 412 465 c 0
 412 538 383 569 316 569 c 2
EndSplineSet
EndChar
StartChar: sacute
Encoding: 347 347 189
Width: 352
GlyphClass: 2
Flags: MW
HStem: -10 27<116 165.5 116 186.5> 403 27<179.5 226.5>
VStem: -7 76<56 67.5 46 98> 37 79 238 80 269 76<352.5 365 325 374.5>
AnchorPoint: "Anchor-0" 134 0 basechar 0
LayerCount: 2
Back
Fore
SplineSet
312 653 m 0xd8
 336 653 366 635 366 627 c 0
 366 622 360 618 356 615 c 2
 185 502 l 2
 181 499 172 493 164 493 c 0
 154 493 150 496 150 500 c 0
 150 505 160 514 170 524 c 2
 277 632 l 2
 292 648 297 653 312 653 c 0xd8
208 430 m 0xd4
 289 430 345 389 345 341 c 0
 345 309 324 287 292 287 c 0
 272 287 256 299 256 313 c 0
 256 333 269 343 269 362 c 0xd4
 269 387 246 403 207 403 c 0
 152 403 116 370 116 329 c 0xd8
 118 238 316 238 318 123 c 0
 319 36 235 -10 138 -10 c 0
 48 -10 -7 31 -7 81 c 0
 -7 115 14 137 45 137 c 0
 66 137 84 125 84 111 c 0
 84 91 69 77 69 58 c 0xe8
 69 34 91 17 141 17 c 0
 190 17 238 39 238 91 c 1xd8
 236 177 39 175 37 297 c 0
 36 374 117 430 208 430 c 0xd4
EndSplineSet
EndChar
StartChar: Scedilla
Encoding: 350 350 80
Width: 479
GlyphClass: 2
Flags: MW
HStem: -214 27<176.5 178.5 156.5 218.5> -9 27<212 212 248 248> 434 138<431 439 431 447 419 439> 580 27<261 311 223 337>
VStem: 45 26<114.5 203> 83 88<453.5 481 453.5 483.5> 166 49<-68.5 -64> 221 68<-143.5 -122.5> 343 95<123.5 164.5> 419 27<434 496.5>
AnchorPoint: "Anchor-0" 227 0 basechar 0
LayerCount: 2
Back
Fore
SplineSet
447 434 m 1xf540
 419 434 l 1
 431 522 377 580 297 580 c 0
 225 580 172 542 171 481 c 0
 171 426 214 395 267 365 c 2xd540
 329 330 l 1
 387 296 438 254 438 176 c 0
 438 71 349 0 248 -9 c 1
 224 -43 l 2
 218 -51 215 -59 215 -63 c 0xd280
 215 -85 289 -73 289 -117 c 0
 289 -170 252 -214 185 -214 c 0
 168 -214 140 -213 119 -198 c 1
 131 -171 l 1
 138 -182 150 -187 163 -187 c 0
 194 -187 221 -161 221 -130 c 0
 221 -115 208 -103 196 -94 c 2xd580
 176 -80 l 2
 170 -76 166 -71 166 -66 c 0
 166 -62 168 -58 175 -52 c 1
 212 -9 l 1
 186 -8 161 -3 139 3 c 0
 109 10 84 18 69 18 c 0
 49 18 22 11 20 10 c 1
 26 28 45 57 45 172 c 0
 45 183 45 199 44 203 c 1
 71 203 l 1xda80
 68 82 117 18 221 18 c 0
 284 18 343 67 343 132 c 0
 343 197 297 231 244 261 c 2
 195 288 l 2
 136 321 83 360 83 441 c 0
 83 526 157 607 289 607 c 0xd580
 333 607 359 596 409 578 c 0
 419 574 428 572 434 572 c 0
 444 572 454 573 465 577 c 1
 460 560 446 535 446 458 c 0
 446 448 446 439 447 434 c 1xf540
EndSplineSet
EndChar
StartChar: scedilla
Encoding: 351 351 191
Width: 352
GlyphClass: 2
Flags: MW
HStem: -214 27<83.5 85.5 63.5 125.5> -9 26<119 119> 403 27<179.5 226.5>
VStem: -7 76<58 67.5 46 98> 37 79 73 49<-68.5 -64> 128 68<-143.5 -122.5> 238 80 269 76<352.5 365 325 374.5>
AnchorPoint: "Anchor-0" 134 0 basechar 0
LayerCount: 2
Back
Fore
SplineSet
292 287 m 0xe880
 272 287 256 299 256 313 c 0
 256 333 269 343 269 362 c 0xe880
 269 387 246 403 207 403 c 0
 152 403 116 370 116 329 c 0xe9
 118 238 316 238 318 123 c 0
 319 41 245 -4 155 -10 c 1
 131 -43 l 2
 125 -51 122 -59 122 -63 c 0xe5
 122 -85 196 -73 196 -117 c 0
 196 -170 159 -214 92 -214 c 0
 75 -214 47 -213 26 -198 c 1
 38 -171 l 1
 45 -182 57 -187 70 -187 c 0
 101 -187 128 -161 128 -130 c 0
 128 -115 115 -103 103 -94 c 2xeb
 83 -80 l 2
 77 -76 73 -71 73 -66 c 0
 73 -62 75 -58 82 -52 c 1xe5
 119 -9 l 1
 40 -4 -7 35 -7 81 c 0
 -7 115 14 137 45 137 c 0
 66 137 84 125 84 111 c 0
 84 91 69 77 69 58 c 0xf1
 69 34 91 17 141 17 c 0
 190 17 238 39 238 91 c 1xe9
 236 177 39 175 37 297 c 0
 36 374 117 430 208 430 c 0
 289 430 345 389 345 341 c 0
 345 309 324 287 292 287 c 0xe880
EndSplineSet
EndChar
StartChar: scaron
Encoding: 353 353 190
Width: 352
GlyphClass: 2
Flags: MW
HStem: -10 27<116 165.5 116 186.5> 403 27<179.5 226.5>
VStem: -7 76<56 67.5 46 98> 37 79 238 80 269 76<352.5 365 325 374.5>
AnchorPoint: "Anchor-0" 134 0 basechar 0
LayerCount: 2
Back
Fore
SplineSet
375 657 m 0xd8
 384 657 386 653 386 650 c 0
 386 642 346 618 300 574 c 2
 250 526 l 2
 234 511 221 501 216 501 c 0
 213 501 202 510 190 526 c 2
 154 574 l 2
 120 620 89 641 89 649 c 0
 89 651 91 657 102 657 c 0
 109 657 122 650 129 645 c 2
 226 572 l 1
 346 645 l 2
 355 650 367 657 375 657 c 0xd8
208 430 m 0xd4
 289 430 345 389 345 341 c 0
 345 309 324 287 292 287 c 0
 272 287 256 299 256 313 c 0
 256 333 269 343 269 362 c 0xd4
 269 387 246 403 207 403 c 0
 152 403 116 370 116 329 c 0xd8
 118 238 316 238 318 123 c 0
 319 36 235 -10 138 -10 c 0
 48 -10 -7 31 -7 81 c 0
 -7 115 14 137 45 137 c 0
 66 137 84 125 84 111 c 0
 84 91 69 77 69 58 c 0xe8
 69 34 91 17 141 17 c 0
 190 17 238 39 238 91 c 1xd8
 236 177 39 175 37 297 c 0
 36 374 117 430 208 430 c 0xd4
EndSplineSet
EndChar
StartChar: uni0162
Encoding: 354 354 84
Width: 512
GlyphClass: 2
Flags: MW
HStem: -214 27<175.5 177.5 155.5 217.5> 0 27<167 172.5 167 219 288.5 294> 443 154<46 512 46 512 502 512 512 523 108 530 502 502> 569 28<167.5 210 210 250 360 363 363 403> 580 20G<552 552>
VStem: 165 49<-68.5 -64> 220 68<-143.5 -122.5> 504.67 25.33
AnchorPoint: "Anchor-0" 226 0 basechar 0
LayerCount: 2
Back
Fore
SplineSet
512 597 m 2xd3
 534 597 548 598 552 600 c 1xcb
 530 443 l 1
 502 443 l 1xe3
 514 528 488 569 403 569 c 2
 363 569 l 2
 357 569 352 564 351 558 c 2
 280 49 l 2
 278 34 283 27 294 27 c 2
 347 29 l 1
 343 0 l 1
 254 0 l 1
 223 -43 l 2
 217 -51 214 -59 214 -63 c 0xd5
 214 -85 288 -73 288 -117 c 0
 288 -170 251 -214 184 -214 c 0
 167 -214 139 -213 118 -198 c 1
 130 -171 l 1
 137 -182 149 -187 162 -187 c 0
 193 -187 220 -161 220 -130 c 0
 220 -115 207 -103 195 -94 c 2xd3
 175 -80 l 2
 169 -76 165 -71 165 -66 c 0
 165 -62 167 -58 174 -52 c 1
 219 0 l 1
 109 0 l 1
 113 29 l 1
 167 27 l 2
 178 27 185 39 187 52 c 2
 258 557 l 2
 259 565 256 569 250 569 c 2
 210 569 l 2xd5
 125 569 86 528 74 443 c 1
 46 443 l 1xe5
 68 599 l 1
 76 598 90 597 108 597 c 2
 512 597 l 2xd3
EndSplineSet
EndChar
StartChar: uni0163
Encoding: 355 355 196
Width: 322
GlyphClass: 2
Flags: MW
HStem: -214 27<90.5 92.5 70.5 132.5> -8 21G<127 127> 389 31<70 118 43 123 207 285> 405 15<314 314>
VStem: 69 87<40.5 105> 80 49<-68.5 -64> 135 68<-143.5 -122.5>
AnchorPoint: "Anchor-0" 141 0 basechar 0
LayerCount: 2
Back
Fore
SplineSet
201 389 m 1xe2
 177 254 l 2
 168 201 156 119 156 91 c 0
 156 68 164 51 184 51 c 0xe8
 209 51 240 76 264 100 c 1
 286 84 l 1
 251 38 213 2 164 -7 c 1
 138 -43 l 2
 132 -51 129 -59 129 -63 c 0xe4
 129 -85 203 -73 203 -117 c 0
 203 -170 166 -214 99 -214 c 0
 82 -214 54 -213 33 -198 c 1
 45 -171 l 1
 52 -182 64 -187 77 -187 c 0
 108 -187 135 -161 135 -130 c 0
 135 -115 122 -103 110 -94 c 2xe2
 90 -80 l 2
 84 -76 80 -71 80 -66 c 0
 80 -62 82 -58 89 -52 c 1xe4
 127 -8 l 1
 84 -4 69 24 69 57 c 0
 69 86 79 143 92 226 c 2
 118 389 l 1
 43 389 l 1
 70 420 l 1
 123 420 l 1
 140 524 l 1
 230 540 l 1
 228 531 219 480 207 420 c 1
 314 420 l 1xe8
 314 405 l 1xd2
 285 389 l 1
 201 389 l 1xe2
EndSplineSet
EndChar
StartChar: Tcaron
Encoding: 356 356 83
Width: 512
GlyphClass: 2
Flags: MW
HStem: 0 27<167 172.5 288.5 294> 443 154<46 512 46 512 502 512 512 523 108 530 502 502> 569 28<167.5 210 210 250 360 363 363 403> 580 20G<552 552>
VStem: 504.67 25.33
AnchorPoint: "Anchor-0" 226 0 basechar 0
LayerCount: 2
Back
Fore
SplineSet
471 824 m 0xa8
 480 824 482 820 482 817 c 0
 482 809 442 785 396 741 c 2
 346 693 l 2
 330 678 317 668 312 668 c 0
 309 668 298 677 286 693 c 2
 250 741 l 2
 216 787 185 808 185 816 c 0
 185 818 187 824 198 824 c 0
 205 824 218 817 225 812 c 2
 322 739 l 1
 442 812 l 2
 451 817 463 824 471 824 c 0xa8
552 600 m 1x98
 530 443 l 1
 502 443 l 1xc8
 514 528 488 569 403 569 c 2
 363 569 l 2
 357 569 352 564 351 558 c 2
 280 49 l 2
 278 34 283 27 294 27 c 2
 347 29 l 1
 343 0 l 1
 109 0 l 1
 113 29 l 1
 167 27 l 2
 178 27 185 39 187 52 c 2
 258 557 l 2
 259 565 256 569 250 569 c 2
 210 569 l 2xa8
 125 569 86 528 74 443 c 1
 46 443 l 1xc8
 68 599 l 1
 76 598 90 597 108 597 c 2
 512 597 l 2xa8
 534 597 548 598 552 600 c 1x98
EndSplineSet
EndChar
StartChar: tcaron
Encoding: 357 357 195
Width: 322
GlyphClass: 2
Flags: MW
HStem: -9 60<113.5 196.5> 389 31<70 118 43 123 207 285> 405 15<314 314> 530 77<285 330> 587 20G<298.5 330>
VStem: 69 87<39 105> 307 56
AnchorPoint: "Anchor-0" 141 0 basechar 0
LayerCount: 2
Back
Fore
SplineSet
315 607 m 0xce
 345 607 363 582 363 554 c 0
 363 502 316 457 274 438 c 1
 260 451 l 1
 283 467 305 493 307 511 c 0
 309 526 301 530 293 530 c 0xd6
 277 530 267 544 267 560 c 0
 267 582 282 607 315 607 c 0xce
230 540 m 1
 228 531 219 480 207 420 c 1
 314 420 l 1xce
 314 405 l 1xae
 285 389 l 1
 201 389 l 1
 177 254 l 2
 168 201 156 119 156 91 c 0
 156 68 164 51 184 51 c 0
 209 51 240 76 264 100 c 1
 286 84 l 1
 246 31 201 -9 140 -9 c 0
 87 -9 69 21 69 57 c 0
 69 86 79 143 92 226 c 2
 118 389 l 1
 43 389 l 1
 70 420 l 1
 123 420 l 1
 140 524 l 1
 230 540 l 1
EndSplineSet
EndChar
StartChar: Umacron
Encoding: 362 362 92
Width: 631
GlyphClass: 2
Flags: MW
HStem: -10 36<270.5 375.5> 569 28<123 127.5 244.5 250 548 553 613 618> 676 40<270 506 264 512>
VStem: 84.41 92.78
LayerCount: 2
Back
Fore
SplineSet
512 716 m 1
 506 676 l 1
 264 676 l 1
 270 716 l 1
 512 716 l 1
661 597 m 1
 657 567 l 1
 618 569 l 2
 608 569 601 562 599 549 c 2
 548 189 l 2
 529 54 448 -10 303 -10 c 0
 147 -10 68 62 87 199 c 2
 136 548 l 2
 138 560 132 569 123 569 c 2
 84 567 l 1
 88 597 l 1
 303 597 l 1
 299 567 l 1
 250 569 l 2
 239 569 231 562 229 549 c 2
 180 199 l 1
 164 92 217 26 324 26 c 0
 438 26 495 82 512 198 c 2
 561 548 l 2
 563 561 558 569 548 569 c 2
 499 567 l 1
 503 597 l 1
 661 597 l 1
EndSplineSet
EndChar
StartChar: umacron
Encoding: 363 363 204
Width: 489
GlyphClass: 2
Flags: MW
HStem: -10 55<157.5 167> 406 20G<137.5 165> 408 20G<458 458> 567 40<181 417 175 423>
VStem: 54 82<84 100.5> 314 86<20.5 105>
LayerCount: 2
Back
Fore
SplineSet
423 607 m 1xbc
 417 567 l 1
 175 567 l 1
 181 607 l 1
 423 607 l 1xbc
451 80 m 1
 463 60 l 1
 414 7 368 -10 338 -10 c 0
 319 -10 314 5 314 36 c 0
 314 64 322 118 331 179 c 1
 255 39 198 -10 136 -10 c 0
 80 -10 54 26 54 70 c 0
 54 131 103 304 104 344 c 0
 105 368 88 373 67 373 c 0
 59 373 51 372 47 371 c 1
 42 400 l 1
 81 413 118 426 157 426 c 0
 173 426 189 422 189 407 c 0xdc
 189 377 136 157 136 99 c 0
 136 69 145 45 170 45 c 0
 228 45 319 188 348 292 c 1
 366 411 l 1
 458 428 l 1
 418 224 400 126 400 84 c 0
 400 73 404 67 413 67 c 0
 421 67 434 69 451 80 c 1
EndSplineSet
EndChar
StartChar: Uring
Encoding: 366 366 94
Width: 631
GlyphClass: 2
Flags: MW
HStem: -10 36<270.5 375.5> 569 28<123 127.5 244.5 250 548 553 613 618> 666 36<380 402.5 380 412> 793 36<390.5 413.5>
VStem: 84.41 92.78 316 45<730.5 755.5 730.5 764> 433 46<740.5 765>
LayerCount: 2
Back
Fore
SplineSet
316 738 m 0
 316 790 359 829 408 829 c 0
 453 829 479 802 479 758 c 0
 479 704 439 666 385 666 c 0
 341 666 316 694 316 738 c 0
361 742 m 0
 361 719 370 702 390 702 c 0
 415 702 433 727 433 754 c 0
 433 776 424 793 403 793 c 0
 378 793 361 769 361 742 c 0
661 597 m 1
 657 567 l 1
 618 569 l 2
 608 569 601 562 599 549 c 2
 548 189 l 2
 529 54 448 -10 303 -10 c 0
 147 -10 68 62 87 199 c 2
 136 548 l 2
 138 560 132 569 123 569 c 2
 84 567 l 1
 88 597 l 1
 303 597 l 1
 299 567 l 1
 250 569 l 2
 239 569 231 562 229 549 c 2
 180 199 l 1
 164 92 217 26 324 26 c 0
 438 26 495 82 512 198 c 2
 561 548 l 2
 563 561 558 569 548 569 c 2
 499 567 l 1
 503 597 l 1
 661 597 l 1
EndSplineSet
EndChar
StartChar: uring
Encoding: 367 367 206
Width: 489
GlyphClass: 2
Flags: MW
HStem: -10 55<157.5 167> 406 20G<137.5 165> 408 20G<458 458> 493 36<282 304.5 282 314> 620 36<292.5 315.5>
VStem: 54 82<84 100.5> 218 45<557.5 582.5 557.5 591> 314 86<20.5 105> 335 46<567.5 592>
LayerCount: 2
Back
Fore
SplineSet
287 493 m 0xbe80
 243 493 218 521 218 565 c 0
 218 617 261 656 310 656 c 0
 355 656 381 629 381 585 c 0
 381 531 341 493 287 493 c 0xbe80
305 620 m 0
 280 620 263 596 263 569 c 0
 263 546 272 529 292 529 c 0
 317 529 335 554 335 581 c 0
 335 603 326 620 305 620 c 0
451 80 m 1xbf
 463 60 l 1
 414 7 368 -10 338 -10 c 0
 319 -10 314 5 314 36 c 0
 314 64 322 118 331 179 c 1
 255 39 198 -10 136 -10 c 0
 80 -10 54 26 54 70 c 0
 54 131 103 304 104 344 c 0
 105 368 88 373 67 373 c 0
 59 373 51 372 47 371 c 1
 42 400 l 1
 81 413 118 426 157 426 c 0
 173 426 189 422 189 407 c 0xdf
 189 377 136 157 136 99 c 0
 136 69 145 45 170 45 c 0
 228 45 319 188 348 292 c 1
 366 411 l 1
 458 428 l 1
 418 224 400 126 400 84 c 0
 400 73 404 67 413 67 c 0
 421 67 434 69 451 80 c 1xbf
EndSplineSet
EndChar
StartChar: Uhungarumlaut
Encoding: 368 368 91
Width: 631
GlyphClass: 2
Flags: MW
HStem: -10 36<270.5 375.5> 569 28<123 127.5 244.5 250 548 553 613 618> 817 9
VStem: 84.41 92.78
LayerCount: 2
Back
Fore
SplineSet
389 826 m 0
 409 826 438 810 438 801 c 0
 438 799 435 795 429 789 c 0
 421 780 405 765 303 672 c 0
 299 668 292 666 286 666 c 0
 279 666 276 669 276 673 c 0
 276 676 277 679 280 683 c 0
 356 795 368 810 373 817 c 0
 379 825 382 826 389 826 c 0
501 826 m 0
 520 826 549 812 549 802 c 0
 549 800 547 796 541 789 c 0
 533 780 512 759 415 672 c 0
 409 667 403 666 398 666 c 0
 391 666 387 670 387 673 c 0
 387 676 389 679 391 683 c 0
 461 779 485 817 485 817 c 1
 492 825 494 826 501 826 c 0
661 597 m 1
 657 567 l 1
 618 569 l 2
 608 569 601 562 599 549 c 2
 548 189 l 2
 529 54 448 -10 303 -10 c 0
 147 -10 68 62 87 199 c 2
 136 548 l 2
 138 560 132 569 123 569 c 2
 84 567 l 1
 88 597 l 1
 303 597 l 1
 299 567 l 1
 250 569 l 2
 239 569 231 562 229 549 c 2
 180 199 l 1
 164 92 217 26 324 26 c 0
 438 26 495 82 512 198 c 2
 561 548 l 2
 563 561 558 569 548 569 c 2
 499 567 l 1
 503 597 l 1
 661 597 l 1
EndSplineSet
EndChar
StartChar: uhungarumlaut
Encoding: 369 369 203
Width: 489
GlyphClass: 2
Flags: MW
HStem: -10 55<157.5 167> 406 20G<137.5 165> 408 20G<458 458> 644 9
VStem: 54 82<84 100.5> 314 86<20.5 105>
LayerCount: 2
Back
Fore
SplineSet
187 493 m 0xbc
 180 493 177 496 177 500 c 0
 177 503 178 506 181 510 c 0
 257 622 269 637 274 644 c 0
 280 652 283 653 290 653 c 0
 310 653 339 637 339 628 c 0
 339 626 336 622 330 616 c 0
 322 607 306 592 204 499 c 0
 200 495 193 493 187 493 c 0xbc
288 500 m 0
 288 503 290 506 292 510 c 0
 362 606 386 644 386 644 c 1
 393 652 395 653 402 653 c 0
 421 653 450 639 450 629 c 0
 450 627 448 623 442 616 c 0
 434 607 413 586 316 499 c 0
 310 494 304 493 299 493 c 0
 292 493 288 497 288 500 c 0
451 80 m 1
 463 60 l 1
 414 7 368 -10 338 -10 c 0
 319 -10 314 5 314 36 c 0
 314 64 322 118 331 179 c 1
 255 39 198 -10 136 -10 c 0
 80 -10 54 26 54 70 c 0
 54 131 103 304 104 344 c 0
 105 368 88 373 67 373 c 0
 59 373 51 372 47 371 c 1
 42 400 l 1
 81 413 118 426 157 426 c 0
 173 426 189 422 189 407 c 0xdc
 189 377 136 157 136 99 c 0
 136 69 145 45 170 45 c 0
 228 45 319 188 348 292 c 1
 366 411 l 1
 458 428 l 1
 418 224 400 126 400 84 c 0
 400 73 404 67 413 67 c 0
 421 67 434 69 451 80 c 1
EndSplineSet
EndChar
StartChar: Uogonek
Encoding: 370 370 93
Width: 631
GlyphClass: 2
Flags: MW
HStem: -159 43<362.5 429.5> -10 36<270.5 315.5> 569 28<123 127.5 244.5 250 548 553 613 618>
VStem: 84.41 92.78 316 58<-83.5 -80.5>
LayerCount: 2
Back
Fore
SplineSet
503 597 m 1
 661 597 l 1
 657 567 l 1
 618 569 l 2
 608 569 601 562 599 549 c 2
 548 189 l 2
 536 100 496 42 430 13 c 1
 396 -4 374 -36 374 -71 c 0
 374 -96 387 -116 419 -116 c 0
 440 -116 463 -105 488 -85 c 1
 500 -99 l 1
 464 -137 421 -159 379 -159 c 0
 346 -159 316 -138 316 -97 c 0
 316 -64 335 -30 371 -4 c 1
 350 -8 328 -10 303 -10 c 0
 147 -10 68 62 87 199 c 2
 136 548 l 2
 138 560 132 569 123 569 c 2
 84 567 l 1
 88 597 l 1
 303 597 l 1
 299 567 l 1
 250 569 l 2
 239 569 231 562 229 549 c 2
 180 199 l 1
 164 92 217 26 324 26 c 0
 438 26 495 82 512 198 c 2
 561 548 l 2
 563 561 558 569 548 569 c 2
 499 567 l 1
 503 597 l 1
EndSplineSet
EndChar
StartChar: uogonek
Encoding: 371 371 205
Width: 489
GlyphClass: 2
Flags: MW
HStem: -159 43<339.5 406.5> -10 55<157.5 167> 406 20G<137.5 165> 408 20G<458 458>
VStem: 54 82<84 100.5> 293 58<-83.5 -81.5> 314 86<20.5 105>
LayerCount: 2
Back
Fore
SplineSet
465 -85 m 1xdc
 477 -99 l 1
 441 -137 398 -159 356 -159 c 0
 323 -159 293 -138 293 -97 c 0xdc
 293 -66 309 -35 341 -10 c 1
 338 -10 l 2
 319 -10 314 5 314 36 c 0
 314 64 322 118 331 179 c 1
 255 39 198 -10 136 -10 c 0
 80 -10 54 26 54 70 c 0
 54 131 103 304 104 344 c 0
 105 368 88 373 67 373 c 0
 59 373 51 372 47 371 c 1
 42 400 l 1
 81 413 118 426 157 426 c 0
 173 426 189 422 189 407 c 0xea
 189 377 136 157 136 99 c 0
 136 69 145 45 170 45 c 0
 228 45 319 188 348 292 c 1
 366 411 l 1
 458 428 l 1
 418 224 400 126 400 84 c 0
 400 73 404 67 413 67 c 0
 421 67 434 69 451 80 c 1
 463 60 l 1
 444 40 426 25 409 14 c 0xda
 404 11 399 8 395 6 c 0
 368 -12 351 -40 351 -71 c 0
 351 -96 364 -116 396 -116 c 0
 417 -116 440 -105 465 -85 c 1xdc
EndSplineSet
EndChar
StartChar: wcircumflex
Encoding: 373 373 210
Width: 662
GlyphClass: 2
Flags: MW
HStem: -5 21G<158 185 158 158 409 436 409 409> 400 20 406 20G<92 115.5> 409 20G<573 611.5>
VStem: 599 56<320.5 325>
LayerCount: 2
Back
Fore
SplineSet
235 493 m 0xc8
 226 493 224 497 224 500 c 0
 224 508 264 532 310 576 c 2
 360 624 l 2
 376 639 389 649 394 649 c 0
 397 649 408 640 420 624 c 2
 456 576 l 2
 490 530 521 509 521 501 c 0
 521 499 519 493 508 493 c 0
 501 493 488 500 481 505 c 2
 384 578 l 1
 264 505 l 2
 255 500 243 493 235 493 c 0xc8
591 429 m 0x98
 632 429 655 407 655 368 c 0x98
 655 273 515 66 436 -5 c 1
 409 -5 l 1
 356 228 l 1
 308 137 235 39 185 -5 c 1
 158 -5 l 1
 74 341 l 2
 68 366 59 374 41 374 c 0
 34 374 26 373 16 371 c 1
 11 400 l 1
 39 413 80 426 104 426 c 0
 127 426 144 415 153 368 c 1xa8
 217 79 l 1
 271 141 326 227 343 284 c 1
 324 353 l 2
 318 376 309 398 301 420 c 1
 393 420 l 1xc8
 468 79 l 1
 533 154 599 262 599 315 c 0
 599 335 590 338 566 339 c 0
 549 340 538 357 538 381 c 0
 538 412 555 429 591 429 c 0x98
EndSplineSet
EndChar
StartChar: ycircumflex
Encoding: 375 375 216
Width: 411
GlyphClass: 2
Flags: MW
HStem: -239 94<-69 -50.5 -76.5 -41.5> 374 52<37.5 115.5> 406 20G<92 115.5> 409 20G<322 360.5>
VStem: 351 53<287 387.5>
LayerCount: 2
Back
Fore
SplineSet
110 493 m 0x98
 101 493 99 497 99 500 c 0
 99 508 139 532 185 576 c 2
 235 624 l 2
 251 639 264 649 269 649 c 0
 272 649 283 640 295 624 c 2
 331 576 l 2
 365 530 396 509 396 501 c 0
 396 499 394 493 383 493 c 0
 376 493 363 500 356 505 c 2
 259 578 l 1
 139 505 l 2
 130 500 118 493 110 493 c 0x98
340 429 m 0
 381 429 404 407 404 368 c 0x98
 404 303 339 157 263 39 c 0
 113 -195 -25 -239 -58 -239 c 0
 -80 -239 -108 -236 -108 -195 c 0
 -108 -171 -90 -145 -63 -145 c 0
 -38 -145 -19 -169 8 -169 c 0
 26 -169 95 -123 181 -15 c 1
 74 341 l 1
 68 366 59 374 41 374 c 0
 34 374 26 373 16 371 c 1xc8
 11 400 l 1
 39 413 80 426 104 426 c 0
 127 426 140 414 153 368 c 2xa8
 239 66 l 1
 299 156 351 259 351 315 c 0
 351 336 344 337 315 339 c 0
 298 340 287 357 287 381 c 0
 287 412 304 429 340 429 c 0
EndSplineSet
Substitution2: "Single Substitution lookup 23 subtable" ycircumflex.ss01
Substitution2: "'ss01' Style Set 1 lookup 16 subtable" ycircumflex.ss01
Substitution2: "'salt' Stylistic Alternatives lookup 15 subtable" ycircumflex.ss01
Substitution2: "'aalt' Access All Alternates lookup 0 subtable" ycircumflex.ss01
EndChar
StartChar: Ydieresis
Encoding: 376 376 105
Width: 491
GlyphClass: 2
Flags: MW
HStem: 0 27<169 174.5 289.5 296> 569 28<73 77.5 201 208 453 458 516.5 521> 677 95<229 250 403 424>
VStem: 184 109<714 734.5> 358 109<714 734.5> 460.12 92.88
LayerCount: 2
Back
Fore
SplineSet
232 677 m 0xf8
 204 677 184 692 184 718 c 0
 184 751 212 772 246 772 c 0
 275 772 293 756 293 731 c 0
 293 697 268 677 232 677 c 0xf8
406 677 m 0
 378 677 358 692 358 718 c 0
 358 751 386 772 420 772 c 0
 449 772 467 756 467 731 c 0
 467 697 442 677 406 677 c 0
406 597 m 1xf4
 555 597 l 1
 551 567 l 1
 521 569 l 2
 512 569 501 561 492 548 c 2
 315 288 l 1
 281 48 l 2
 279 36 283 27 296 27 c 2
 344 29 l 1
 340 0 l 1
 116 0 l 1
 120 29 l 1
 169 27 l 2
 180 27 187 34 189 49 c 2
 219 263 l 1
 92 550 l 2
 86 563 82 569 73 569 c 2
 45 567 l 1
 49 597 l 1
 265 597 l 1
 261 567 l 1
 208 569 l 2
 194 569 197 553 200 545 c 2
 299 319 l 1
 456 549 l 2
 461 556 463 569 453 569 c 2
 402 567 l 1
 406 597 l 1xf4
EndSplineSet
Position2: "'cpsp' Capital Spacing lookup 0 per glyph data 2" dx=5 dy=0 dh=10 dv=0
EndChar
